SplineFontDB: 3.2
FontName: TuluLipi
FullName: TuluLipi
FamilyName: TuluLipi
Weight: Book
Copyright: (c) Nishkal & Nishchith\n(c) Chaitanya Vats
Version: 20.20
ItalicAngle: 0
UnderlinePosition: -870
UnderlineWidth: 80
Ascent: 1638
Descent: 410
InvalidEm: 0
sfntRevision: 0x000a0000
LayerCount: 2
Layer: 0 1 "Back" 1
Layer: 1 1 "Fore" 0
XUID: [1021 479 805948191 11700]
BaseVert: 1 'romn'
StyleMap: 0x0040
FSType: 0
OS2Version: 5
OS2_WeightWidthSlopeOnly: 1
OS2_UseTypoMetrics: 0
CreationTime: 1410752901
ModificationTime: 1763735686
PfmFamily: 81
TTFWeight: 400
TTFWidth: 5
LineGap: 0
VLineGap: 0
Panose: 0 0 0 0 0 0 0 0 0 0
OS2TypoAscent: 1660
OS2TypoAOffset: 0
OS2TypoDescent: -1205
OS2TypoDOffset: 0
OS2TypoLinegap: 0
OS2WinAscent: 1660
OS2WinAOffset: 0
OS2WinDescent: 1205
OS2WinDOffset: 0
HheadAscent: 1660
HheadAOffset: 0
HheadDescent: -1205
HheadDOffset: 0
OS2SubXSize: 1434
OS2SubYSize: 1331
OS2SubXOff: 0
OS2SubYOff: 287
OS2SupXSize: 1434
OS2SupYSize: 1331
OS2SupXOff: 0
OS2SupYOff: 977
OS2StrikeYSize: 102
OS2StrikeYPos: 530
OS2CapHeight: 1172
OS2XHeight: 1024
OS2Vendor: 'TULU'
OS2CodePages: 00000001.00000000
OS2UnicodeRanges: 00800001.00000000.00000000.00000000
Lookup: 4 0 0 "'akhn' Akhand in Malay+AQEA-lam lookup 0" { "'akhn' Akhand in Malay+AQEA-lam lookup 0 subtable"  } ['akhn' ('mlym' <'dflt' > ) ]
Lookup: 6 0 0 "'half' Half Forms in Malay+AQEA-lam lookup 1" { "'half' Half Forms in Malay+AQEA-lam lookup 1 subtable"  } ['half' ('mlym' <'dflt' > ) ]
Lookup: 6 0 0 "'blws' Below Base Substitutions in Malay+AQEA-lam lookup 2" { "'blws' Below Base Substitutions in Malay+AQEA-lam lookup 2 subtable"  } ['blws' ('mlym' <'dflt' > ) ]
Lookup: 6 0 0 "'blws' Below Base Substitutions in Malay+AQEA-lam lookup 3" { "'blws' Below Base Substitutions in Malay+AQEA-lam lookup 3 subtable"  } ['blws' ('mlym' <'dflt' > ) ]

StartChar: .notdef
Encoding: 1114112 -1 0
Width: 956
GlyphClass: 2
Flags: W
LayerCount: 2
Fore
SplineSet
836 2 m 1,0,-1
 120 2 l 1,1,-1
 120 1172 l 1,2,-1
 836 1172 l 1,3,-1
 836 2 l 1,0,-1
684 154 m 1,4,-1
 684 1019 l 1,5,-1
 273 1019 l 1,6,-1
 273 154 l 1,7,-1
 684 154 l 1,4,-1
EndSplineSet
Validated: 1
EndChar

StartChar: exclam
Encoding: 33 33 4
Width: 430
GlyphClass: 2
Flags: W
LayerCount: 2
Fore
SplineSet
215 1327 m 256,0,1
 246 1327 246 1327 268 1305.5 c 128,-1,2
 290 1284 290 1284 290 1235 c 0,3,4
 290 1171 290 1171 281 1076 c 128,-1,5
 272 981 272 981 260 865.5 c 128,-1,6
 248 750 248 750 239 623 c 128,-1,7
 230 496 230 496 230 367 c 1,8,-1
 230 367 l 1,9,-1
 200 367 l 1,10,11
 200 496 200 496 191 623 c 128,-1,12
 182 750 182 750 170 865.5 c 128,-1,13
 158 981 158 981 149 1076 c 128,-1,14
 140 1171 140 1171 140 1235 c 0,15,16
 140 1284 140 1284 162 1305.5 c 128,-1,17
 184 1327 184 1327 215 1327 c 256,0,1
215 232 m 0,18,19
 258 232 258 232 289 201 c 128,-1,20
 320 170 320 170 320 127 c 0,21,22
 320 85 320 85 289 54 c 128,-1,23
 258 23 258 23 215 23 c 0,24,25
 173 23 173 23 141.5 54 c 128,-1,26
 110 85 110 85 110 127 c 0,27,28
 110 170 110 170 141.5 201 c 128,-1,29
 173 232 173 232 215 232 c 0,18,19
EndSplineSet
Validated: 5
EndChar

StartChar: quotedbl
Encoding: 34 34 5
Width: 684
GlyphClass: 2
Flags: W
LayerCount: 2
Fore
SplineSet
215 816 m 0,0,1
 179 816 179 816 156 830.5 c 128,-1,2
 133 845 133 845 118 868 c 0,3,4
 100 894 100 894 95 925 c 128,-1,5
 90 956 90 956 90 976 c 0,6,7
 90 1056 90 1056 131 1121.5 c 128,-1,8
 172 1187 172 1187 259 1228 c 1,9,-1
 274 1199 l 1,10,11
 223 1178 223 1178 186 1132 c 128,-1,12
 149 1086 149 1086 149 1038 c 0,13,14
 149 1019 149 1019 154 1004 c 1,15,16
 180 1025 180 1025 215 1025 c 0,17,18
 257 1025 257 1025 288.5 997.5 c 128,-1,19
 320 970 320 970 320 920 c 0,20,21
 320 875 320 875 288.5 845.5 c 128,-1,22
 257 816 257 816 215 816 c 0,0,1
493 816 m 0,23,24
 457 816 457 816 434 830.5 c 128,-1,25
 411 845 411 845 397 868 c 0,26,27
 379 894 379 894 374 925 c 128,-1,28
 369 956 369 956 369 976 c 0,29,30
 369 1056 369 1056 410 1121.5 c 128,-1,31
 451 1187 451 1187 537 1228 c 1,32,-1
 552 1199 l 1,33,34
 501 1178 501 1178 464.5 1132 c 128,-1,35
 428 1086 428 1086 428 1038 c 0,36,37
 428 1019 428 1019 433 1004 c 1,38,39
 459 1025 459 1025 493 1025 c 0,40,41
 536 1025 536 1025 567 997.5 c 128,-1,42
 598 970 598 970 598 920 c 0,43,44
 598 875 598 875 567 845.5 c 128,-1,45
 536 816 536 816 493 816 c 0,23,24
EndSplineSet
Validated: 1
EndChar

StartChar: numbersign
Encoding: 35 35 6
Width: 1044
GlyphClass: 2
Flags: W
LayerCount: 2
Fore
SplineSet
771 1032 m 1,0,-1
 612 211 l 1,1,-1
 580 211 l 1,2,-1
 739 1032 l 1,3,-1
 771 1032 l 1,0,-1
906 483 m 1,4,-1
 899 450 l 1,5,-1
 78 450 l 1,6,-1
 85 483 l 1,7,-1
 906 483 l 1,4,-1
465 1032 m 1,8,-1
 306 211 l 1,9,-1
 273 211 l 1,10,-1
 432 1032 l 1,11,-1
 465 1032 l 1,8,-1
965 789 m 1,12,-1
 960 757 l 1,13,-1
 139 757 l 1,14,-1
 144 789 l 1,15,-1
 965 789 l 1,12,-1
EndSplineSet
Validated: 5
EndChar

StartChar: dollar
Encoding: 36 36 7
Width: 857
GlyphClass: 2
Flags: W
LayerCount: 2
Fore
SplineSet
405 1224 m 0,0,1
 487 1224 487 1224 529.5 1205 c 128,-1,2
 572 1186 572 1186 605 1163 c 0,3,4
 625 1151 625 1151 637 1145.5 c 128,-1,5
 649 1140 649 1140 661 1140 c 0,6,7
 687 1140 687 1140 697 1212 c 1,8,-1
 735 1212 l 1,9,10
 733 1184 733 1184 730.5 1145.5 c 128,-1,11
 728 1107 728 1107 727 1044 c 128,-1,12
 726 981 726 981 726 878 c 1,13,-1
 689 878 l 1,14,15
 684 956 684 956 654.5 1028.5 c 128,-1,16
 625 1101 625 1101 568.5 1146.5 c 128,-1,17
 512 1192 512 1192 420 1192 c 0,18,19
 333 1192 333 1192 276.5 1140 c 128,-1,20
 220 1088 220 1088 220 1002 c 0,21,22
 220 947 220 947 242 906 c 128,-1,23
 264 865 264 865 302.5 831.5 c 128,-1,24
 341 798 341 798 390.5 767.5 c 128,-1,25
 440 737 440 737 495 702 c 0,26,27
 580 650 580 650 646.5 598.5 c 128,-1,28
 713 547 713 547 751.5 484.5 c 128,-1,29
 790 422 790 422 790 334 c 0,30,31
 790 229 790 229 742.5 160 c 128,-1,32
 695 91 695 91 616.5 57 c 128,-1,33
 538 23 538 23 443 23 c 0,34,35
 356 23 356 23 305 42.5 c 128,-1,36
 254 62 254 62 218 83 c 0,37,38
 199 96 199 96 186 101 c 128,-1,39
 173 106 173 106 163 106 c 0,40,41
 136 106 136 106 127 34 c 1,42,-1
 89 34 l 1,43,44
 92 68 92 68 93 115 c 128,-1,45
 94 162 94 162 95 237.5 c 128,-1,46
 96 313 96 313 96 427 c 1,47,-1
 133 427 l 1,48,49
 140 329 140 329 170 244 c 128,-1,50
 200 159 200 159 263.5 107 c 128,-1,51
 327 55 327 55 431 55 c 0,52,53
 512 55 512 55 578 107 c 128,-1,54
 644 159 644 159 644 273 c 0,55,56
 644 322 644 322 626 363 c 128,-1,57
 608 404 608 404 574 438.5 c 128,-1,58
 540 473 540 473 493 506 c 128,-1,59
 446 539 446 539 389 573 c 0,60,61
 312 621 312 621 244.5 670 c 128,-1,62
 177 719 177 719 137 783.5 c 128,-1,63
 97 848 97 848 97 940 c 0,64,65
 97 1037 97 1037 140.5 1100 c 128,-1,66
 184 1163 184 1163 254.5 1193.5 c 128,-1,67
 325 1224 325 1224 405 1224 c 0,0,1
381 1422 m 1,68,-1
 381 -171 l 1,69,-1
 348 -171 l 1,70,-1
 348 1422 l 1,71,-1
 381 1422 l 1,68,-1
518 1422 m 1,72,-1
 518 -171 l 1,73,-1
 485 -171 l 1,74,-1
 485 1422 l 1,75,-1
 518 1422 l 1,72,-1
EndSplineSet
Validated: 5
EndChar

StartChar: percent
Encoding: 37 37 8
Width: 1217
GlyphClass: 2
Flags: W
LayerCount: 2
Fore
SplineSet
302 1292 m 0,0,1
 412 1292 412 1292 479 1221.5 c 128,-1,2
 546 1151 546 1151 546 1025 c 0,3,4
 546 901 546 901 477.5 825.5 c 128,-1,5
 409 750 409 750 302 750 c 0,6,7
 192 750 192 750 125 820.5 c 128,-1,8
 58 891 58 891 58 1017 c 0,9,10
 58 1140 58 1140 127.5 1216 c 128,-1,11
 197 1292 197 1292 302 1292 c 0,0,1
908 535 m 0,12,13
 782 535 782 535 782 291 c 0,14,15
 782 172 782 172 818 112 c 128,-1,16
 854 52 854 52 915 52 c 0,17,18
 1040 52 1040 52 1040 295 c 0,19,20
 1040 416 1040 416 1005.5 475.5 c 128,-1,21
 971 535 971 535 908 535 c 0,12,13
912 565 m 0,22,23
 1022 565 1022 565 1089 494.5 c 128,-1,24
 1156 424 1156 424 1156 298 c 0,25,26
 1156 173 1156 173 1087 98 c 128,-1,27
 1018 23 1018 23 912 23 c 0,28,29
 802 23 802 23 735 93 c 128,-1,30
 668 163 668 163 668 290 c 0,31,32
 668 413 668 413 737.5 489 c 128,-1,33
 807 565 807 565 912 565 c 0,22,23
299 1263 m 0,34,35
 173 1263 173 1263 173 1019 c 0,36,37
 173 899 173 899 209 839.5 c 128,-1,38
 245 780 245 780 306 780 c 0,39,40
 430 780 430 780 430 1022 c 0,41,42
 430 1143 430 1143 395.5 1203 c 128,-1,43
 361 1263 361 1263 299 1263 c 0,34,35
1082 1396 m 1,44,-1
 1113 1374 l 1,45,-1
 155 -45 l 1,46,-1
 124 -23 l 1,47,-1
 1082 1396 l 1,44,-1
EndSplineSet
Validated: 1
EndChar

StartChar: ampersand
Encoding: 38 38 9
Width: 1372
GlyphClass: 2
Flags: W
LayerCount: 2
Fore
SplineSet
503 1196 m 0,0,1
 565 1196 565 1196 606 1182 c 128,-1,2
 647 1168 647 1168 674 1147 c 0,3,4
 706 1120 706 1120 720 1090 c 128,-1,5
 734 1060 734 1060 734 1033 c 0,6,7
 734 992 734 992 705.5 969.5 c 128,-1,8
 677 947 677 947 642 947 c 0,9,10
 610 947 610 947 583.5 968 c 128,-1,11
 557 989 557 989 557 1029 c 0,12,13
 557 1065 557 1065 581.5 1090 c 128,-1,14
 606 1115 606 1115 644 1119 c 1,15,16
 638 1140 638 1140 604 1155.5 c 128,-1,17
 570 1171 570 1171 520 1171 c 0,18,19
 436 1171 436 1171 383 1121 c 128,-1,20
 330 1071 330 1071 330 976 c 0,21,22
 330 930 330 930 347 882.5 c 128,-1,23
 364 835 364 835 413 789 c 1,24,25
 441 794 441 794 470.5 796.5 c 128,-1,26
 500 799 500 799 515 799 c 0,27,28
 580 799 580 799 580 761 c 0,29,30
 580 747 580 747 568 738.5 c 128,-1,31
 556 730 556 730 534 730 c 0,32,33
 503 730 503 730 468.5 744 c 128,-1,34
 434 758 434 758 415 766 c 1,35,36
 320 739 320 739 261 675.5 c 128,-1,37
 202 612 202 612 202 498 c 0,38,39
 202 385 202 385 261 306 c 128,-1,40
 320 227 320 227 419 185.5 c 128,-1,41
 518 144 518 144 641 144 c 0,42,43
 728 144 728 144 805.5 164.5 c 128,-1,44
 883 185 883 185 943 224 c 128,-1,45
 1003 263 1003 263 1037.5 318 c 128,-1,46
 1072 373 1072 373 1072 444 c 0,47,48
 1072 475 1072 475 1058.5 523 c 128,-1,49
 1045 571 1045 571 1004.5 618 c 128,-1,50
 964 665 964 665 878 691 c 1,51,-1
 898 707 l 1,52,53
 1018 671 1018 671 1068.5 591.5 c 128,-1,54
 1119 512 1119 512 1119 414 c 256,55,56
 1119 316 1119 316 1060 226 c 128,-1,57
 1001 136 1001 136 889.5 79.5 c 128,-1,58
 778 23 778 23 620 23 c 0,59,60
 479 23 479 23 357.5 72 c 128,-1,61
 236 121 236 121 162.5 212.5 c 128,-1,62
 89 304 89 304 89 431 c 0,63,64
 89 519 89 519 123 582 c 128,-1,65
 157 645 157 645 208 686 c 128,-1,66
 259 727 259 727 310 749 c 128,-1,67
 361 771 361 771 392 780 c 1,68,69
 310 816 310 816 268 873 c 128,-1,70
 226 930 226 930 226 991 c 0,71,72
 226 1030 226 1030 244 1067 c 128,-1,73
 262 1104 262 1104 296.5 1133.5 c 128,-1,74
 331 1163 331 1163 382.5 1179.5 c 128,-1,75
 434 1196 434 1196 503 1196 c 0,0,1
1100 1228 m 0,76,77
 1201 1228 1201 1228 1270 1170 c 128,-1,78
 1339 1112 1339 1112 1339 1007 c 0,79,80
 1339 924 1339 924 1294 867.5 c 128,-1,81
 1249 811 1249 811 1183 778 c 0,82,83
 1145 760 1145 760 1084 738.5 c 128,-1,84
 1023 717 1023 717 953 696 c 128,-1,85
 883 675 883 675 820 654.5 c 128,-1,86
 757 634 757 634 718 619 c 0,87,88
 657 596 657 596 615.5 562.5 c 128,-1,89
 574 529 574 529 574 476 c 0,90,91
 574 434 574 434 598.5 404.5 c 128,-1,92
 623 375 623 375 658 360 c 128,-1,93
 693 345 693 345 724 345 c 0,94,95
 747 345 747 345 782.5 354 c 128,-1,96
 818 363 818 363 823 381 c 1,97,98
 796 386 796 386 771 405 c 128,-1,99
 746 424 746 424 746 465 c 0,100,101
 746 504 746 504 772 527 c 128,-1,102
 798 550 798 550 836 550 c 0,103,104
 875 550 875 550 899 525.5 c 128,-1,105
 923 501 923 501 923 462 c 0,106,107
 923 416 923 416 892.5 384 c 128,-1,108
 862 352 862 352 817 336.5 c 128,-1,109
 772 321 772 321 728 321 c 0,110,111
 682 321 682 321 634.5 340.5 c 128,-1,112
 587 360 587 360 555.5 402 c 128,-1,113
 524 444 524 444 524 512 c 0,114,115
 524 598 524 598 581.5 656 c 128,-1,116
 639 714 639 714 751 752 c 0,117,118
 800 768 800 768 870.5 787.5 c 128,-1,119
 941 807 941 807 1015.5 830 c 128,-1,120
 1090 853 1090 853 1150 881 c 0,121,122
 1232 919 1232 919 1261.5 958 c 128,-1,123
 1291 997 1291 997 1291 1038 c 0,124,125
 1291 1109 1291 1109 1234.5 1156.5 c 128,-1,126
 1178 1204 1178 1204 1101 1204 c 0,127,128
 1082 1204 1082 1204 1068.5 1200.5 c 128,-1,129
 1055 1197 1055 1197 1052 1189 c 1,130,131
 1075 1178 1075 1178 1086.5 1156.5 c 128,-1,132
 1098 1135 1098 1135 1098 1114 c 0,133,134
 1098 1079 1098 1079 1071 1056 c 128,-1,135
 1044 1033 1044 1033 1006 1033 c 0,136,137
 975 1033 975 1033 947 1053.5 c 128,-1,138
 919 1074 919 1074 919 1115 c 0,139,140
 919 1158 919 1158 948 1182.5 c 128,-1,141
 977 1207 977 1207 1018.5 1217.5 c 128,-1,142
 1060 1228 1060 1228 1100 1228 c 0,76,77
EndSplineSet
Validated: 5
EndChar

StartChar: quotesingle
Encoding: 39 39 10
Width: 407
GlyphClass: 2
Flags: W
LayerCount: 2
Fore
SplineSet
215 816 m 0,0,1
 179 816 179 816 156 830.5 c 128,-1,2
 133 845 133 845 118 868 c 0,3,4
 100 894 100 894 95 925 c 128,-1,5
 90 956 90 956 90 976 c 0,6,7
 90 1056 90 1056 131 1121.5 c 128,-1,8
 172 1187 172 1187 259 1228 c 1,9,-1
 274 1199 l 1,10,11
 223 1178 223 1178 186 1132 c 128,-1,12
 149 1086 149 1086 149 1038 c 0,13,14
 149 1019 149 1019 154 1004 c 1,15,16
 180 1025 180 1025 215 1025 c 0,17,18
 257 1025 257 1025 288.5 997.5 c 128,-1,19
 320 970 320 970 320 920 c 0,20,21
 320 875 320 875 288.5 845.5 c 128,-1,22
 257 816 257 816 215 816 c 0,0,1
EndSplineSet
Validated: 1
EndChar

StartChar: parenleft
Encoding: 40 40 11
Width: 478
GlyphClass: 2
Flags: W
LayerCount: 2
Fore
SplineSet
410 1124 m 1,0,1
 259 1020 259 1020 170.5 872.5 c 128,-1,2
 82 725 82 725 82 557 c 0,3,4
 82 388 82 388 170.5 240.5 c 128,-1,5
 259 93 259 93 410 -10 c 1,6,-1
 428 11 l 1,7,8
 322 118 322 118 271 258 c 128,-1,9
 220 398 220 398 220 557 c 0,10,11
 220 717 220 717 271 857 c 128,-1,12
 322 997 322 997 428 1102 c 1,13,-1
 410 1124 l 1,0,1
EndSplineSet
Validated: 9
EndChar

StartChar: parenright
Encoding: 41 41 12
Width: 479
GlyphClass: 2
Flags: W
LayerCount: 2
Fore
SplineSet
69 1124 m 1,0,1
 219 1020 219 1020 307.5 872.5 c 128,-1,2
 396 725 396 725 396 557 c 0,3,4
 396 388 396 388 307.5 240.5 c 128,-1,5
 219 93 219 93 69 -10 c 1,6,-1
 50 11 l 1,7,8
 157 118 157 118 208 258 c 128,-1,9
 259 398 259 398 259 557 c 0,10,11
 259 717 259 717 208 857 c 128,-1,12
 157 997 157 997 50 1102 c 1,13,-1
 69 1124 l 1,0,1
EndSplineSet
Validated: 1
EndChar

StartChar: asterisk
Encoding: 42 42 13
Width: 806
GlyphClass: 2
Flags: W
LayerCount: 2
Fore
SplineSet
595 1076 m 0,0,1
 637 1101 637 1101 664 1093.5 c 128,-1,2
 691 1086 691 1086 703 1066 c 0,3,4
 714 1048 714 1048 706 1022 c 128,-1,5
 698 996 698 996 655 971 c 0,6,7
 614 948 614 948 554.5 934 c 128,-1,8
 495 920 495 920 403 893 c 1,9,-1
 401 897 l 1,10,11
 467 960 467 960 511 1006.5 c 128,-1,12
 555 1053 555 1053 595 1076 c 0,0,1
405 897 m 1,13,14
 492 871 492 871 554 856.5 c 128,-1,15
 616 842 616 842 657 819 c 0,16,17
 700 794 700 794 707 767 c 128,-1,18
 714 740 714 740 701 721 c 0,19,20
 691 702 691 702 665 695.5 c 128,-1,21
 639 689 639 689 596 714 c 0,22,23
 555 737 555 737 512.5 782 c 128,-1,24
 470 827 470 827 401 893 c 1,25,-1
 405 897 l 1,13,14
406 894 m 1,26,27
 428 807 428 807 446 745 c 128,-1,28
 464 683 464 683 465 637 c 0,29,30
 464 588 464 588 444 568 c 128,-1,31
 424 548 424 548 401 548 c 0,32,33
 380 548 380 548 362 567 c 128,-1,34
 344 586 344 586 344 637 c 0,35,36
 344 684 344 684 362 743 c 128,-1,37
 380 802 380 802 401 894 c 1,38,-1
 406 894 l 1,26,27
401 896 m 1,39,-1
 405 891 l 1,40,41
 339 830 339 830 295 782.5 c 128,-1,42
 251 735 251 735 211 712 c 0,43,44
 169 688 169 688 142 695 c 128,-1,45
 115 702 115 702 103 722 c 0,46,47
 92 740 92 740 100 765.5 c 128,-1,48
 108 791 108 791 151 817 c 0,49,50
 192 840 192 840 251.5 855 c 128,-1,51
 311 870 311 870 401 896 c 1,39,-1
210 1074 m 0,52,53
 251 1051 251 1051 293.5 1006 c 128,-1,54
 336 961 336 961 403 896 c 1,55,-1
 401 891 l 1,56,57
 316 917 316 917 253 932.5 c 128,-1,58
 190 948 190 948 149 970 c 0,59,60
 108 994 108 994 100.5 1021 c 128,-1,61
 93 1048 93 1048 105 1068 c 0,62,63
 115 1086 115 1086 141 1092.5 c 128,-1,64
 167 1099 167 1099 210 1074 c 0,52,53
403 1240 m 0,65,66
 426 1240 426 1240 444 1220.5 c 128,-1,67
 462 1201 462 1201 462 1151 c 0,68,69
 462 1106 462 1106 445 1046 c 128,-1,70
 428 986 428 986 405 894 c 1,71,-1
 400 894 l 1,72,73
 378 981 378 981 360 1043.5 c 128,-1,74
 342 1106 342 1106 342 1151 c 0,75,76
 342 1201 342 1201 362 1220.5 c 128,-1,77
 382 1240 382 1240 403 1240 c 0,65,66
EndSplineSet
Validated: 37
EndChar

StartChar: plus
Encoding: 43 43 14
Width: 961
GlyphClass: 2
Flags: W
LayerCount: 2
Fore
SplineSet
511 1038 m 1,0,-1
 511 652 l 1,1,-1
 891 652 l 1,2,-1
 891 603 l 1,3,-1
 511 603 l 1,4,-1
 511 218 l 1,5,-1
 452 218 l 1,6,-1
 452 603 l 1,7,-1
 70 603 l 1,8,-1
 70 652 l 1,9,-1
 452 652 l 1,10,-1
 452 1038 l 1,11,-1
 511 1038 l 1,0,-1
EndSplineSet
Validated: 1
EndChar

StartChar: comma
Encoding: 44 44 15
Width: 429
GlyphClass: 2
Flags: W
LayerCount: 2
Fore
SplineSet
207 232 m 0,0,1
 243 232 243 232 266 217.5 c 128,-1,2
 289 203 289 203 304 180 c 0,3,4
 322 154 322 154 327 122.5 c 128,-1,5
 332 91 332 91 332 72 c 0,6,7
 332 -9 332 -9 291 -74.5 c 128,-1,8
 250 -140 250 -140 163 -181 c 1,9,-1
 148 -151 l 1,10,11
 199 -130 199 -130 236 -84 c 128,-1,12
 273 -38 273 -38 273 9 c 0,13,14
 273 29 273 29 268 44 c 1,15,16
 242 23 242 23 207 23 c 0,17,18
 165 23 165 23 133.5 50.5 c 128,-1,19
 102 78 102 78 102 127 c 0,20,21
 102 173 102 173 133.5 202.5 c 128,-1,22
 165 232 165 232 207 232 c 0,0,1
EndSplineSet
Validated: 1
EndChar

StartChar: hyphenminus
Encoding: 45 45 16
Width: 843
GlyphClass: 2
Flags: W
LayerCount: 2
Fore
SplineSet
717 593 m 1,0,-1
 717 498 l 1,1,-1
 126 498 l 1,2,-1
 126 593 l 1,3,-1
 717 593 l 1,0,-1
EndSplineSet
Validated: 1
EndChar

StartChar: period
Encoding: 46 46 17
Width: 414
GlyphClass: 2
Flags: W
LayerCount: 2
Fore
SplineSet
207 232 m 0,0,1
 249 232 249 232 280.5 201 c 128,-1,2
 312 170 312 170 312 127 c 0,3,4
 312 85 312 85 280.5 54 c 128,-1,5
 249 23 249 23 207 23 c 0,6,7
 164 23 164 23 133 54 c 128,-1,8
 102 85 102 85 102 127 c 0,9,10
 102 170 102 170 133 201 c 128,-1,11
 164 232 164 232 207 232 c 0,0,1
EndSplineSet
Validated: 1
EndChar

StartChar: slash
Encoding: 47 47 18
Width: 609
GlyphClass: 2
Flags: W
LayerCount: 2
Fore
SplineSet
555 1228 m 1,0,-1
 110 23 l 1,1,-1
 56 23 l 1,2,-1
 501 1228 l 1,3,-1
 555 1228 l 1,0,-1
EndSplineSet
Validated: 1
EndChar

StartChar: zero
Encoding: 48 48 19
AltUni2: 000d66.ffffffff.0 000d66.ffffffff.0
Width: 995
GlyphClass: 2
Flags: W
LayerCount: 2
Fore
SplineSet
498 1228 m 0,0,1
 619 1228 619 1228 710 1158 c 128,-1,2
 801 1088 801 1088 852 956 c 128,-1,3
 903 824 903 824 903 635 c 0,4,5
 903 452 903 452 850.5 314.5 c 128,-1,6
 798 177 798 177 706 100 c 128,-1,7
 614 23 614 23 496 23 c 0,8,9
 375 23 375 23 284 93 c 128,-1,10
 193 163 193 163 142.5 296 c 128,-1,11
 92 429 92 429 92 616 c 0,12,13
 92 799 92 799 144.5 936.5 c 128,-1,14
 197 1074 197 1074 288.5 1151 c 128,-1,15
 380 1228 380 1228 498 1228 c 0,0,1
492 1199 m 0,16,17
 372 1199 372 1199 314 1050 c 128,-1,18
 256 901 256 901 256 622 c 0,19,20
 256 335 256 335 322 193.5 c 128,-1,21
 388 52 388 52 503 52 c 0,22,23
 624 52 624 52 681.5 201 c 128,-1,24
 739 350 739 350 739 629 c 0,25,26
 739 915 739 915 672.5 1057 c 128,-1,27
 606 1199 606 1199 492 1199 c 0,16,17
EndSplineSet
Validated: 1
EndChar

StartChar: one
Encoding: 49 49 20
Width: 586
GlyphClass: 2
Flags: W
LayerCount: 2
Fore
SplineSet
395 1222 m 1,0,-1
 395 219 l 2,1,2
 395 160 395 160 405 130.5 c 128,-1,3
 415 101 415 101 443.5 91.5 c 128,-1,4
 472 82 472 82 528 78 c 1,5,-1
 528 46 l 1,6,7
 494 49 494 49 438 49.5 c 128,-1,8
 382 50 382 50 318 50 c 0,9,10
 253 50 253 50 189 49.5 c 128,-1,11
 125 49 125 49 82 46 c 1,12,-1
 82 78 l 1,13,14
 151 82 151 82 187 91.5 c 128,-1,15
 223 101 223 101 235.5 130.5 c 128,-1,16
 248 160 248 160 248 219 c 2,17,-1
 248 960 l 2,18,19
 248 1045 248 1045 208.5 1066.5 c 128,-1,20
 169 1088 169 1088 58 1088 c 1,21,-1
 58 1122 l 1,22,23
 189 1142 189 1142 266.5 1169 c 128,-1,24
 344 1196 344 1196 395 1222 c 1,0,-1
EndSplineSet
Validated: 1
EndChar

StartChar: two
Encoding: 50 50 21
Width: 816
GlyphClass: 2
Flags: W
LayerCount: 2
Fore
SplineSet
395 1228 m 0,0,1
 481 1228 481 1228 550 1198 c 128,-1,2
 619 1168 619 1168 660 1109.5 c 128,-1,3
 701 1051 701 1051 701 965 c 0,4,5
 701 878 701 878 657.5 792 c 128,-1,6
 614 706 614 706 540.5 612.5 c 128,-1,7
 467 519 467 519 377.5 411 c 128,-1,8
 288 303 288 303 196 172 c 1,9,-1
 563 172 l 2,10,11
 616 172 616 172 645.5 204 c 128,-1,12
 675 236 675 236 685 324 c 1,13,-1
 722 324 l 1,14,15
 721 306 721 306 719 280 c 128,-1,16
 717 254 717 254 717 231 c 0,17,18
 717 198 717 198 719.5 148 c 128,-1,19
 722 98 722 98 729 46 c 1,20,-1
 377 46 l 2,21,22
 268 46 268 46 201 47.5 c 128,-1,23
 134 49 134 49 70 46 c 1,24,-1
 70 78 l 1,25,26
 132 149 132 149 212.5 245.5 c 128,-1,27
 293 342 293 342 368.5 456.5 c 128,-1,28
 444 571 444 571 493 694 c 128,-1,29
 542 817 542 817 542 938 c 0,30,31
 542 1024 542 1024 516.5 1080.5 c 128,-1,32
 491 1137 491 1137 446 1164.5 c 128,-1,33
 401 1192 401 1192 344 1192 c 0,34,35
 286 1192 286 1192 232 1164.5 c 128,-1,36
 178 1137 178 1137 157 1081 c 1,37,38
 195 1074 195 1074 223.5 1053.5 c 128,-1,39
 252 1033 252 1033 252 994 c 0,40,41
 252 956 252 956 226 932.5 c 128,-1,42
 200 909 200 909 162 909 c 0,43,44
 119 909 119 909 97 937 c 128,-1,45
 75 965 75 965 75 999 c 0,46,47
 75 1025 75 1025 89 1058 c 128,-1,48
 103 1091 103 1091 132 1124 c 0,49,50
 185 1181 185 1181 254.5 1204.5 c 128,-1,51
 324 1228 324 1228 395 1228 c 0,0,1
EndSplineSet
Validated: 33
EndChar

StartChar: three
Encoding: 51 51 22
Width: 876
GlyphClass: 2
Flags: W
LayerCount: 2
Fore
SplineSet
440 1228 m 0,0,1
 570 1228 570 1228 650 1162 c 128,-1,2
 730 1096 730 1096 730 983 c 0,3,4
 730 901 730 901 683.5 836 c 128,-1,5
 637 771 637 771 567.5 727.5 c 128,-1,6
 498 684 498 684 427 665 c 1,7,8
 521 662 521 662 604.5 627.5 c 128,-1,9
 688 593 688 593 740 527.5 c 128,-1,10
 792 462 792 462 792 360 c 0,11,12
 792 254 792 254 734 178.5 c 128,-1,13
 676 103 676 103 579.5 63 c 128,-1,14
 483 23 483 23 365 23 c 0,15,16
 285 23 285 23 231.5 41.5 c 128,-1,17
 178 60 178 60 149 80 c 0,18,19
 114 103 114 103 93 133 c 128,-1,20
 72 163 72 163 72 198 c 0,21,22
 72 236 72 236 96.5 260.5 c 128,-1,23
 121 285 121 285 160 285 c 0,24,25
 196 285 196 285 222.5 262 c 128,-1,26
 249 239 249 239 249 196 c 0,27,28
 249 162 249 162 230 140.5 c 128,-1,29
 211 119 211 119 180 113 c 1,30,31
 194 88 194 88 247.5 69 c 128,-1,32
 301 50 301 50 363 50 c 0,33,34
 499 50 499 50 568 138 c 128,-1,35
 637 226 637 226 637 350 c 0,36,37
 637 486 637 486 568 563 c 128,-1,38
 499 640 499 640 386 650 c 1,39,40
 360 640 360 640 346 634.5 c 128,-1,41
 332 629 332 629 319 629 c 0,42,43
 303 629 303 629 294 637 c 128,-1,44
 285 645 285 645 285 655 c 0,45,46
 285 681 285 681 322 681 c 0,47,48
 337 681 337 681 352 678 c 128,-1,49
 367 675 367 675 383 671 c 1,50,51
 484 693 484 693 527.5 770.5 c 128,-1,52
 571 848 571 848 571 948 c 0,53,54
 571 1061 571 1061 524.5 1126 c 128,-1,55
 478 1191 478 1191 386 1191 c 0,56,57
 327 1191 327 1191 269 1164 c 128,-1,58
 211 1137 211 1137 186 1081 c 1,59,60
 224 1074 224 1074 252.5 1053.5 c 128,-1,61
 281 1033 281 1033 281 994 c 0,62,63
 281 956 281 956 255 932.5 c 128,-1,64
 229 909 229 909 191 909 c 0,65,66
 149 909 149 909 126.5 937 c 128,-1,67
 104 965 104 965 104 997 c 0,68,69
 104 1025 104 1025 119 1058.5 c 128,-1,70
 134 1092 134 1092 162 1124 c 0,71,72
 211 1178 211 1178 286.5 1203 c 128,-1,73
 362 1228 362 1228 440 1228 c 0,0,1
EndSplineSet
Validated: 1
EndChar

StartChar: four
Encoding: 52 52 23
Width: 883
GlyphClass: 2
Flags: W
LayerCount: 2
Fore
SplineSet
600 1228 m 1,0,-1
 596 1176 l 1,1,-1
 64 380 l 1,2,-1
 110 458 l 1,3,-1
 832 458 l 1,4,-1
 832 349 l 1,5,-1
 28 349 l 1,6,-1
 28 381 l 1,7,-1
 600 1228 l 1,0,-1
626 1228 m 1,8,-1
 626 219 l 2,9,10
 626 160 626 160 635.5 130.5 c 128,-1,11
 645 101 645 101 674 91.5 c 128,-1,12
 703 82 703 82 758 78 c 1,13,-1
 758 46 l 1,14,15
 724 49 724 49 668.5 49.5 c 128,-1,16
 613 50 613 50 549 50 c 0,17,18
 483 50 483 50 419 49.5 c 128,-1,19
 355 49 355 49 313 46 c 1,20,-1
 313 78 l 1,21,22
 382 82 382 82 418 91.5 c 128,-1,23
 454 101 454 101 466 130.5 c 128,-1,24
 478 160 478 160 478 219 c 2,25,-1
 478 1014 l 1,26,-1
 600 1228 l 1,27,-1
 626 1228 l 1,8,-1
EndSplineSet
Validated: 5
EndChar

StartChar: five
Encoding: 53 53 24
Width: 829
GlyphClass: 2
Flags: W
LayerCount: 2
Fore
SplineSet
685 1287 m 1,0,1
 683 1269 683 1269 681.5 1242 c 128,-1,2
 680 1215 680 1215 680 1196 c 0,3,4
 680 1171 680 1171 682.5 1141.5 c 128,-1,5
 685 1112 685 1112 692 1079 c 1,6,-1
 185 1079 l 1,7,-1
 171 686 l 1,8,9
 221 719 221 719 277.5 733 c 128,-1,10
 334 747 334 747 395 747 c 0,11,12
 485 747 485 747 568 710 c 128,-1,13
 651 673 651 673 704 597.5 c 128,-1,14
 757 522 757 522 757 406 c 0,15,16
 757 281 757 281 702 195 c 128,-1,17
 647 109 647 109 555.5 66 c 128,-1,18
 464 23 464 23 349 23 c 0,19,20
 290 23 290 23 245 37.5 c 128,-1,21
 200 52 200 52 167 72 c 0,22,23
 120 100 120 100 97 134 c 128,-1,24
 74 168 74 168 74 198 c 0,25,26
 74 236 74 236 98.5 260.5 c 128,-1,27
 123 285 123 285 161 285 c 0,28,29
 198 285 198 285 224.5 262 c 128,-1,30
 251 239 251 239 251 196 c 0,31,32
 251 162 251 162 232 140.5 c 128,-1,33
 213 119 213 119 182 113 c 1,34,35
 195 88 195 88 244 69 c 128,-1,36
 293 50 293 50 344 50 c 0,37,38
 418 50 418 50 475.5 84 c 128,-1,39
 533 118 533 118 565.5 195.5 c 128,-1,40
 598 273 598 273 598 404 c 0,41,42
 598 571 598 571 529.5 642.5 c 128,-1,43
 461 714 461 714 369 714 c 0,44,45
 333 714 333 714 274 700 c 128,-1,46
 215 686 215 686 162 648 c 1,47,-1
 136 660 l 1,48,-1
 157 1212 l 1,49,50
 190 1205 190 1205 231 1205 c 2,51,-1
 536 1205 l 2,52,53
 593 1205 593 1205 621 1223.5 c 128,-1,54
 649 1242 649 1242 657 1287 c 1,55,-1
 685 1287 l 1,0,1
EndSplineSet
Validated: 1
EndChar

StartChar: six
Encoding: 54 54 25
Width: 916
GlyphClass: 2
Flags: W
LayerCount: 2
Fore
SplineSet
533 1228 m 0,0,1
 577 1228 577 1228 617 1219 c 128,-1,2
 657 1210 657 1210 689 1194 c 256,3,4
 721 1178 721 1178 751.5 1146.5 c 128,-1,5
 782 1115 782 1115 782 1073 c 0,6,7
 782 1037 782 1037 756 1010.5 c 128,-1,8
 730 984 730 984 692 984 c 0,9,10
 656 984 656 984 629.5 1008 c 128,-1,11
 603 1032 603 1032 603 1068 c 0,12,13
 603 1097 603 1097 621 1122 c 128,-1,14
 639 1147 639 1147 671 1160 c 1,15,16
 651 1183 651 1183 607.5 1192 c 128,-1,17
 564 1201 564 1201 531 1201 c 0,18,19
 477 1201 477 1201 427 1174 c 128,-1,20
 377 1147 377 1147 338 1079 c 128,-1,21
 299 1011 299 1011 276 893 c 128,-1,22
 253 775 253 775 253 593 c 0,23,24
 253 427 253 427 271.5 322.5 c 128,-1,25
 290 218 290 218 322 159.5 c 128,-1,26
 354 101 354 101 394.5 78 c 128,-1,27
 435 55 435 55 476 55 c 0,28,29
 559 55 559 55 619 135.5 c 128,-1,30
 679 216 679 216 679 411 c 0,31,32
 679 589 679 589 627.5 668 c 128,-1,33
 576 747 576 747 495 747 c 0,34,35
 458 747 458 747 408 722.5 c 128,-1,36
 358 698 358 698 314.5 628 c 128,-1,37
 271 558 271 558 253 421 c 1,38,-1
 233 427 l 1,39,40
 245 558 245 558 286.5 635 c 128,-1,41
 328 712 328 712 390.5 746 c 128,-1,42
 453 780 453 780 523 780 c 0,43,44
 605 780 605 780 677 739.5 c 128,-1,45
 749 699 749 699 793.5 618 c 128,-1,46
 838 537 838 537 838 414 c 0,47,48
 838 285 838 285 788 198 c 128,-1,49
 738 111 738 111 654.5 67 c 128,-1,50
 571 23 571 23 469 23 c 0,51,52
 289 23 289 23 191.5 162 c 128,-1,53
 94 301 94 301 94 567 c 0,54,55
 94 771 94 771 149.5 919.5 c 128,-1,56
 205 1068 205 1068 304.5 1148 c 128,-1,57
 404 1228 404 1228 533 1228 c 0,0,1
EndSplineSet
Validated: 5
EndChar

StartChar: seven
Encoding: 55 55 26
Width: 778
GlyphClass: 2
Flags: W
LayerCount: 2
Fore
SplineSet
768 1205 m 1,0,-1
 768 1171 l 1,1,2
 726 1088 726 1088 665 983.5 c 128,-1,3
 604 879 604 879 546 759.5 c 128,-1,4
 488 640 488 640 449.5 508 c 128,-1,5
 411 376 411 376 413 236 c 0,6,7
 413 196 413 196 416 164 c 128,-1,8
 419 132 419 132 419 106 c 0,9,10
 419 70 419 70 398 46.5 c 128,-1,11
 377 23 377 23 342 23 c 0,12,13
 305 23 305 23 287 50.5 c 128,-1,14
 269 78 269 78 269 114 c 0,15,16
 269 254 269 254 318 395.5 c 128,-1,17
 367 537 367 537 442.5 674.5 c 128,-1,18
 518 812 518 812 598 938.5 c 128,-1,19
 678 1065 678 1065 739 1171 c 1,20,-1
 693 1079 l 1,21,-1
 257 1079 l 2,22,23
 177 1079 177 1079 137.5 1046.5 c 128,-1,24
 98 1014 98 1014 90 932 c 1,25,-1
 52 932 l 1,26,27
 57 984 57 984 57 1061 c 0,28,29
 57 1083 57 1083 54.5 1123 c 128,-1,30
 52 1163 52 1163 46 1205 c 1,31,32
 101 1204 101 1204 170 1202.5 c 128,-1,33
 239 1201 239 1201 307 1201 c 128,-1,34
 375 1201 375 1201 426 1201 c 0,35,36
 547 1201 547 1201 622.5 1202.5 c 128,-1,37
 698 1204 698 1204 768 1205 c 1,0,-1
EndSplineSet
Validated: 37
EndChar

StartChar: eight
Encoding: 56 56 27
Width: 921
GlyphClass: 2
Flags: W
LayerCount: 2
Fore
SplineSet
474 1228 m 0,0,1
 556 1228 556 1228 624.5 1203 c 128,-1,2
 693 1178 693 1178 735 1128 c 128,-1,3
 777 1078 777 1078 777 1004 c 0,4,5
 777 904 777 904 702.5 827 c 128,-1,6
 628 750 628 750 510 684 c 1,7,-1
 497 707 l 1,8,9
 577 760 577 760 611.5 831 c 128,-1,10
 646 902 646 902 646 983 c 0,11,12
 646 1079 646 1079 596.5 1139 c 128,-1,13
 547 1199 547 1199 456 1199 c 0,14,15
 375 1199 375 1199 322 1152.5 c 128,-1,16
 269 1106 269 1106 269 1024 c 0,17,18
 269 947 269 947 310 888.5 c 128,-1,19
 351 830 351 830 416.5 782.5 c 128,-1,20
 482 735 482 735 555 690 c 128,-1,21
 628 645 628 645 693.5 595 c 128,-1,22
 759 545 759 545 800 482 c 128,-1,23
 841 419 841 419 841 335 c 0,24,25
 841 242 841 242 790 171.5 c 128,-1,26
 739 101 739 101 650.5 62 c 128,-1,27
 562 23 562 23 449 23 c 0,28,29
 354 23 354 23 270.5 53 c 128,-1,30
 187 83 187 83 134.5 144.5 c 128,-1,31
 82 206 82 206 82 298 c 0,32,33
 82 383 82 383 126.5 451 c 128,-1,34
 171 519 171 519 243.5 570.5 c 128,-1,35
 316 622 316 622 405 658 c 1,36,-1
 418 635 l 1,37,38
 316 578 316 578 271 497 c 128,-1,39
 226 416 226 416 226 322 c 0,40,41
 226 252 226 252 250 190.5 c 128,-1,42
 274 129 274 129 325.5 90.5 c 128,-1,43
 377 52 377 52 459 52 c 0,44,45
 554 52 554 52 627.5 107 c 128,-1,46
 701 162 701 162 701 267 c 0,47,48
 701 347 701 347 661 407.5 c 128,-1,49
 621 468 621 468 557 519.5 c 128,-1,50
 493 571 493 571 421 618.5 c 128,-1,51
 349 666 349 666 285 717 c 128,-1,52
 221 768 221 768 181 830.5 c 128,-1,53
 141 893 141 893 141 973 c 0,54,55
 141 1050 141 1050 185.5 1107.5 c 128,-1,56
 230 1165 230 1165 305 1196.5 c 128,-1,57
 380 1228 380 1228 474 1228 c 0,0,1
EndSplineSet
Validated: 5
EndChar

StartChar: nine
Encoding: 57 57 28
Width: 916
GlyphClass: 2
Flags: W
LayerCount: 2
Fore
SplineSet
447 1228 m 0,0,1
 627 1228 627 1228 724.5 1089 c 128,-1,2
 822 950 822 950 822 684 c 0,3,4
 822 481 822 481 766.5 332 c 128,-1,5
 711 183 711 183 612.5 103 c 128,-1,6
 514 23 514 23 383 23 c 0,7,8
 339 23 339 23 298.5 32 c 128,-1,9
 258 41 258 41 227 57 c 0,10,11
 194 75 194 75 164 106 c 128,-1,12
 134 137 134 137 134 178 c 0,13,14
 134 216 134 216 160 241.5 c 128,-1,15
 186 267 186 267 224 267 c 0,16,17
 260 267 260 267 286 244 c 128,-1,18
 312 221 312 221 312 183 c 0,19,20
 312 154 312 154 294 129 c 128,-1,21
 276 104 276 104 245 91 c 1,22,23
 265 70 265 70 308.5 60 c 128,-1,24
 352 50 352 50 385 50 c 0,25,26
 439 50 439 50 489 77 c 128,-1,27
 539 104 539 104 578 172 c 128,-1,28
 617 240 617 240 640 358 c 128,-1,29
 663 476 663 476 663 658 c 0,30,31
 663 824 663 824 644 928.5 c 128,-1,32
 625 1033 625 1033 593 1091.5 c 128,-1,33
 561 1150 561 1150 522 1173 c 128,-1,34
 483 1196 483 1196 440 1196 c 0,35,36
 357 1196 357 1196 297 1115.5 c 128,-1,37
 237 1035 237 1035 237 840 c 0,38,39
 237 662 237 662 288.5 583 c 128,-1,40
 340 504 340 504 421 504 c 0,41,42
 460 504 460 504 509 528.5 c 128,-1,43
 558 553 558 553 601.5 623.5 c 128,-1,44
 645 694 645 694 663 830 c 1,45,-1
 683 824 l 1,46,47
 671 693 671 693 629.5 616 c 128,-1,48
 588 539 588 539 526.5 505 c 128,-1,49
 465 471 465 471 393 471 c 0,50,51
 311 471 311 471 239 511.5 c 128,-1,52
 167 552 167 552 122.5 633 c 128,-1,53
 78 714 78 714 78 837 c 0,54,55
 78 966 78 966 128 1053 c 128,-1,56
 178 1140 178 1140 262.5 1184 c 128,-1,57
 347 1228 347 1228 447 1228 c 0,0,1
EndSplineSet
Validated: 5
EndChar

StartChar: colon
Encoding: 58 58 29
Width: 437
GlyphClass: 2
Flags: W
LayerCount: 2
Fore
SplineSet
218 911 m 0,0,1
 261 911 261 911 292 879.5 c 128,-1,2
 323 848 323 848 323 806 c 0,3,4
 323 763 323 763 292 732 c 128,-1,5
 261 701 261 701 218 701 c 0,6,7
 176 701 176 701 144.5 732 c 128,-1,8
 113 763 113 763 113 806 c 0,9,10
 113 848 113 848 144.5 879.5 c 128,-1,11
 176 911 176 911 218 911 c 0,0,1
218 232 m 0,12,13
 261 232 261 232 292 201 c 128,-1,14
 323 170 323 170 323 127 c 0,15,16
 323 85 323 85 292 54 c 128,-1,17
 261 23 261 23 218 23 c 0,18,19
 176 23 176 23 144.5 54 c 128,-1,20
 113 85 113 85 113 127 c 0,21,22
 113 170 113 170 144.5 201 c 128,-1,23
 176 232 176 232 218 232 c 0,12,13
EndSplineSet
Validated: 1
EndChar

StartChar: semicolon
Encoding: 59 59 30
Width: 468
GlyphClass: 2
Flags: W
LayerCount: 2
Fore
SplineSet
225 232 m 0,0,1
 261 232 261 232 284 217.5 c 128,-1,2
 307 203 307 203 322 180 c 0,3,4
 340 154 340 154 345 122.5 c 128,-1,5
 350 91 350 91 350 72 c 0,6,7
 350 -9 350 -9 309 -74.5 c 128,-1,8
 268 -140 268 -140 181 -181 c 1,9,-1
 166 -151 l 1,10,11
 217 -130 217 -130 254 -84 c 128,-1,12
 291 -38 291 -38 291 9 c 0,13,14
 291 29 291 29 286 44 c 1,15,16
 260 23 260 23 225 23 c 0,17,18
 183 23 183 23 151.5 50.5 c 128,-1,19
 120 78 120 78 120 127 c 0,20,21
 120 173 120 173 151.5 202.5 c 128,-1,22
 183 232 183 232 225 232 c 0,0,1
237 911 m 0,23,24
 279 911 279 911 310.5 879.5 c 128,-1,25
 342 848 342 848 342 806 c 0,26,27
 342 763 342 763 310.5 732 c 128,-1,28
 279 701 279 701 237 701 c 0,29,30
 194 701 194 701 163 732 c 128,-1,31
 132 763 132 763 132 806 c 0,32,33
 132 848 132 848 163 879.5 c 128,-1,34
 194 911 194 911 237 911 c 0,23,24
EndSplineSet
Validated: 1
EndChar

StartChar: less
Encoding: 60 60 31
Width: 706
GlyphClass: 2
Flags: W
LayerCount: 2
Fore
SplineSet
335 1065 m 0,0,1
 474 1065 474 1065 561 1003.5 c 128,-1,2
 648 942 648 942 648 827 c 0,3,4
 648 757 648 757 609.5 705 c 128,-1,5
 571 653 571 653 510.5 618 c 128,-1,6
 450 583 450 583 386 561.5 c 128,-1,7
 322 540 322 540 269 532 c 1,8,-1
 310 380 l 1,9,-1
 278 372 l 1,10,-1
 224 550 l 1,11,12
 358 580 358 580 430 643 c 128,-1,13
 502 706 502 706 502 835 c 0,14,15
 502 927 502 927 457 982 c 128,-1,16
 412 1037 412 1037 327 1037 c 0,17,18
 299 1037 299 1037 266 1032 c 128,-1,19
 233 1027 233 1027 206 1017 c 0,20,21
 176 1006 176 1006 159 991 c 128,-1,22
 142 976 142 976 143 956 c 1,23,24
 170 950 170 950 188 930.5 c 128,-1,25
 206 911 206 911 206 881 c 0,26,27
 206 850 206 850 184.5 828 c 128,-1,28
 163 806 163 806 130 806 c 0,29,30
 96 806 96 806 74.5 830.5 c 128,-1,31
 53 855 53 855 53 891 c 0,32,33
 53 929 53 929 82.5 970.5 c 128,-1,34
 112 1012 112 1012 178 1038 c 0,35,36
 211 1051 211 1051 249.5 1058 c 128,-1,37
 288 1065 288 1065 335 1065 c 0,0,1
320 232 m 0,38,39
 363 232 363 232 394 201 c 128,-1,40
 425 170 425 170 425 127 c 0,41,42
 425 85 425 85 394 54 c 128,-1,43
 363 23 363 23 320 23 c 0,44,45
 278 23 278 23 246.5 54 c 128,-1,46
 215 85 215 85 215 127 c 0,47,48
 215 170 215 170 246.5 201 c 128,-1,49
 278 232 278 232 320 232 c 0,38,39
EndSplineSet
Validated: 1
EndChar

StartChar: equal
Encoding: 61 61 32
Width: 1059
GlyphClass: 2
Flags: W
LayerCount: 2
Fore
SplineSet
940 766 m 1,0,-1
 940 717 l 1,1,-1
 120 717 l 1,2,-1
 120 766 l 1,3,-1
 940 766 l 1,0,-1
940 537 m 1,4,-1
 940 488 l 1,5,-1
 120 488 l 1,6,-1
 120 537 l 1,7,-1
 940 537 l 1,4,-1
EndSplineSet
Validated: 1
EndChar

StartChar: greater
Encoding: 62 62 33
Width: 996
GlyphClass: 2
Flags: W
LayerCount: 2
Fore
SplineSet
149 999 m 1,0,-1
 122 940 l 1,1,-1
 792 627 l 1,2,-1
 122 314 l 1,3,-1
 149 255 l 1,4,-1
 947 627 l 1,5,-1
 149 999 l 1,0,-1
EndSplineSet
Validated: 9
EndChar

StartChar: question
Encoding: 63 63 34
Width: 996
GlyphClass: 2
Flags: W
LayerCount: 2
Fore
SplineSet
847 999 m 1,0,-1
 875 940 l 1,1,-1
 205 627 l 1,2,-1
 875 314 l 1,3,-1
 847 255 l 1,4,-1
 49 627 l 1,5,-1
 847 999 l 1,0,-1
EndSplineSet
Validated: 1
EndChar

StartChar: at
Encoding: 64 64 35
Width: 1438
GlyphClass: 2
Flags: W
LayerCount: 2
Fore
SplineSet
872 1140 m 0,0,1
 1014 1140 1014 1140 1129.5 1094 c 128,-1,2
 1245 1048 1245 1048 1314 949 c 128,-1,3
 1383 850 1383 850 1383 689 c 0,4,5
 1383 552 1383 552 1338.5 440.5 c 128,-1,6
 1294 329 1294 329 1223 250.5 c 128,-1,7
 1152 172 1152 172 1069 130 c 128,-1,8
 986 88 986 88 908 88 c 0,9,10
 842 88 842 88 816 116 c 128,-1,11
 790 144 790 144 790 184 c 128,-1,12
 790 224 790 224 799.5 261.5 c 128,-1,13
 809 299 809 299 814 317 c 2,14,-1
 914 806 l 1,15,16
 952 806 952 806 991 811 c 128,-1,17
 1030 816 1030 816 1062 829 c 1,18,-1
 924 227 l 2,19,20
 908 172 908 172 917 150.5 c 128,-1,21
 926 129 926 129 962 129 c 0,22,23
 1009 129 1009 129 1074.5 166 c 128,-1,24
 1140 203 1140 203 1203 274 c 128,-1,25
 1266 345 1266 345 1308 450 c 128,-1,26
 1350 555 1350 555 1350 691 c 0,27,28
 1350 843 1350 843 1284.5 935 c 128,-1,29
 1219 1027 1219 1027 1111 1068.5 c 128,-1,30
 1003 1110 1003 1110 873 1110 c 0,31,32
 722 1110 722 1110 585.5 1044 c 128,-1,33
 449 978 449 978 342.5 863 c 128,-1,34
 236 748 236 748 174.5 599 c 128,-1,35
 113 450 113 450 113 283 c 0,36,37
 113 114 113 114 177 10 c 128,-1,38
 241 -94 241 -94 352.5 -141.5 c 128,-1,39
 464 -189 464 -189 604 -189 c 0,40,41
 693 -189 693 -189 777.5 -168.5 c 128,-1,42
 862 -148 862 -148 942 -100 c 1,43,-1
 953 -122 l 1,44,45
 893 -164 893 -164 803 -191 c 128,-1,46
 713 -218 713 -218 603 -218 c 0,47,48
 450 -218 450 -218 332.5 -165.5 c 128,-1,49
 215 -113 215 -113 147.5 -3.5 c 128,-1,50
 80 106 80 106 80 280 c 0,51,52
 80 445 80 445 140.5 599 c 128,-1,53
 201 753 201 753 310 875 c 128,-1,54
 419 997 419 997 562.5 1068.5 c 128,-1,55
 706 1140 706 1140 872 1140 c 0,0,1
783 829 m 0,56,57
 821 829 821 829 849.5 814 c 128,-1,58
 878 799 878 799 893.5 767 c 128,-1,59
 909 735 909 735 904 680 c 1,60,-1
 891 673 l 1,61,62
 891 716 891 716 879.5 742 c 128,-1,63
 868 768 868 768 845 779.5 c 128,-1,64
 822 791 822 791 790 791 c 0,65,66
 736 791 736 791 689 746.5 c 128,-1,67
 642 702 642 702 607 629.5 c 128,-1,68
 572 557 572 557 552 470 c 128,-1,69
 532 383 532 383 532 296 c 0,70,71
 532 216 532 216 554.5 176.5 c 128,-1,72
 577 137 577 137 618 137 c 0,73,74
 681 137 681 137 747.5 237 c 128,-1,75
 814 337 814 337 855 512 c 1,76,-1
 868 486 l 1,77,78
 832 350 832 350 789.5 261.5 c 128,-1,79
 747 173 747 173 692 130.5 c 128,-1,80
 637 88 637 88 562 88 c 0,81,82
 468 88 468 88 430.5 145.5 c 128,-1,83
 393 203 393 203 393 286 c 0,84,85
 393 380 393 380 427.5 475.5 c 128,-1,86
 462 571 462 571 518.5 650.5 c 128,-1,87
 575 730 575 730 644 779.5 c 128,-1,88
 713 829 713 829 783 829 c 0,56,57
EndSplineSet
Validated: 37
EndChar

StartChar: A
Encoding: 65 65 36
Width: 990
GlyphClass: 2
Flags: W
LayerCount: 2
Fore
SplineSet
508 1174 m 1,0,-1
 891 185 l 2,1,2
 915 125 915 125 945 105.5 c 128,-1,3
 975 86 975 86 1000 84 c 1,4,-1
 1000 53 l 1,5,6
 968 56 968 56 922.5 56.5 c 128,-1,7
 877 57 877 57 832 57 c 0,8,9
 770 57 770 57 716.5 56.5 c 128,-1,10
 663 56 663 56 630 53 c 1,11,-1
 630 84 l 1,12,13
 711 87 711 87 733 111.5 c 128,-1,14
 755 136 755 136 723 216 c 2,15,-1
 431 998 l 1,16,-1
 456 1019 l 1,17,-1
 182 308 l 2,18,19
 149 223 149 223 150.5 175 c 128,-1,20
 152 127 152 127 186.5 106.5 c 128,-1,21
 221 86 221 86 287 84 c 1,22,-1
 287 53 l 1,23,24
 243 56 243 56 195 56.5 c 128,-1,25
 147 57 147 57 107 57 c 256,26,27
 67 57 67 57 39.5 56.5 c 128,-1,28
 12 56 12 56 -11 53 c 1,29,-1
 -11 84 l 1,30,31
 20 92 20 92 53 121 c 128,-1,32
 86 150 86 150 113 221 c 2,33,-1
 482 1174 l 1,34,35
 489 1174 489 1174 495 1174 c 128,-1,36
 501 1174 501 1174 508 1174 c 1,0,-1
700 506 m 1,37,-1
 700 474 l 1,38,-1
 231 474 l 1,39,-1
 247 506 l 1,40,-1
 700 506 l 1,37,-1
EndSplineSet
Validated: 37
EndChar

StartChar: B
Encoding: 66 66 37
Width: 980
GlyphClass: 2
Flags: W
LayerCount: 2
Fore
SplineSet
66 1166 m 1,0,1
 99 1165 99 1165 152.5 1163.5 c 128,-1,2
 206 1162 206 1162 258 1162 c 0,3,4
 332 1162 332 1162 399.5 1163.5 c 128,-1,5
 467 1165 467 1165 495 1165 c 0,6,7
 660 1165 660 1165 743.5 1095.5 c 128,-1,8
 827 1026 827 1026 827 918 c 0,9,10
 827 863 827 863 804.5 810 c 128,-1,11
 782 757 782 757 729 714 c 128,-1,12
 676 671 676 671 588 644 c 1,13,-1
 588 641 l 1,14,15
 712 625 712 625 782 582 c 128,-1,16
 852 539 852 539 880.5 480.5 c 128,-1,17
 909 422 909 422 909 358 c 0,18,19
 909 224 909 224 809 138.5 c 128,-1,20
 709 53 709 53 531 53 c 0,21,22
 497 53 497 53 427.5 55 c 128,-1,23
 358 57 358 57 261 57 c 0,24,25
 206 57 206 57 152.5 56.5 c 128,-1,26
 99 56 99 56 66 53 c 1,27,-1
 66 84 l 1,28,29
 119 87 119 87 146.5 96.5 c 128,-1,30
 174 106 174 106 183.5 134.5 c 128,-1,31
 193 163 193 163 193 220 c 2,32,-1
 193 1000 l 2,33,34
 193 1058 193 1058 183.5 1085.5 c 128,-1,35
 174 1113 174 1113 146.5 1123 c 128,-1,36
 119 1133 119 1133 66 1135 c 1,37,-1
 66 1166 l 1,0,1
456 1135 m 0,38,39
 384 1135 384 1135 362 1108 c 128,-1,40
 340 1081 340 1081 340 1000 c 2,41,-1
 340 220 l 2,42,43
 340 138 340 138 362.5 113.5 c 128,-1,44
 385 89 385 89 458 89 c 0,45,46
 612 89 612 89 682 160.5 c 128,-1,47
 752 232 752 232 752 364 c 0,48,49
 752 485 752 485 686.5 551 c 128,-1,50
 621 617 621 617 472 617 c 2,51,-1
 310 617 l 1,52,53
 310 617 310 617 310 630.5 c 128,-1,54
 310 644 310 644 310 644 c 1,55,-1
 445 644 l 2,56,57
 538 644 538 644 588 679.5 c 128,-1,58
 638 715 638 715 657 774 c 128,-1,59
 676 833 676 833 676 901 c 0,60,61
 676 1017 676 1017 625 1076 c 128,-1,62
 574 1135 574 1135 456 1135 c 0,38,39
EndSplineSet
Validated: 5
EndChar

StartChar: C
Encoding: 67 67 38
Width: 1083
GlyphClass: 2
Flags: W
LayerCount: 2
Fore
SplineSet
584 1188 m 0,0,1
 688 1188 688 1188 755 1157.5 c 128,-1,2
 822 1127 822 1127 874 1086 c 0,3,4
 905 1063 905 1063 921.5 1081 c 128,-1,5
 938 1099 938 1099 945 1166 c 1,6,-1
 981 1166 l 1,7,8
 978 1108 978 1108 976 1024.5 c 128,-1,9
 974 941 974 941 974 805 c 1,10,-1
 938 805 l 1,11,12
 927 872 927 872 917.5 912 c 128,-1,13
 908 952 908 952 895 980.5 c 128,-1,14
 882 1009 882 1009 860 1037 c 0,15,16
 811 1102 811 1102 737 1131 c 128,-1,17
 663 1160 663 1160 581 1160 c 0,18,19
 504 1160 504 1160 442 1121.5 c 128,-1,20
 380 1083 380 1083 335 1010.5 c 128,-1,21
 290 938 290 938 266 836 c 128,-1,22
 242 734 242 734 242 606 c 0,23,24
 242 474 242 474 268.5 372.5 c 128,-1,25
 295 271 295 271 343 202 c 128,-1,26
 391 133 391 133 456.5 97.5 c 128,-1,27
 522 62 522 62 597 62 c 0,28,29
 668 62 668 62 745 90.5 c 128,-1,30
 822 119 822 119 866 182 c 0,31,32
 901 227 901 227 914 280.5 c 128,-1,33
 927 334 927 334 938 430 c 1,34,-1
 974 430 l 1,35,36
 974 287 974 287 976 200 c 128,-1,37
 978 113 978 113 981 53 c 1,38,-1
 945 53 l 1,39,40
 938 120 938 120 923 137.5 c 128,-1,41
 908 155 908 155 874 133 c 0,42,43
 816 92 816 92 750.5 61.5 c 128,-1,44
 685 31 685 31 583 31 c 0,45,46
 433 31 433 31 321 98.5 c 128,-1,47
 209 166 209 166 146.5 293.5 c 128,-1,48
 84 421 84 421 84 600 c 0,49,50
 84 776 84 776 148.5 908.5 c 128,-1,51
 213 1041 213 1041 325.5 1114.5 c 128,-1,52
 438 1188 438 1188 584 1188 c 0,0,1
EndSplineSet
Validated: 1
EndChar

StartChar: D
Encoding: 68 68 39
Width: 1136
GlyphClass: 2
Flags: W
LayerCount: 2
Fore
SplineSet
495 1166 m 0,0,1
 776 1166 776 1166 913 1025.5 c 128,-1,2
 1050 885 1050 885 1050 622 c 0,3,4
 1050 451 1050 451 983 322.5 c 128,-1,5
 916 194 916 194 789 123.5 c 128,-1,6
 662 53 662 53 481 53 c 0,7,8
 446 53 446 53 378.5 55 c 128,-1,9
 311 57 311 57 261 57 c 0,10,11
 206 57 206 57 152.5 56.5 c 128,-1,12
 99 56 99 56 66 53 c 1,13,-1
 66 84 l 1,14,15
 119 87 119 87 146.5 96.5 c 128,-1,16
 174 106 174 106 183.5 134.5 c 128,-1,17
 193 163 193 163 193 220 c 2,18,-1
 193 1000 l 2,19,20
 193 1058 193 1058 183.5 1085.5 c 128,-1,21
 174 1113 174 1113 146.5 1123 c 128,-1,22
 119 1133 119 1133 66 1135 c 1,23,-1
 66 1166 l 1,24,25
 99 1165 99 1165 152.5 1162.5 c 128,-1,26
 206 1160 206 1160 257 1162 c 0,27,28
 312 1163 312 1163 381.5 1164.5 c 128,-1,29
 451 1166 451 1166 495 1166 c 0,0,1
456 1138 m 0,30,31
 383 1138 383 1138 361 1111.5 c 128,-1,32
 339 1085 339 1085 339 1003 c 2,33,-1
 339 216 l 2,34,35
 339 135 339 135 362 108 c 128,-1,36
 385 81 385 81 457 81 c 0,37,38
 629 81 629 81 723 143 c 128,-1,39
 817 205 817 205 855 324.5 c 128,-1,40
 893 444 893 444 893 616 c 0,41,42
 893 880 893 880 796 1009 c 128,-1,43
 699 1138 699 1138 456 1138 c 0,30,31
EndSplineSet
Validated: 33
EndChar

StartChar: E
Encoding: 69 69 40
Width: 956
GlyphClass: 2
Flags: W
LayerCount: 2
Fore
SplineSet
851 1166 m 1,0,1
 844 1111 844 1111 842 1059.5 c 128,-1,2
 840 1008 840 1008 840 981 c 0,3,4
 840 952 840 952 841.5 926.5 c 128,-1,5
 843 901 843 901 844 883 c 1,6,-1
 808 883 l 1,7,8
 799 976 799 976 781.5 1030.5 c 128,-1,9
 764 1085 764 1085 722.5 1107.5 c 128,-1,10
 681 1130 681 1130 597 1130 c 2,11,-1
 467 1130 l 2,12,13
 413 1130 413 1130 385.5 1121.5 c 128,-1,14
 358 1113 358 1113 348.5 1085.5 c 128,-1,15
 339 1058 339 1058 339 1000 c 2,16,-1
 339 220 l 2,17,18
 339 163 339 163 348.5 134.5 c 128,-1,19
 358 106 358 106 385.5 97.5 c 128,-1,20
 413 89 413 89 467 89 c 2,21,-1
 582 89 l 2,22,23
 681 89 681 89 732 115.5 c 128,-1,24
 783 142 783 142 806 203 c 128,-1,25
 829 264 829 264 840 367 c 1,26,-1
 876 367 l 1,27,28
 871 325 871 325 871 254 c 0,29,30
 871 224 871 224 873.5 168.5 c 128,-1,31
 876 113 876 113 882 53 c 1,32,33
 802 56 802 56 701 56.5 c 128,-1,34
 600 57 600 57 522 57 c 0,35,36
 475 57 475 57 397 57 c 128,-1,37
 319 57 319 57 231 56.5 c 128,-1,38
 143 56 143 56 66 53 c 1,39,-1
 66 84 l 1,40,41
 119 87 119 87 146.5 96.5 c 128,-1,42
 174 106 174 106 183.5 134.5 c 128,-1,43
 193 163 193 163 193 220 c 2,44,-1
 193 1000 l 2,45,46
 193 1058 193 1058 183.5 1085.5 c 128,-1,47
 174 1113 174 1113 146.5 1123 c 128,-1,48
 119 1133 119 1133 66 1135 c 1,49,-1
 66 1166 l 1,50,51
 143 1165 143 1165 231 1163.5 c 128,-1,52
 319 1162 319 1162 397 1162 c 128,-1,53
 475 1162 475 1162 522 1162 c 0,54,55
 594 1162 594 1162 686 1162.5 c 128,-1,56
 778 1163 778 1163 851 1166 c 1,0,1
580 628 m 1,57,58
 580 628 580 628 580 612.5 c 128,-1,59
 580 597 580 597 580 597 c 1,60,-1
 292 597 l 1,61,62
 292 597 292 597 292 612.5 c 128,-1,63
 292 628 292 628 292 628 c 1,64,-1
 580 628 l 1,57,58
626 836 m 1,65,66
 619 746 619 746 620 699 c 128,-1,67
 621 652 621 652 621 613 c 0,68,69
 621 573 621 573 622.5 526 c 128,-1,70
 624 479 624 479 630 389 c 1,71,-1
 594 389 l 1,72,73
 588 440 588 440 579.5 488 c 128,-1,74
 571 536 571 536 541.5 566.5 c 128,-1,75
 512 597 512 597 443 597 c 1,76,-1
 443 628 l 1,77,78
 512 628 512 628 539.5 664.5 c 128,-1,79
 567 701 567 701 575 749.5 c 128,-1,80
 583 798 583 798 589 836 c 1,81,-1
 626 836 l 1,65,66
EndSplineSet
Validated: 37
EndChar

StartChar: F
Encoding: 70 70 41
Width: 895
GlyphClass: 2
Flags: W
LayerCount: 2
Fore
SplineSet
851 1166 m 1,0,1
 845 1107 845 1107 842.5 1051 c 128,-1,2
 840 995 840 995 840 965 c 0,3,4
 840 927 840 927 841.5 894 c 128,-1,5
 843 861 843 861 845 836 c 1,6,-1
 809 836 l 1,7,8
 798 946 798 946 779 1010 c 128,-1,9
 760 1074 760 1074 713 1102 c 128,-1,10
 666 1130 666 1130 567 1130 c 2,11,-1
 467 1130 l 2,12,13
 414 1130 414 1130 386.5 1121.5 c 128,-1,14
 359 1113 359 1113 349.5 1085.5 c 128,-1,15
 340 1058 340 1058 340 1000 c 2,16,-1
 340 220 l 2,17,18
 340 163 340 163 352 134.5 c 128,-1,19
 364 106 364 106 398.5 96.5 c 128,-1,20
 433 87 433 87 499 84 c 1,21,-1
 499 53 l 1,22,23
 458 56 458 56 395 56.5 c 128,-1,24
 332 57 332 57 268 57 c 0,25,26
 206 57 206 57 152.5 56.5 c 128,-1,27
 99 56 99 56 66 53 c 1,28,-1
 66 84 l 1,29,30
 120 87 120 87 147.5 96.5 c 128,-1,31
 175 106 175 106 184.5 134.5 c 128,-1,32
 194 163 194 163 194 220 c 2,33,-1
 194 1000 l 2,34,35
 194 1058 194 1058 184.5 1085.5 c 128,-1,36
 175 1113 175 1113 147.5 1123 c 128,-1,37
 120 1133 120 1133 66 1135 c 1,38,-1
 66 1166 l 1,39,40
 143 1165 143 1165 231.5 1163.5 c 128,-1,41
 320 1162 320 1162 397.5 1162 c 128,-1,42
 475 1162 475 1162 523 1162 c 0,43,44
 595 1162 595 1162 687 1162.5 c 128,-1,45
 779 1163 779 1163 851 1166 c 1,0,1
607 613 m 1,46,47
 607 613 607 613 607 597 c 128,-1,48
 607 581 607 581 607 581 c 1,49,-1
 293 581 l 1,50,51
 293 581 293 581 293 597 c 128,-1,52
 293 613 293 613 293 613 c 1,53,-1
 607 613 l 1,46,47
637 820 m 1,54,55
 631 731 631 731 632 683.5 c 128,-1,56
 633 636 633 636 633 597 c 256,57,58
 633 558 633 558 634.5 510.5 c 128,-1,59
 636 463 636 463 642 374 c 1,60,-1
 606 374 l 1,61,62
 600 424 600 424 591 472 c 128,-1,63
 582 520 582 520 553 550.5 c 128,-1,64
 524 581 524 581 455 581 c 1,65,-1
 455 613 l 1,66,67
 524 613 524 613 551.5 649 c 128,-1,68
 579 685 579 685 587 734 c 128,-1,69
 595 783 595 783 601 820 c 1,70,-1
 637 820 l 1,54,55
EndSplineSet
Validated: 37
EndChar

StartChar: G
Encoding: 71 71 42
Width: 1106
GlyphClass: 2
Flags: W
LayerCount: 2
Fore
SplineSet
592 1188 m 0,0,1
 694 1188 694 1188 757 1157.5 c 128,-1,2
 820 1127 820 1127 875 1086 c 0,3,4
 895 1070 895 1070 906 1070 c 0,5,6
 936 1070 936 1070 945 1166 c 1,7,-1
 982 1166 l 1,8,9
 978 1108 978 1108 976.5 1024.5 c 128,-1,10
 975 941 975 941 975 805 c 1,11,-1
 939 805 l 1,12,13
 928 871 928 871 912.5 932 c 128,-1,14
 897 993 897 993 861 1037 c 0,15,16
 815 1096 815 1096 741 1128 c 128,-1,17
 667 1160 667 1160 588 1160 c 0,18,19
 510 1160 510 1160 446 1121.5 c 128,-1,20
 382 1083 382 1083 336.5 1010.5 c 128,-1,21
 291 938 291 938 266.5 836.5 c 128,-1,22
 242 735 242 735 242 608 c 0,23,24
 242 325 242 325 333.5 193.5 c 128,-1,25
 425 62 425 62 617 62 c 0,26,27
 673 62 673 62 715 78.5 c 128,-1,28
 757 95 757 95 780 111 c 0,29,30
 810 131 810 131 818 149.5 c 128,-1,31
 826 168 826 168 826 197 c 2,32,-1
 826 348 l 2,33,34
 826 413 826 413 813.5 444.5 c 128,-1,35
 801 476 801 476 767 487 c 128,-1,36
 733 498 733 498 667 499 c 1,37,-1
 667 531 l 1,38,39
 695 529 695 529 733 528.5 c 128,-1,40
 771 528 771 528 812.5 527 c 128,-1,41
 854 526 854 526 889 526 c 0,42,43
 941 526 941 526 982.5 527.5 c 128,-1,44
 1024 529 1024 529 1052 531 c 1,45,-1
 1052 499 l 1,46,47
 1001 496 1001 496 986.5 474 c 128,-1,48
 972 452 972 452 972 364 c 2,49,-1
 972 53 l 1,50,-1
 941 53 l 1,51,52
 939 80 939 80 929 111 c 128,-1,53
 919 142 919 142 898 142 c 0,54,55
 889 142 889 142 879.5 137.5 c 128,-1,56
 870 133 870 133 846 116 c 0,57,58
 794 76 794 76 736 53.5 c 128,-1,59
 678 31 678 31 601 31 c 0,60,61
 357 31 357 31 221 179.5 c 128,-1,62
 85 328 85 328 85 591 c 0,63,64
 85 775 85 775 151 908.5 c 128,-1,65
 217 1042 217 1042 331 1115 c 128,-1,66
 445 1188 445 1188 592 1188 c 0,0,1
EndSplineSet
Validated: 1
EndChar

StartChar: H
Encoding: 72 72 43
Width: 1191
GlyphClass: 2
Flags: W
LayerCount: 2
Fore
SplineSet
724 53 m 1,0,-1
 724 84 l 1,1,2
 777 87 777 87 804.5 96.5 c 128,-1,3
 832 106 832 106 841.5 134.5 c 128,-1,4
 851 163 851 163 851 220 c 2,5,-1
 851 1000 l 2,6,7
 851 1058 851 1058 841.5 1085.5 c 128,-1,8
 832 1113 832 1113 804.5 1123 c 128,-1,9
 777 1133 777 1133 724 1135 c 1,10,-1
 724 1166 l 1,11,12
 760 1165 760 1165 815 1163.5 c 128,-1,13
 870 1162 870 1162 923 1162 c 0,14,15
 985 1162 985 1162 1038.5 1163.5 c 128,-1,16
 1092 1165 1092 1165 1125 1166 c 1,17,-1
 1125 1135 l 1,18,19
 1071 1133 1071 1133 1043.5 1123 c 128,-1,20
 1016 1113 1016 1113 1006.5 1085.5 c 128,-1,21
 997 1058 997 1058 997 1000 c 2,22,-1
 997 220 l 2,23,24
 997 163 997 163 1006.5 134.5 c 128,-1,25
 1016 106 1016 106 1043.5 96.5 c 128,-1,26
 1071 87 1071 87 1125 84 c 1,27,-1
 1125 53 l 1,28,29
 1092 56 1092 56 1038.5 56.5 c 128,-1,30
 985 57 985 57 923 57 c 0,31,32
 870 57 870 57 815 56.5 c 128,-1,33
 760 56 760 56 724 53 c 1,0,-1
66 53 m 1,34,-1
 66 84 l 1,35,36
 120 87 120 87 147.5 96.5 c 128,-1,37
 175 106 175 106 184.5 134.5 c 128,-1,38
 194 163 194 163 194 220 c 2,39,-1
 194 1000 l 2,40,41
 194 1058 194 1058 184.5 1085.5 c 128,-1,42
 175 1113 175 1113 147.5 1123 c 128,-1,43
 120 1133 120 1133 66 1135 c 1,44,-1
 66 1166 l 1,45,46
 99 1165 99 1165 152.5 1163.5 c 128,-1,47
 206 1162 206 1162 267 1162 c 0,48,49
 323 1162 323 1162 377 1163.5 c 128,-1,50
 431 1165 431 1165 467 1166 c 1,51,-1
 467 1135 l 1,52,53
 414 1133 414 1133 386.5 1123 c 128,-1,54
 359 1113 359 1113 349.5 1085.5 c 128,-1,55
 340 1058 340 1058 340 1000 c 2,56,-1
 340 220 l 2,57,58
 340 163 340 163 349.5 134.5 c 128,-1,59
 359 106 359 106 386.5 96.5 c 128,-1,60
 414 87 414 87 467 84 c 1,61,-1
 467 53 l 1,62,63
 431 56 431 56 377 56.5 c 128,-1,64
 323 57 323 57 267 57 c 0,65,66
 206 57 206 57 152.5 56.5 c 128,-1,67
 99 56 99 56 66 53 c 1,34,-1
285 597 m 1,68,-1
 285 628 l 1,69,-1
 906 628 l 1,70,-1
 906 597 l 1,71,-1
 285 597 l 1,68,-1
EndSplineSet
Validated: 5
EndChar

StartChar: I
Encoding: 73 73 44
Width: 533
GlyphClass: 2
Flags: W
LayerCount: 2
Fore
SplineSet
467 1166 m 1,0,-1
 467 1135 l 1,1,2
 414 1133 414 1133 386.5 1123 c 128,-1,3
 359 1113 359 1113 349.5 1085.5 c 128,-1,4
 340 1058 340 1058 340 1000 c 2,5,-1
 340 220 l 2,6,7
 340 163 340 163 349.5 134.5 c 128,-1,8
 359 106 359 106 386.5 96.5 c 128,-1,9
 414 87 414 87 467 84 c 1,10,-1
 467 53 l 1,11,12
 431 56 431 56 377 56.5 c 128,-1,13
 323 57 323 57 267 57 c 0,14,15
 206 57 206 57 152.5 56.5 c 128,-1,16
 99 56 99 56 66 53 c 1,17,-1
 66 84 l 1,18,19
 120 87 120 87 147.5 96.5 c 128,-1,20
 175 106 175 106 184.5 134.5 c 128,-1,21
 194 163 194 163 194 220 c 2,22,-1
 194 1000 l 2,23,24
 194 1058 194 1058 184.5 1085.5 c 128,-1,25
 175 1113 175 1113 147.5 1123 c 128,-1,26
 120 1133 120 1133 66 1135 c 1,27,-1
 66 1166 l 1,28,29
 99 1165 99 1165 152.5 1163.5 c 128,-1,30
 206 1162 206 1162 267 1162 c 0,31,32
 323 1162 323 1162 377 1163.5 c 128,-1,33
 431 1165 431 1165 467 1166 c 1,0,-1
EndSplineSet
Validated: 1
EndChar

StartChar: J
Encoding: 74 74 45
Width: 513
GlyphClass: 2
Flags: W
LayerCount: 2
Fore
SplineSet
-31 -243 m 1,0,-1
 -31 -213 l 1,1,2
 39 -211 39 -211 87 -178 c 128,-1,3
 135 -145 135 -145 159.5 -69 c 128,-1,4
 184 7 184 7 184 135 c 2,5,-1
 184 1000 l 2,6,7
 184 1058 184 1058 174.5 1085.5 c 128,-1,8
 165 1113 165 1113 137.5 1123 c 128,-1,9
 110 1133 110 1133 57 1135 c 1,10,-1
 57 1166 l 1,11,12
 90 1165 90 1165 143.5 1163.5 c 128,-1,13
 197 1162 197 1162 255 1162 c 256,14,15
 313 1162 313 1162 367.5 1163.5 c 128,-1,16
 422 1165 422 1165 458 1166 c 1,17,-1
 458 1135 l 1,18,19
 404 1133 404 1133 376.5 1123 c 128,-1,20
 349 1113 349 1113 339.5 1085.5 c 128,-1,21
 330 1058 330 1058 330 1000 c 2,22,-1
 330 424 l 2,23,24
 330 359 330 359 328.5 283.5 c 128,-1,25
 327 208 327 208 321.5 137.5 c 128,-1,26
 316 67 316 67 304 13 c 0,27,28
 277 -97 277 -97 191 -170 c 128,-1,29
 105 -243 105 -243 -31 -243 c 1,0,-1
EndSplineSet
Validated: 1
EndChar

StartChar: K
Encoding: 75 75 46
Width: 1031
GlyphClass: 2
Flags: W
LayerCount: 2
Fore
SplineSet
968 1166 m 1,0,-1
 968 1135 l 1,1,2
 919 1129 919 1129 873.5 1103.5 c 128,-1,3
 828 1078 828 1078 782 1020 c 2,4,-1
 478 632 l 1,5,-1
 513 709 l 1,6,-1
 891 180 l 2,7,8
 917 141 917 141 948.5 119 c 128,-1,9
 980 97 980 97 1029 84 c 1,10,-1
 1029 53 l 1,11,12
 991 56 991 56 935 56.5 c 128,-1,13
 879 57 879 57 840 57 c 0,14,15
 813 57 813 57 774.5 56.5 c 128,-1,16
 736 56 736 56 678 53 c 1,17,-1
 678 84 l 1,18,19
 732 87 732 87 746 103 c 128,-1,20
 760 119 760 119 735 155 c 2,21,-1
 505 501 l 2,22,23
 474 550 474 550 449.5 574.5 c 128,-1,24
 425 599 425 599 399 606.5 c 128,-1,25
 373 614 373 614 334 616 c 1,26,-1
 334 647 l 1,27,28
 400 649 400 649 444.5 673.5 c 128,-1,29
 489 698 489 698 519 735 c 2,30,-1
 670 927 l 2,31,32
 722 993 722 993 741 1039 c 128,-1,33
 760 1085 760 1085 739.5 1109 c 128,-1,34
 719 1133 719 1133 653 1135 c 1,35,-1
 653 1166 l 1,36,37
 699 1165 699 1165 746 1163.5 c 128,-1,38
 793 1162 793 1162 834 1162 c 0,39,40
 920 1162 920 1162 968 1166 c 1,0,-1
467 1166 m 1,41,-1
 467 1135 l 1,42,43
 414 1133 414 1133 386.5 1123 c 128,-1,44
 359 1113 359 1113 349.5 1085.5 c 128,-1,45
 340 1058 340 1058 340 1000 c 2,46,-1
 340 220 l 2,47,48
 340 163 340 163 349.5 134.5 c 128,-1,49
 359 106 359 106 386.5 96.5 c 128,-1,50
 414 87 414 87 467 84 c 1,51,-1
 467 53 l 1,52,53
 431 56 431 56 377 56.5 c 128,-1,54
 323 57 323 57 268 57 c 0,55,56
 206 57 206 57 152.5 56.5 c 128,-1,57
 99 56 99 56 66 53 c 1,58,-1
 66 84 l 1,59,60
 120 87 120 87 147.5 96.5 c 128,-1,61
 175 106 175 106 184.5 134.5 c 128,-1,62
 194 163 194 163 194 220 c 2,63,-1
 194 1000 l 2,64,65
 194 1058 194 1058 184.5 1085.5 c 128,-1,66
 175 1113 175 1113 147.5 1123 c 128,-1,67
 120 1133 120 1133 66 1135 c 1,68,-1
 66 1166 l 1,69,70
 99 1165 99 1165 152.5 1163.5 c 128,-1,71
 206 1162 206 1162 268 1162 c 0,72,73
 323 1162 323 1162 377 1163.5 c 128,-1,74
 431 1165 431 1165 467 1166 c 1,41,-1
EndSplineSet
Validated: 37
EndChar

StartChar: L
Encoding: 76 76 47
Width: 924
GlyphClass: 2
Flags: W
LayerCount: 2
Fore
SplineSet
467 1166 m 1,0,-1
 467 1135 l 1,1,2
 414 1133 414 1133 386.5 1123 c 128,-1,3
 359 1113 359 1113 349.5 1085.5 c 128,-1,4
 340 1058 340 1058 340 1000 c 2,5,-1
 340 220 l 2,6,7
 340 163 340 163 349.5 134.5 c 128,-1,8
 359 106 359 106 386.5 97.5 c 128,-1,9
 414 89 414 89 467 89 c 2,10,-1
 582 89 l 2,11,12
 681 89 681 89 732 117.5 c 128,-1,13
 783 146 783 146 806 210.5 c 128,-1,14
 829 275 829 275 840 383 c 1,15,-1
 876 383 l 1,16,17
 871 334 871 334 871 254 c 0,18,19
 871 224 871 224 873.5 168.5 c 128,-1,20
 876 113 876 113 882 53 c 1,21,22
 802 56 802 56 701.5 56.5 c 128,-1,23
 601 57 601 57 522 57 c 0,24,25
 475 57 475 57 397 57 c 128,-1,26
 319 57 319 57 231 56.5 c 128,-1,27
 143 56 143 56 66 53 c 1,28,-1
 66 84 l 1,29,30
 120 87 120 87 147.5 96.5 c 128,-1,31
 175 106 175 106 184.5 134.5 c 128,-1,32
 194 163 194 163 194 220 c 2,33,-1
 194 1000 l 2,34,35
 194 1058 194 1058 184.5 1085.5 c 128,-1,36
 175 1113 175 1113 147.5 1123 c 128,-1,37
 120 1133 120 1133 66 1135 c 1,38,-1
 66 1166 l 1,39,40
 99 1165 99 1165 152.5 1163.5 c 128,-1,41
 206 1162 206 1162 267 1162 c 0,42,43
 323 1162 323 1162 377 1163.5 c 128,-1,44
 431 1165 431 1165 467 1166 c 1,0,-1
EndSplineSet
Validated: 1
EndChar

StartChar: M
Encoding: 77 77 48
Width: 1370
GlyphClass: 2
Flags: W
LayerCount: 2
Fore
SplineSet
1304 1166 m 1,0,-1
 1304 1135 l 1,1,2
 1250 1133 1250 1133 1222.5 1123 c 128,-1,3
 1195 1113 1195 1113 1186 1085.5 c 128,-1,4
 1177 1058 1177 1058 1177 1000 c 2,5,-1
 1177 220 l 2,6,7
 1177 163 1177 163 1186 134.5 c 128,-1,8
 1195 106 1195 106 1222.5 96.5 c 128,-1,9
 1250 87 1250 87 1304 84 c 1,10,-1
 1304 53 l 1,11,12
 1268 56 1268 56 1213.5 56.5 c 128,-1,13
 1159 57 1159 57 1104 57 c 0,14,15
 1043 57 1043 57 989.5 56.5 c 128,-1,16
 936 56 936 56 903 53 c 1,17,-1
 903 84 l 1,18,19
 956 87 956 87 983.5 96.5 c 128,-1,20
 1011 106 1011 106 1020.5 134.5 c 128,-1,21
 1030 163 1030 163 1030 220 c 2,22,-1
 1030 1085 l 1,23,-1
 1037 1080 l 1,24,-1
 651 45 l 1,25,-1
 626 45 l 1,26,-1
 230 1066 l 1,27,-1
 230 235 l 2,28,29
 230 179 230 179 240 146.5 c 128,-1,30
 250 114 250 114 280.5 100.5 c 128,-1,31
 311 87 311 87 373 84 c 1,32,-1
 373 53 l 1,33,34
 345 56 345 56 299 56.5 c 128,-1,35
 253 57 253 57 212 57 c 0,36,37
 173 57 173 57 133 56.5 c 128,-1,38
 93 56 93 56 66 53 c 1,39,-1
 66 84 l 1,40,41
 120 87 120 87 147.5 100.5 c 128,-1,42
 175 114 175 114 184.5 146.5 c 128,-1,43
 194 179 194 179 194 235 c 2,44,-1
 194 1000 l 2,45,46
 194 1058 194 1058 184.5 1085.5 c 128,-1,47
 175 1113 175 1113 147.5 1123 c 128,-1,48
 120 1133 120 1133 66 1135 c 1,49,-1
 66 1166 l 1,50,51
 93 1165 93 1165 133 1163.5 c 128,-1,52
 173 1162 173 1162 212 1162 c 0,53,54
 247 1162 247 1162 284 1163.5 c 128,-1,55
 321 1165 321 1165 346 1166 c 1,56,-1
 703 226 l 1,57,-1
 676 213 l 1,58,-1
 1030 1162 l 1,59,60
 1049 1162 1049 1162 1067 1162 c 128,-1,61
 1085 1162 1085 1162 1104 1162 c 0,62,63
 1159 1162 1159 1162 1213.5 1163.5 c 128,-1,64
 1268 1165 1268 1165 1304 1166 c 1,0,-1
EndSplineSet
Validated: 5
EndChar

StartChar: N
Encoding: 78 78 49
Width: 1109
GlyphClass: 2
Flags: W
LayerCount: 2
Fore
SplineSet
1053 1166 m 1,0,-1
 1053 1135 l 1,1,2
 1000 1133 1000 1133 972.5 1119 c 128,-1,3
 945 1105 945 1105 935.5 1073.5 c 128,-1,4
 926 1042 926 1042 926 984 c 2,5,-1
 926 45 l 1,6,7
 916 45 916 45 907.5 45 c 128,-1,8
 899 45 899 45 890 45 c 1,9,-1
 229 1066 l 1,10,-1
 229 235 l 2,11,12
 229 179 229 179 239.5 146.5 c 128,-1,13
 250 114 250 114 280.5 100.5 c 128,-1,14
 311 87 311 87 372 84 c 1,15,-1
 372 53 l 1,16,17
 344 56 344 56 298.5 56.5 c 128,-1,18
 253 57 253 57 212 57 c 0,19,20
 173 57 173 57 132.5 56.5 c 128,-1,21
 92 56 92 56 66 53 c 1,22,-1
 66 84 l 1,23,24
 119 87 119 87 146.5 100.5 c 128,-1,25
 174 114 174 114 183.5 146.5 c 128,-1,26
 193 179 193 179 193 235 c 2,27,-1
 193 1000 l 2,28,29
 193 1058 193 1058 183.5 1085.5 c 128,-1,30
 174 1113 174 1113 146.5 1123 c 128,-1,31
 119 1133 119 1133 66 1135 c 1,32,-1
 66 1166 l 1,33,34
 92 1165 92 1165 132.5 1163.5 c 128,-1,35
 173 1162 173 1162 212 1162 c 0,36,37
 246 1162 246 1162 277.5 1163.5 c 128,-1,38
 309 1165 309 1165 335 1166 c 1,39,-1
 890 311 l 1,40,-1
 890 984 l 2,41,42
 890 1042 890 1042 879.5 1073.5 c 128,-1,43
 869 1105 869 1105 838.5 1119 c 128,-1,44
 808 1133 808 1133 747 1135 c 1,45,-1
 747 1166 l 1,46,47
 775 1165 775 1165 821.5 1163.5 c 128,-1,48
 868 1162 868 1162 907 1162 c 0,49,50
 948 1162 948 1162 988 1163.5 c 128,-1,51
 1028 1165 1028 1165 1053 1166 c 1,0,-1
EndSplineSet
Validated: 1
EndChar

StartChar: O
Encoding: 79 79 50
Width: 1167
GlyphClass: 2
Flags: W
LayerCount: 2
Fore
SplineSet
584 1188 m 0,0,1
 734 1188 734 1188 846.5 1120.5 c 128,-1,2
 959 1053 959 1053 1021 926.5 c 128,-1,3
 1083 800 1083 800 1083 619 c 0,4,5
 1083 443 1083 443 1019.5 311 c 128,-1,6
 956 179 956 179 842.5 105 c 128,-1,7
 729 31 729 31 583 31 c 0,8,9
 433 31 433 31 320.5 98.5 c 128,-1,10
 208 166 208 166 146 293.5 c 128,-1,11
 84 421 84 421 84 600 c 0,12,13
 84 776 84 776 148.5 908.5 c 128,-1,14
 213 1041 213 1041 325.5 1114.5 c 128,-1,15
 438 1188 438 1188 584 1188 c 0,0,1
578 1160 m 0,16,17
 476 1160 476 1160 400.5 1089.5 c 128,-1,18
 325 1019 325 1019 283 894.5 c 128,-1,19
 241 770 241 770 241 606 c 0,20,21
 241 440 241 440 287.5 316.5 c 128,-1,22
 334 193 334 193 413.5 126 c 128,-1,23
 493 59 493 59 589 59 c 0,24,25
 691 59 691 59 766.5 130 c 128,-1,26
 842 201 842 201 884 326 c 128,-1,27
 926 451 926 451 926 613 c 0,28,29
 926 781 926 781 879.5 903.5 c 128,-1,30
 833 1026 833 1026 754.5 1093 c 128,-1,31
 676 1160 676 1160 578 1160 c 0,16,17
EndSplineSet
Validated: 1
EndChar

StartChar: P
Encoding: 80 80 51
Width: 920
GlyphClass: 2
Flags: W
LayerCount: 2
Fore
SplineSet
66 1166 m 1,0,1
 99 1165 99 1165 152.5 1163.5 c 128,-1,2
 206 1162 206 1162 257 1162 c 0,3,4
 331 1162 331 1162 399 1163.5 c 128,-1,5
 467 1165 467 1165 495 1165 c 0,6,7
 685 1165 685 1165 779.5 1078.5 c 128,-1,8
 874 992 874 992 874 855 c 0,9,10
 874 798 874 798 855 736 c 128,-1,11
 836 674 836 674 790 621.5 c 128,-1,12
 744 569 744 569 663.5 536 c 128,-1,13
 583 503 583 503 460 503 c 2,14,-1
 309 503 l 1,15,-1
 309 534 l 1,16,-1
 445 534 l 2,17,18
 556 534 556 534 615 576.5 c 128,-1,19
 674 619 674 619 695.5 688 c 128,-1,20
 717 757 717 757 717 838 c 0,21,22
 717 987 717 987 658 1061 c 128,-1,23
 599 1135 599 1135 456 1135 c 0,24,25
 383 1135 383 1135 361 1108 c 128,-1,26
 339 1081 339 1081 339 1000 c 2,27,-1
 339 220 l 2,28,29
 339 163 339 163 351 134.5 c 128,-1,30
 363 106 363 106 397.5 96.5 c 128,-1,31
 432 87 432 87 498 84 c 1,32,-1
 498 53 l 1,33,34
 457 56 457 56 394 56.5 c 128,-1,35
 331 57 331 57 267 57 c 0,36,37
 206 57 206 57 152.5 56.5 c 128,-1,38
 99 56 99 56 66 53 c 1,39,-1
 66 84 l 1,40,41
 119 87 119 87 146.5 96.5 c 128,-1,42
 174 106 174 106 183.5 134.5 c 128,-1,43
 193 163 193 163 193 220 c 2,44,-1
 193 1000 l 2,45,46
 193 1058 193 1058 183.5 1085.5 c 128,-1,47
 174 1113 174 1113 146.5 1123 c 128,-1,48
 119 1133 119 1133 66 1135 c 1,49,-1
 66 1166 l 1,0,1
EndSplineSet
Validated: 5
EndChar

StartChar: Q
Encoding: 81 81 52
Width: 1165
GlyphClass: 2
Flags: W
LayerCount: 2
Fore
SplineSet
1177 17 m 1,0,-1
 1200 7 l 1,1,2
 1181 -57 1181 -57 1157 -100.5 c 128,-1,3
 1133 -144 1133 -144 1101 -172 c 0,4,5
 1071 -199 1071 -199 1020 -221 c 128,-1,6
 969 -243 969 -243 889 -243 c 0,7,8
 805 -243 805 -243 727.5 -215.5 c 128,-1,9
 650 -188 650 -188 566.5 -148.5 c 128,-1,10
 483 -109 483 -109 382 -76 c 0,11,12
 371 -73 371 -73 361.5 -70 c 128,-1,13
 352 -67 352 -67 345 -65 c 1,14,15
 315 -76 315 -76 280.5 -82.5 c 128,-1,16
 246 -89 246 -89 214 -89 c 0,17,18
 183 -89 183 -89 162.5 -81 c 128,-1,19
 142 -73 142 -73 142 -57 c 0,20,21
 142 -24 142 -24 227 -24 c 0,22,23
 282 -24 282 -24 345 -37 c 1,24,25
 401 -21 401 -21 442 -1.5 c 128,-1,26
 483 18 483 18 526.5 35.5 c 128,-1,27
 570 53 570 53 631 57 c 1,28,-1
 632 32 l 1,29,30
 585 28 585 28 550.5 14.5 c 128,-1,31
 516 1 516 1 481.5 -15 c 128,-1,32
 447 -31 447 -31 400 -45 c 1,33,34
 478 -60 478 -60 571 -77.5 c 128,-1,35
 664 -95 664 -95 750.5 -107.5 c 128,-1,36
 837 -120 837 -120 898 -120 c 0,37,38
 1012 -120 1012 -120 1077 -87 c 128,-1,39
 1142 -54 1142 -54 1177 17 c 1,0,-1
584 1188 m 0,40,41
 733 1188 733 1188 845.5 1120.5 c 128,-1,42
 958 1053 958 1053 1020 926.5 c 128,-1,43
 1082 800 1082 800 1082 619 c 0,44,45
 1082 443 1082 443 1018.5 311 c 128,-1,46
 955 179 955 179 841.5 105 c 128,-1,47
 728 31 728 31 582 31 c 0,48,49
 433 31 433 31 320.5 98.5 c 128,-1,50
 208 166 208 166 146 293.5 c 128,-1,51
 84 421 84 421 84 600 c 0,52,53
 84 776 84 776 148.5 908.5 c 128,-1,54
 213 1041 213 1041 325 1114.5 c 128,-1,55
 437 1188 437 1188 584 1188 c 0,40,41
577 1160 m 0,56,57
 475 1160 475 1160 399.5 1089.5 c 128,-1,58
 324 1019 324 1019 282.5 894.5 c 128,-1,59
 241 770 241 770 241 606 c 0,60,61
 241 440 241 440 287.5 316.5 c 128,-1,62
 334 193 334 193 413 126 c 128,-1,63
 492 59 492 59 588 59 c 0,64,65
 691 59 691 59 766.5 130 c 128,-1,66
 842 201 842 201 883.5 326 c 128,-1,67
 925 451 925 451 925 613 c 0,68,69
 925 781 925 781 878.5 903.5 c 128,-1,70
 832 1026 832 1026 753.5 1093 c 128,-1,71
 675 1160 675 1160 577 1160 c 0,56,57
EndSplineSet
Validated: 5
EndChar

StartChar: R
Encoding: 82 82 53
Width: 1019
GlyphClass: 2
Flags: W
LayerCount: 2
Fore
SplineSet
66 1166 m 1,0,1
 99 1165 99 1165 152.5 1163.5 c 128,-1,2
 206 1162 206 1162 258 1162 c 0,3,4
 332 1162 332 1162 399.5 1163.5 c 128,-1,5
 467 1165 467 1165 495 1165 c 0,6,7
 686 1165 686 1165 780 1086.5 c 128,-1,8
 874 1008 874 1008 874 891 c 0,9,10
 874 844 874 844 855.5 790.5 c 128,-1,11
 837 737 837 737 790.5 690 c 128,-1,12
 744 643 744 643 663.5 612 c 128,-1,13
 583 581 583 581 461 581 c 2,14,-1
 310 581 l 1,15,-1
 310 613 l 1,16,-1
 445 613 l 2,17,18
 557 613 557 613 616 648 c 128,-1,19
 675 683 675 683 696 742 c 128,-1,20
 717 801 717 801 717 874 c 0,21,22
 717 998 717 998 658 1066.5 c 128,-1,23
 599 1135 599 1135 456 1135 c 0,24,25
 384 1135 384 1135 362 1108 c 128,-1,26
 340 1081 340 1081 340 1000 c 2,27,-1
 340 220 l 2,28,29
 340 163 340 163 349 134.5 c 128,-1,30
 358 106 358 106 385.5 96.5 c 128,-1,31
 413 87 413 87 467 84 c 1,32,-1
 467 53 l 1,33,34
 431 56 431 56 376.5 56.5 c 128,-1,35
 322 57 322 57 267 57 c 0,36,37
 206 57 206 57 152.5 56.5 c 128,-1,38
 99 56 99 56 66 53 c 1,39,-1
 66 84 l 1,40,41
 119 87 119 87 146.5 96.5 c 128,-1,42
 174 106 174 106 183.5 134.5 c 128,-1,43
 193 163 193 163 193 220 c 2,44,-1
 193 1000 l 2,45,46
 193 1058 193 1058 183.5 1085.5 c 128,-1,47
 174 1113 174 1113 146.5 1123 c 128,-1,48
 119 1133 119 1133 66 1135 c 1,49,-1
 66 1166 l 1,0,1
316 608 m 1,50,51
 401 605 401 605 449.5 601 c 128,-1,52
 498 597 498 597 529 594 c 128,-1,53
 560 591 560 591 588 586 c 0,54,55
 693 569 693 569 739.5 522.5 c 128,-1,56
 786 476 786 476 808 378 c 2,57,-1
 848 218 l 2,58,59
 863 149 863 149 879.5 118 c 128,-1,60
 896 87 896 87 931 89 c 0,61,62
 958 91 958 91 976 106.5 c 128,-1,63
 994 122 994 122 1014 149 c 1,64,-1
 1038 131 l 1,65,66
 1005 83 1005 83 969.5 57 c 128,-1,67
 934 31 934 31 870 31 c 0,68,69
 811 31 811 31 767 65.5 c 128,-1,70
 723 100 723 100 701 201 c 2,71,-1
 667 358 l 2,72,73
 653 426 653 426 634.5 475.5 c 128,-1,74
 616 525 616 525 584 553 c 128,-1,75
 552 581 552 581 489 581 c 2,76,-1
 319 581 l 1,77,-1
 316 608 l 1,50,51
EndSplineSet
Validated: 5
EndChar

StartChar: S
Encoding: 83 83 54
AltUni2: 000d3d.ffffffff.0 000d3d.ffffffff.0
Width: 849
GlyphClass: 2
Flags: W
LayerCount: 2
Fore
SplineSet
402 1184 m 0,0,1
 481 1184 481 1184 521.5 1165.5 c 128,-1,2
 562 1147 562 1147 594 1125 c 0,3,4
 613 1114 613 1114 624.5 1108.5 c 128,-1,5
 636 1103 636 1103 647 1103 c 0,6,7
 673 1103 673 1103 682 1173 c 1,8,-1
 718 1173 l 1,9,10
 717 1146 717 1146 714.5 1109 c 128,-1,11
 712 1072 712 1072 711 1011.5 c 128,-1,12
 710 951 710 951 710 852 c 1,13,-1
 674 852 l 1,14,15
 669 927 669 927 641 996.5 c 128,-1,16
 613 1066 613 1066 558.5 1110 c 128,-1,17
 504 1154 504 1154 416 1154 c 0,18,19
 333 1154 333 1154 278.5 1103.5 c 128,-1,20
 224 1053 224 1053 224 971 c 0,21,22
 224 901 224 901 260.5 853 c 128,-1,23
 297 805 297 805 357.5 766.5 c 128,-1,24
 418 728 418 728 489 683 c 0,25,26
 570 633 570 633 634 583.5 c 128,-1,27
 698 534 698 534 735 474.5 c 128,-1,28
 772 415 772 415 772 330 c 0,29,30
 772 229 772 229 726 163 c 128,-1,31
 680 97 680 97 604.5 64 c 128,-1,32
 529 31 529 31 438 31 c 0,33,34
 355 31 355 31 306 50 c 128,-1,35
 257 69 257 69 223 89 c 0,36,37
 188 111 188 111 169 111 c 0,38,39
 144 111 144 111 135 42 c 1,40,-1
 98 42 l 1,41,42
 102 75 102 75 102.5 119.5 c 128,-1,43
 103 164 103 164 104 236.5 c 128,-1,44
 105 309 105 309 105 419 c 1,45,-1
 141 419 l 1,46,47
 147 325 147 325 176 243 c 128,-1,48
 205 161 205 161 265.5 111.5 c 128,-1,49
 326 62 326 62 427 62 c 0,50,51
 504 62 504 62 568 111.5 c 128,-1,52
 632 161 632 161 632 271 c 0,53,54
 632 367 632 367 564 430 c 128,-1,55
 496 493 496 493 386 559 c 0,56,57
 312 605 312 605 247.5 652 c 128,-1,58
 183 699 183 699 144.5 761 c 128,-1,59
 106 823 106 823 106 912 c 0,60,61
 106 1004 106 1004 148 1064.5 c 128,-1,62
 190 1125 190 1125 257.5 1154.5 c 128,-1,63
 325 1184 325 1184 402 1184 c 0,0,1
EndSplineSet
Validated: 1
EndChar

StartChar: T
Encoding: 84 84 55
Width: 977
GlyphClass: 2
Flags: W
LayerCount: 2
Fore
SplineSet
931 1166 m 1,0,1
 925 1107 925 1107 922.5 1051 c 128,-1,2
 920 995 920 995 920 965 c 0,3,4
 920 927 920 927 921.5 894 c 128,-1,5
 923 861 923 861 925 836 c 1,6,-1
 889 836 l 1,7,8
 878 946 878 946 859 1010 c 128,-1,9
 840 1074 840 1074 793 1102 c 128,-1,10
 746 1130 746 1130 647 1130 c 2,11,-1
 562 1130 l 1,12,-1
 562 235 l 2,13,14
 562 172 562 172 573.5 140.5 c 128,-1,15
 585 109 585 109 620 98 c 128,-1,16
 655 87 655 87 721 84 c 1,17,-1
 721 53 l 1,18,19
 680 56 680 56 617 56.5 c 128,-1,20
 554 57 554 57 489 57 c 0,21,22
 419 57 419 57 356.5 56.5 c 128,-1,23
 294 56 294 56 257 53 c 1,24,-1
 257 84 l 1,25,26
 323 87 323 87 357.5 98 c 128,-1,27
 392 109 392 109 403.5 140.5 c 128,-1,28
 415 172 415 172 415 235 c 2,29,-1
 415 1130 l 1,30,-1
 331 1130 l 2,31,32
 233 1130 233 1130 185 1102 c 128,-1,33
 137 1074 137 1074 118 1010 c 128,-1,34
 99 946 99 946 88 836 c 1,35,-1
 52 836 l 1,36,37
 55 861 55 861 56 894 c 128,-1,38
 57 927 57 927 57 965 c 0,39,40
 57 995 57 995 54.5 1051 c 128,-1,41
 52 1107 52 1107 46 1166 c 1,42,43
 112 1165 112 1165 190 1163.5 c 128,-1,44
 268 1162 268 1162 346.5 1162 c 128,-1,45
 425 1162 425 1162 489 1162 c 0,46,47
 554 1162 554 1162 632 1162 c 128,-1,48
 710 1162 710 1162 788.5 1163.5 c 128,-1,49
 867 1165 867 1165 931 1166 c 1,0,1
EndSplineSet
Validated: 1
EndChar

StartChar: U
Encoding: 85 85 56
Width: 1072
GlyphClass: 2
Flags: W
LayerCount: 2
Fore
SplineSet
1029 1166 m 1,0,-1
 1029 1135 l 1,1,2
 976 1133 976 1133 948.5 1119 c 128,-1,3
 921 1105 921 1105 911.5 1073.5 c 128,-1,4
 902 1042 902 1042 902 984 c 2,5,-1
 902 510 l 2,6,7
 902 400 902 400 888 318.5 c 128,-1,8
 874 237 874 237 838 177 c 0,9,10
 798 111 798 111 722.5 71 c 128,-1,11
 647 31 647 31 550 31 c 0,12,13
 474 31 474 31 405.5 49 c 128,-1,14
 337 67 337 67 285 116 c 0,15,16
 240 160 240 160 214 208.5 c 128,-1,17
 188 257 188 257 178.5 328 c 128,-1,18
 169 399 169 399 169 506 c 2,19,-1
 169 1000 l 2,20,21
 169 1058 169 1058 159.5 1085.5 c 128,-1,22
 150 1113 150 1113 122.5 1123 c 128,-1,23
 95 1133 95 1133 42 1135 c 1,24,-1
 42 1166 l 1,25,26
 75 1165 75 1165 128.5 1163.5 c 128,-1,27
 182 1162 182 1162 243 1162 c 0,28,29
 298 1162 298 1162 352.5 1163.5 c 128,-1,30
 407 1165 407 1165 443 1166 c 1,31,-1
 443 1135 l 1,32,33
 389 1133 389 1133 361.5 1123 c 128,-1,34
 334 1113 334 1113 324.5 1085.5 c 128,-1,35
 315 1058 315 1058 315 1000 c 2,36,-1
 315 479 l 2,37,38
 315 372 315 372 331 282.5 c 128,-1,39
 347 193 347 193 399.5 139.5 c 128,-1,40
 452 86 452 86 564 86 c 0,41,42
 683 86 683 86 748.5 138.5 c 128,-1,43
 814 191 814 191 840 284 c 128,-1,44
 866 377 866 377 866 493 c 2,45,-1
 866 984 l 2,46,47
 866 1042 866 1042 852.5 1073.5 c 128,-1,48
 839 1105 839 1105 807.5 1119 c 128,-1,49
 776 1133 776 1133 723 1135 c 1,50,-1
 723 1166 l 1,51,52
 751 1165 751 1165 797.5 1163.5 c 128,-1,53
 844 1162 844 1162 883 1162 c 0,54,55
 924 1162 924 1162 964 1163.5 c 128,-1,56
 1004 1165 1004 1165 1029 1166 c 1,0,-1
EndSplineSet
Validated: 1
EndChar

StartChar: V
Encoding: 86 86 57
Width: 989
GlyphClass: 2
Flags: W
LayerCount: 2
Fore
SplineSet
1001 1166 m 1,0,-1
 1001 1135 l 1,1,2
 972 1129 972 1129 938 1099 c 128,-1,3
 904 1069 904 1069 877 998 c 2,4,-1
 508 45 l 2,5,6
 504 45 504 45 501 45 c 128,-1,7
 498 45 498 45 495 45 c 256,8,9
 492 45 492 45 489 45 c 128,-1,10
 486 45 486 45 482 45 c 2,11,-1
 99 1034 l 2,12,13
 75 1094 75 1094 45 1113.5 c 128,-1,14
 15 1133 15 1133 -10 1135 c 1,15,-1
 -10 1166 l 1,16,17
 22 1165 22 1165 68 1163.5 c 128,-1,18
 114 1162 114 1162 158 1162 c 0,19,20
 220 1162 220 1162 273.5 1163.5 c 128,-1,21
 327 1165 327 1165 360 1166 c 1,22,-1
 360 1135 l 1,23,24
 280 1132 280 1132 258.5 1107.5 c 128,-1,25
 237 1083 237 1083 267 1003 c 2,26,-1
 560 227 l 1,27,-1
 534 201 l 1,28,-1
 808 912 l 2,29,30
 841 996 841 996 839.5 1044 c 128,-1,31
 838 1092 838 1092 803.5 1112.5 c 128,-1,32
 769 1133 769 1133 703 1135 c 1,33,-1
 703 1166 l 1,34,35
 748 1165 748 1165 795.5 1163.5 c 128,-1,36
 843 1162 843 1162 884 1162 c 0,37,38
 924 1162 924 1162 951 1163.5 c 128,-1,39
 978 1165 978 1165 1001 1166 c 1,0,-1
EndSplineSet
Validated: 37
EndChar

StartChar: W
Encoding: 87 87 58
Width: 1422
GlyphClass: 2
Flags: W
LayerCount: 2
Fore
SplineSet
1426 1166 m 1,0,-1
 1426 1135 l 1,1,2
 1396 1129 1396 1129 1360 1099.5 c 128,-1,3
 1324 1070 1324 1070 1302 998 c 2,4,-1
 1005 45 l 2,5,6
 1001 45 1001 45 998 45 c 128,-1,7
 995 45 995 45 992 45 c 256,8,9
 989 45 989 45 986 45 c 128,-1,10
 983 45 983 45 979 45 c 2,11,-1
 646 1034 l 2,12,13
 626 1096 626 1096 600.5 1114.5 c 128,-1,14
 575 1133 575 1133 553 1135 c 1,15,-1
 553 1166 l 1,16,17
 582 1165 582 1165 624 1163.5 c 128,-1,18
 666 1162 666 1162 706 1162 c 0,19,20
 767 1162 767 1162 820.5 1163.5 c 128,-1,21
 874 1165 874 1165 907 1166 c 1,22,-1
 907 1135 l 1,23,24
 860 1133 860 1133 832.5 1125.5 c 128,-1,25
 805 1118 805 1118 801 1091 c 128,-1,26
 797 1064 797 1064 816 1003 c 2,27,-1
 1050 278 l 1,28,-1
 1028 259 l 1,29,-1
 1236 912 l 2,30,31
 1264 998 1264 998 1261.5 1046 c 128,-1,32
 1259 1094 1259 1094 1226 1113.5 c 128,-1,33
 1193 1133 1193 1133 1127 1135 c 1,34,-1
 1127 1166 l 1,35,36
 1173 1165 1173 1165 1220 1163.5 c 128,-1,37
 1267 1162 1267 1162 1308 1162 c 256,38,39
 1349 1162 1349 1162 1376 1163.5 c 128,-1,40
 1403 1165 1403 1165 1426 1166 c 1,0,-1
327 1166 m 1,41,-1
 327 1135 l 1,42,43
 286 1132 286 1132 268 1119.5 c 128,-1,44
 250 1107 250 1107 250.5 1079.5 c 128,-1,45
 251 1052 251 1052 267 1003 c 2,46,-1
 511 259 l 1,47,-1
 471 220 l 1,48,-1
 692 923 l 1,49,-1
 715 885 l 1,50,-1
 456 45 l 2,51,52
 453 45 453 45 449.5 45 c 128,-1,53
 446 45 446 45 443 45 c 256,54,55
 440 45 440 45 437 45 c 128,-1,56
 434 45 434 45 431 45 c 2,57,-1
 97 1034 l 2,58,59
 77 1096 77 1096 45.5 1114.5 c 128,-1,60
 14 1133 14 1133 -11 1135 c 1,61,-1
 -11 1166 l 1,62,63
 20 1165 20 1165 66.5 1163.5 c 128,-1,64
 113 1162 113 1162 157 1162 c 0,65,66
 209 1162 209 1162 253.5 1163.5 c 128,-1,67
 298 1165 298 1165 327 1166 c 1,41,-1
EndSplineSet
Validated: 37
EndChar

StartChar: X
Encoding: 88 88 59
Width: 997
GlyphClass: 2
Flags: W
LayerCount: 2
Fore
SplineSet
384 1166 m 1,0,-1
 384 1133 l 1,1,2
 305 1133 305 1133 287.5 1116.5 c 128,-1,3
 270 1100 270 1100 293 1064 c 2,4,-1
 881 164 l 2,5,6
 911 119 911 119 931.5 104 c 128,-1,7
 952 89 952 89 986 86 c 1,8,-1
 986 53 l 1,9,10
 966 54 966 54 929 56.5 c 128,-1,11
 892 59 892 59 851 59 c 0,12,13
 788 59 788 59 724.5 56.5 c 128,-1,14
 661 54 661 54 629 53 c 1,15,-1
 629 86 l 1,16,17
 708 86 708 86 730 95.5 c 128,-1,18
 752 105 752 105 730 139 c 2,19,-1
 132 1055 l 2,20,21
 102 1100 102 1100 82.5 1116 c 128,-1,22
 63 1132 63 1132 27 1133 c 1,23,-1
 27 1166 l 1,24,25
 47 1165 47 1165 85 1162.5 c 128,-1,26
 123 1160 123 1160 162 1160 c 0,27,28
 226 1160 226 1160 283 1162.5 c 128,-1,29
 340 1165 340 1165 384 1166 c 1,0,-1
470 627 m 1,30,31
 470 627 470 627 477 606.5 c 128,-1,32
 484 586 484 586 484 586 c 1,33,-1
 291 298 l 2,34,35
 234 213 234 213 232 167.5 c 128,-1,36
 230 122 230 122 267.5 104 c 128,-1,37
 305 86 305 86 371 84 c 1,38,-1
 371 53 l 1,39,40
 341 54 341 54 302 55 c 128,-1,41
 263 56 263 56 225 56.5 c 128,-1,42
 187 57 187 57 159 57 c 0,43,44
 72 57 72 57 25 53 c 1,45,-1
 25 84 l 1,46,47
 74 92 74 92 116.5 128 c 128,-1,48
 159 164 159 164 203 229 c 2,49,-1
 470 627 l 1,30,31
953 1166 m 1,50,-1
 953 1135 l 1,51,52
 904 1129 904 1129 861.5 1092 c 128,-1,53
 819 1055 819 1055 775 990 c 2,54,-1
 522 613 l 1,55,56
 522 613 522 613 517.5 633.5 c 128,-1,57
 513 654 513 654 513 654 c 1,58,-1
 692 921 l 2,59,60
 777 1048 777 1048 757.5 1090.5 c 128,-1,61
 738 1133 738 1133 639 1135 c 1,62,-1
 639 1166 l 1,63,64
 684 1165 684 1165 731.5 1163.5 c 128,-1,65
 779 1162 779 1162 819 1162 c 0,66,67
 906 1162 906 1162 953 1166 c 1,50,-1
EndSplineSet
Validated: 37
EndChar

StartChar: Y
Encoding: 89 89 60
Width: 930
GlyphClass: 2
Flags: W
LayerCount: 2
Fore
SplineSet
925 1166 m 1,0,-1
 925 1135 l 1,1,2
 895 1129 895 1129 865 1096.5 c 128,-1,3
 835 1064 835 1064 799 995 c 2,4,-1
 481 366 l 1,5,-1
 455 366 l 1,6,-1
 87 1045 l 2,7,8
 55 1103 55 1103 34 1118 c 128,-1,9
 13 1133 13 1133 -5 1133 c 1,10,-1
 -5 1166 l 1,11,12
 27 1165 27 1165 60.5 1163.5 c 128,-1,13
 94 1162 94 1162 134 1162 c 0,14,15
 186 1162 186 1162 245 1162.5 c 128,-1,16
 304 1163 304 1163 354 1166 c 1,17,-1
 354 1133 l 1,18,19
 315 1133 315 1133 285 1123.5 c 128,-1,20
 255 1114 255 1114 245.5 1089 c 128,-1,21
 236 1064 236 1064 260 1019 c 2,22,-1
 525 509 l 1,23,-1
 513 499 l 1,24,-1
 722 916 l 2,25,26
 766 1003 766 1003 765 1050 c 128,-1,27
 764 1097 764 1097 728 1115 c 128,-1,28
 692 1133 692 1133 626 1135 c 1,29,-1
 626 1166 l 1,30,31
 672 1165 672 1165 719 1163.5 c 128,-1,32
 766 1162 766 1162 807 1162 c 256,33,34
 848 1162 848 1162 874.5 1163.5 c 128,-1,35
 901 1165 901 1165 925 1166 c 1,0,-1
552 531 m 1,36,-1
 552 220 l 2,37,38
 552 163 552 163 561.5 134.5 c 128,-1,39
 571 106 571 106 598.5 96.5 c 128,-1,40
 626 87 626 87 679 84 c 1,41,-1
 679 53 l 1,42,43
 643 56 643 56 589 56.5 c 128,-1,44
 535 57 535 57 480 57 c 0,45,46
 418 57 418 57 364.5 56.5 c 128,-1,47
 311 56 311 56 278 53 c 1,48,-1
 278 84 l 1,49,50
 332 87 332 87 359.5 96.5 c 128,-1,51
 387 106 387 106 396.5 134.5 c 128,-1,52
 406 163 406 163 406 220 c 2,53,-1
 406 542 l 1,54,-1
 491 444 l 1,55,-1
 552 531 l 1,36,-1
EndSplineSet
Validated: 37
EndChar

StartChar: Z
Encoding: 90 90 61
Width: 935
GlyphClass: 2
Flags: W
LayerCount: 2
Fore
SplineSet
865 1166 m 1,0,-1
 865 1135 l 1,1,-1
 237 89 l 1,2,-1
 546 89 l 2,3,4
 619 89 619 89 665.5 104.5 c 128,-1,5
 712 120 712 120 739.5 154 c 128,-1,6
 767 188 767 188 781.5 244.5 c 128,-1,7
 796 301 796 301 803 383 c 1,8,-1
 840 383 l 1,9,10
 835 334 835 334 835 254 c 0,11,12
 835 224 835 224 837.5 168.5 c 128,-1,13
 840 113 840 113 846 53 c 1,14,15
 759 56 759 56 650 56.5 c 128,-1,16
 541 57 541 57 454 57 c 0,17,18
 361 57 361 57 258 56.5 c 128,-1,19
 155 56 155 56 66 53 c 1,20,-1
 66 84 l 1,21,-1
 698 1130 l 1,22,-1
 391 1130 l 2,23,24
 294 1130 294 1130 242 1102 c 128,-1,25
 190 1074 190 1074 167 1010 c 128,-1,26
 144 946 144 946 133 836 c 1,27,-1
 97 836 l 1,28,29
 100 861 100 861 101 894 c 128,-1,30
 102 927 102 927 102 965 c 0,31,32
 102 995 102 995 99.5 1051 c 128,-1,33
 97 1107 97 1107 91 1166 c 1,34,35
 179 1163 179 1163 287.5 1162.5 c 128,-1,36
 396 1162 396 1162 483 1162 c 0,37,38
 572 1162 572 1162 675 1162.5 c 128,-1,39
 778 1163 778 1163 865 1166 c 1,0,-1
EndSplineSet
Validated: 1
EndChar

StartChar: bracketleft
Encoding: 91 91 62
Width: 454
GlyphClass: 2
Flags: W
LayerCount: 2
Fore
SplineSet
429 -326 m 1,0,-1
 112 -326 l 1,1,-1
 112 1172 l 1,2,-1
 429 1172 l 1,3,-1
 429 1062 l 1,4,-1
 222 1062 l 1,5,-1
 222 -216 l 1,6,-1
 429 -216 l 1,7,-1
 429 -326 l 1,0,-1
EndSplineSet
Validated: 1
EndChar

StartChar: backslash
Encoding: 92 92 63
Width: 454
GlyphClass: 2
Flags: W
LayerCount: 2
Fore
SplineSet
346 -15 m 1,0,-1
 6 1157 l 1,1,-1
 112 1187 l 1,2,-1
 451 15 l 1,3,-1
 346 -15 l 1,0,-1
EndSplineSet
Validated: 1
EndChar

StartChar: bracketright
Encoding: 93 93 64
Width: 454
GlyphClass: 2
Flags: W
LayerCount: 2
Fore
SplineSet
344 -326 m 1,0,-1
 27 -326 l 1,1,-1
 27 -216 l 1,2,-1
 234 -216 l 1,3,-1
 234 1062 l 1,4,-1
 27 1062 l 1,5,-1
 27 1172 l 1,6,-1
 344 1172 l 1,7,-1
 344 -326 l 1,0,-1
EndSplineSet
Validated: 1
EndChar

StartChar: asciicircum
Encoding: 94 94 65
Width: 1010
GlyphClass: 2
Flags: W
LayerCount: 2
Fore
SplineSet
271 903 m 1,0,-1
 149 903 l 1,1,-1
 467 1471 l 1,2,-1
 574 1471 l 1,3,-1
 890 907 l 1,4,-1
 763 907 l 1,5,-1
 519 1355 l 1,6,-1
 271 903 l 1,0,-1
EndSplineSet
Validated: 1
EndChar

StartChar: underscore
Encoding: 95 95 66
Width: 904
GlyphClass: 2
Flags: W
LayerCount: 2
Fore
SplineSet
914 -274 m 1,0,-1
 -10 -274 l 1,1,-1
 -10 -163 l 1,2,-1
 914 -163 l 1,3,-1
 914 -274 l 1,0,-1
EndSplineSet
Validated: 1
EndChar

StartChar: grave
Encoding: 96 96 67
Width: 545
GlyphClass: 2
Flags: W
LayerCount: 2
Fore
SplineSet
368 967 m 1,0,-1
 235 967 l 1,1,-1
 83 1192 l 1,2,-1
 241 1192 l 1,3,-1
 368 967 l 1,0,-1
EndSplineSet
Validated: 1
EndChar

StartChar: a
Encoding: 97 97 68
Width: 816
GlyphClass: 2
Flags: W
LayerCount: 2
Fore
SplineSet
267 34 m 0,0,1
 161 34 161 34 112.5 87.5 c 128,-1,2
 64 141 64 141 64 229 c 0,3,4
 64 298 64 298 97.5 343 c 128,-1,5
 131 388 131 388 183.5 416.5 c 128,-1,6
 236 445 236 445 294 465.5 c 128,-1,7
 352 486 352 486 404.5 506 c 128,-1,8
 457 526 457 526 490.5 550.5 c 128,-1,9
 524 575 524 575 524 612 c 2,10,-1
 524 714 l 2,11,12
 524 783 524 783 504 819 c 128,-1,13
 484 855 484 855 449.5 867 c 128,-1,14
 415 879 415 879 372 879 c 0,15,16
 331 879 331 879 284.5 868 c 128,-1,17
 238 857 238 857 210 820 c 1,18,19
 241 814 241 814 264 787.5 c 128,-1,20
 287 761 287 761 287 721 c 0,21,22
 287 680 287 680 260.5 656 c 128,-1,23
 234 632 234 632 194 632 c 0,24,25
 146 632 146 632 124 662.5 c 128,-1,26
 102 693 102 693 102 730 c 0,27,28
 102 773 102 773 123 799 c 128,-1,29
 144 825 144 825 177 848 c 0,30,31
 215 875 215 875 274.5 893.5 c 128,-1,32
 334 912 334 912 410 912 c 0,33,34
 477 912 477 912 524.5 896.5 c 128,-1,35
 572 881 572 881 603 852 c 0,36,37
 646 812 646 812 659 755.5 c 128,-1,38
 672 699 672 699 672 621 c 2,39,-1
 672 165 l 2,40,41
 672 126 672 126 683.5 107 c 128,-1,42
 695 88 695 88 723 88 c 0,43,44
 746 88 746 88 763 98 c 128,-1,45
 780 108 780 108 796 123 c 1,46,-1
 814 95 l 1,47,48
 780 68 780 68 749 51 c 128,-1,49
 718 34 718 34 665 34 c 0,50,51
 580 34 580 34 552 78.5 c 128,-1,52
 524 123 524 123 524 180 c 1,53,54
 472 93 472 93 405.5 63.5 c 128,-1,55
 339 34 339 34 267 34 c 0,0,1
339 100 m 0,56,57
 389 100 389 100 436.5 128.5 c 128,-1,58
 484 157 484 157 524 224 c 1,59,-1
 524 545 l 1,60,61
 500 509 500 509 448.5 488 c 128,-1,62
 397 467 397 467 342 441.5 c 128,-1,63
 287 416 287 416 247.5 372.5 c 128,-1,64
 208 329 208 329 208 249 c 0,65,66
 208 173 208 173 246 136.5 c 128,-1,67
 284 100 284 100 339 100 c 0,56,57
EndSplineSet
Validated: 1
EndChar

StartChar: b
Encoding: 98 98 69
Width: 922
GlyphClass: 2
Flags: W
LayerCount: 2
Fore
SplineSet
534 912 m 0,0,1
 668 912 668 912 756.5 801.5 c 128,-1,2
 845 691 845 691 845 467 c 0,3,4
 845 319 845 319 795 220 c 128,-1,5
 745 121 745 121 661.5 72 c 128,-1,6
 578 23 578 23 479 23 c 0,7,8
 398 23 398 23 321.5 69.5 c 128,-1,9
 245 116 245 116 207 208 c 1,10,-1
 240 190 l 1,11,12
 281 124 281 124 341.5 92 c 128,-1,13
 402 60 402 60 466 60 c 0,14,15
 576 60 576 60 631 159 c 128,-1,16
 686 258 686 258 686 467 c 0,17,18
 686 599 686 599 664.5 687.5 c 128,-1,19
 643 776 643 776 599 819.5 c 128,-1,20
 555 863 555 863 486 863 c 0,21,22
 411 863 411 863 346 795 c 128,-1,23
 281 727 281 727 266 596 c 1,24,-1
 247 619 l 1,25,26
 265 758 265 758 344.5 835 c 128,-1,27
 424 912 424 912 534 912 c 0,0,1
278 1328 m 1,28,-1
 278 131 l 1,29,30
 257 113 257 113 234.5 94 c 128,-1,31
 212 75 212 75 191 57 c 128,-1,32
 170 39 170 39 147 19 c 1,33,-1
 119 31 l 1,34,35
 126 54 126 54 128 77.5 c 128,-1,36
 130 101 130 101 130 126 c 2,37,-1
 130 1132 l 2,38,39
 130 1205 130 1205 104 1240.5 c 128,-1,40
 78 1276 78 1276 6 1276 c 1,41,-1
 6 1310 l 1,42,43
 58 1305 58 1305 108 1305 c 0,44,45
 155 1305 155 1305 198.5 1311 c 128,-1,46
 242 1317 242 1317 278 1328 c 1,28,-1
EndSplineSet
Validated: 5
EndChar

StartChar: c
Encoding: 99 99 70
Width: 795
GlyphClass: 2
Flags: W
LayerCount: 2
Fore
SplineSet
457 912 m 0,0,1
 509 912 509 912 558 899 c 128,-1,2
 607 886 607 886 647 860 c 0,3,4
 684 835 684 835 704 803 c 128,-1,5
 724 771 724 771 724 734 c 0,6,7
 724 689 724 689 699.5 665.5 c 128,-1,8
 675 642 675 642 637 642 c 0,9,10
 601 642 601 642 574 663 c 128,-1,11
 547 684 547 684 547 724 c 0,12,13
 547 761 547 761 567.5 784 c 128,-1,14
 588 807 588 807 616 814 c 1,15,16
 599 843 599 843 557.5 863 c 128,-1,17
 516 883 516 883 468 883 c 0,18,19
 427 883 427 883 386 863 c 128,-1,20
 345 843 345 843 310.5 798 c 128,-1,21
 276 753 276 753 255 675.5 c 128,-1,22
 234 598 234 598 234 481 c 0,23,24
 234 337 234 337 266.5 252 c 128,-1,25
 299 167 299 167 352.5 130 c 128,-1,26
 406 93 406 93 470 93 c 256,27,28
 534 93 534 93 599.5 130.5 c 128,-1,29
 665 168 665 168 707 262 c 1,30,-1
 738 250 l 1,31,32
 722 198 722 198 684.5 144.5 c 128,-1,33
 647 91 647 91 586 57 c 128,-1,34
 525 23 525 23 437 23 c 0,35,36
 335 23 335 23 253.5 75 c 128,-1,37
 172 127 172 127 123.5 224.5 c 128,-1,38
 75 322 75 322 75 457 c 0,39,40
 75 591 75 591 123.5 693.5 c 128,-1,41
 172 796 172 796 258.5 854 c 128,-1,42
 345 912 345 912 457 912 c 0,0,1
EndSplineSet
Validated: 1
EndChar

StartChar: d
Encoding: 100 100 71
Width: 951
GlyphClass: 2
Flags: W
LayerCount: 2
Fore
SplineSet
792 1330 m 1,0,-1
 792 224 l 2,1,2
 792 150 792 150 819 115 c 128,-1,3
 846 80 846 80 917 80 c 1,4,-1
 917 46 l 1,5,6
 866 50 866 50 815 50 c 0,7,8
 768 50 768 50 724.5 45.5 c 128,-1,9
 681 41 681 41 645 27 c 1,10,-1
 645 1133 l 2,11,12
 645 1207 645 1207 618.5 1242.5 c 128,-1,13
 592 1278 592 1278 520 1278 c 1,14,-1
 520 1312 l 1,15,16
 573 1307 573 1307 622 1307 c 0,17,18
 669 1307 669 1307 712.5 1313 c 128,-1,19
 756 1319 756 1319 792 1330 c 1,0,-1
448 912 m 0,20,21
 520 912 520 912 583 877.5 c 128,-1,22
 646 843 646 843 668 760 c 1,23,-1
 646 743 l 1,24,25
 623 812 623 812 575 843.5 c 128,-1,26
 527 875 527 875 461 875 c 0,27,28
 364 875 364 875 299.5 775 c 128,-1,29
 235 675 235 675 237 467 c 0,30,31
 237 334 237 334 262 246.5 c 128,-1,32
 287 159 287 159 337 115.5 c 128,-1,33
 387 72 387 72 459 72 c 0,34,35
 528 72 528 72 584 131 c 128,-1,36
 640 190 640 190 651 304 c 1,37,-1
 671 281 l 1,38,39
 658 157 658 157 591.5 90 c 128,-1,40
 525 23 525 23 412 23 c 0,41,42
 310 23 310 23 234 72 c 128,-1,43
 158 121 158 121 118 219 c 128,-1,44
 78 317 78 317 78 467 c 0,45,46
 78 616 78 616 129.5 715 c 128,-1,47
 181 814 181 814 265.5 863 c 128,-1,48
 350 912 350 912 448 912 c 0,20,21
EndSplineSet
Validated: 37
EndChar

StartChar: e
Encoding: 101 101 72
Width: 828
GlyphClass: 2
Flags: W
LayerCount: 2
Fore
SplineSet
445 912 m 0,0,1
 589 912 589 912 670 824.5 c 128,-1,2
 751 737 751 737 751 552 c 1,3,-1
 173 552 l 1,4,-1
 171 583 l 1,5,-1
 594 583 l 1,6,7
 597 663 597 663 580.5 731 c 128,-1,8
 564 799 564 799 529 840 c 128,-1,9
 494 881 494 881 438 881 c 0,10,11
 363 881 363 881 305 805.5 c 128,-1,12
 247 730 247 730 235 567 c 1,13,-1
 240 560 l 1,14,15
 237 535 237 535 235 505.5 c 128,-1,16
 233 476 233 476 233 447 c 0,17,18
 233 335 233 335 269.5 255 c 128,-1,19
 306 175 306 175 364 133 c 128,-1,20
 422 91 422 91 484 91 c 0,21,22
 558 91 558 91 620 127 c 128,-1,23
 682 163 682 163 725 255 c 1,24,-1
 758 242 l 1,25,26
 740 188 740 188 699 137 c 128,-1,27
 658 86 658 86 595.5 54.5 c 128,-1,28
 533 23 533 23 451 23 c 0,29,30
 333 23 333 23 249 77 c 128,-1,31
 165 131 165 131 120 226.5 c 128,-1,32
 75 322 75 322 75 447 c 0,33,34
 75 591 75 591 120.5 695 c 128,-1,35
 166 799 166 799 249.5 855.5 c 128,-1,36
 333 912 333 912 445 912 c 0,0,1
EndSplineSet
Validated: 37
EndChar

StartChar: f
Encoding: 102 102 73
Width: 543
GlyphClass: 2
Flags: W
LayerCount: 2
Fore
SplineSet
452 1327 m 0,0,1
 498 1327 498 1327 533 1314.5 c 128,-1,2
 568 1302 568 1302 594 1282 c 0,3,4
 619 1263 619 1263 632 1236.5 c 128,-1,5
 645 1210 645 1210 645 1181 c 0,6,7
 645 1143 645 1143 620.5 1118.5 c 128,-1,8
 596 1094 596 1094 558 1094 c 0,9,10
 522 1094 522 1094 495 1118 c 128,-1,11
 468 1142 468 1142 468 1183 c 0,12,13
 468 1217 468 1217 487 1238.5 c 128,-1,14
 506 1260 506 1260 537 1266 c 1,15,16
 532 1281 532 1281 511.5 1291.5 c 128,-1,17
 491 1302 491 1302 457 1302 c 0,18,19
 419 1302 419 1302 392 1285.5 c 128,-1,20
 365 1269 365 1269 350 1242 c 0,21,22
 331 1207 331 1207 326 1139 c 128,-1,23
 321 1071 321 1071 321 930 c 2,24,-1
 321 888 l 1,25,-1
 496 888 l 1,26,-1
 496 855 l 1,27,-1
 321 855 l 1,28,-1
 321 214 l 2,29,30
 321 134 321 134 367.5 107 c 128,-1,31
 414 80 414 80 494 80 c 1,32,-1
 494 46 l 1,33,34
 457 47 457 47 388 49.5 c 128,-1,35
 319 52 319 52 242 52 c 0,36,37
 186 52 186 52 131.5 49.5 c 128,-1,38
 77 47 77 47 49 46 c 1,39,-1
 49 80 l 1,40,41
 116 80 116 80 144.5 104.5 c 128,-1,42
 173 129 173 129 173 198 c 2,43,-1
 173 855 l 1,44,-1
 42 855 l 1,45,-1
 42 888 l 1,46,-1
 173 888 l 1,47,48
 173 1033 173 1033 192 1111 c 128,-1,49
 211 1189 211 1189 257 1245 c 0,50,51
 290 1282 290 1282 340.5 1304.5 c 128,-1,52
 391 1327 391 1327 452 1327 c 0,0,1
EndSplineSet
Validated: 1
EndChar

StartChar: g
Encoding: 103 103 74
Width: 864
GlyphClass: 2
Flags: W
LayerCount: 2
Fore
SplineSet
348 -263 m 0,0,1
 261 -263 261 -263 184 -244.5 c 128,-1,2
 107 -226 107 -226 60.5 -187.5 c 128,-1,3
 14 -149 14 -149 14 -90 c 0,4,5
 14 -33 14 -33 60 8 c 128,-1,6
 106 49 106 49 184 70 c 1,7,-1
 194 44 l 1,8,9
 158 32 158 32 137 -2 c 128,-1,10
 116 -36 116 -36 116 -79 c 0,11,12
 116 -154 116 -154 185.5 -194.5 c 128,-1,13
 255 -235 255 -235 366 -235 c 0,14,15
 440 -235 440 -235 510.5 -216 c 128,-1,16
 581 -197 581 -197 627 -153 c 128,-1,17
 673 -109 673 -109 673 -36 c 0,18,19
 673 18 673 18 634.5 53 c 128,-1,20
 596 88 596 88 483 88 c 2,21,-1
 361 88 l 2,22,23
 309 88 309 88 260 96 c 128,-1,24
 211 104 211 104 179.5 130.5 c 128,-1,25
 148 157 148 157 148 211 c 0,26,27
 148 267 148 267 194 318.5 c 128,-1,28
 240 370 240 370 363 424 c 1,29,-1
 383 409 l 1,30,31
 327 380 327 380 286 349.5 c 128,-1,32
 245 319 245 319 245 278 c 0,33,34
 245 226 245 226 324 226 c 2,35,-1
 528 226 l 2,36,37
 630 226 630 226 708 181 c 128,-1,38
 786 136 786 136 786 32 c 0,39,40
 786 -45 786 -45 736.5 -112 c 128,-1,41
 687 -179 687 -179 589.5 -221 c 128,-1,42
 492 -263 492 -263 348 -263 c 0,0,1
356 394 m 0,43,44
 235 394 235 394 152.5 456.5 c 128,-1,45
 70 519 70 519 70 653 c 0,46,47
 70 789 70 789 152.5 850.5 c 128,-1,48
 235 912 235 912 356 912 c 0,49,50
 478 912 478 912 560.5 850.5 c 128,-1,51
 643 789 643 789 643 653 c 0,52,53
 643 519 643 519 560.5 456.5 c 128,-1,54
 478 394 478 394 356 394 c 0,43,44
356 424 m 0,55,56
 419 424 419 424 454 473 c 128,-1,57
 489 522 489 522 489 653 c 256,58,59
 489 784 489 784 454 833.5 c 128,-1,60
 419 883 419 883 356 883 c 0,61,62
 296 883 296 883 260 833.5 c 128,-1,63
 224 784 224 784 224 653 c 256,64,65
 224 522 224 522 260 473 c 128,-1,66
 296 424 296 424 356 424 c 0,55,56
592 776 m 1,67,-1
 563 788 l 1,68,69
 586 843 586 843 641.5 886 c 128,-1,70
 697 929 697 929 758 929 c 0,71,72
 800 929 800 929 826.5 905 c 128,-1,73
 853 881 853 881 853 834 c 0,74,75
 853 783 853 783 826 762.5 c 128,-1,76
 799 742 799 742 771 742 c 0,77,78
 746 742 746 742 725 759 c 128,-1,79
 704 776 704 776 700.5 814 c 128,-1,80
 697 852 697 852 723 911 c 1,81,-1
 745 906 l 1,82,83
 676 879 676 879 646.5 850.5 c 128,-1,84
 617 822 617 822 592 776 c 1,67,-1
EndSplineSet
Validated: 37
EndChar

StartChar: h
Encoding: 104 104 75
Width: 963
GlyphClass: 2
Flags: W
LayerCount: 2
Fore
SplineSet
305 1328 m 1,0,-1
 305 716 l 1,1,2
 347 827 347 827 423.5 869.5 c 128,-1,3
 500 912 500 912 583 912 c 0,4,5
 646 912 646 912 687.5 895.5 c 128,-1,6
 729 879 729 879 757 850 c 0,7,8
 788 817 788 817 801 768 c 128,-1,9
 814 719 814 719 814 635 c 2,10,-1
 814 198 l 2,11,12
 814 129 814 129 843 104.5 c 128,-1,13
 872 80 872 80 939 80 c 1,14,-1
 939 46 l 1,15,16
 911 47 911 47 853.5 49.5 c 128,-1,17
 796 52 796 52 742 52 c 256,18,19
 688 52 688 52 636.5 49.5 c 128,-1,20
 585 47 585 47 559 46 c 1,21,-1
 559 80 l 1,22,23
 618 80 618 80 642.5 104.5 c 128,-1,24
 667 129 667 129 667 198 c 2,25,-1
 667 671 l 2,26,27
 667 722 667 722 659 764.5 c 128,-1,28
 651 807 651 807 622 833.5 c 128,-1,29
 593 860 593 860 534 860 c 0,30,31
 434 860 434 860 369.5 777 c 128,-1,32
 305 694 305 694 305 563 c 2,33,-1
 305 198 l 2,34,35
 305 129 305 129 329.5 104.5 c 128,-1,36
 354 80 354 80 413 80 c 1,37,-1
 413 46 l 1,38,39
 387 47 387 47 335.5 49.5 c 128,-1,40
 284 52 284 52 229 52 c 0,41,42
 175 52 175 52 118 49.5 c 128,-1,43
 61 47 61 47 33 46 c 1,44,-1
 33 80 l 1,45,46
 100 80 100 80 128.5 104.5 c 128,-1,47
 157 129 157 129 157 198 c 2,48,-1
 157 1132 l 2,49,50
 157 1205 157 1205 131 1240.5 c 128,-1,51
 105 1276 105 1276 33 1276 c 1,52,-1
 33 1310 l 1,53,54
 85 1305 85 1305 134 1305 c 0,55,56
 182 1305 182 1305 225.5 1311 c 128,-1,57
 269 1317 269 1317 305 1328 c 1,0,-1
EndSplineSet
Validated: 1
EndChar

StartChar: i
Encoding: 105 105 76
Width: 479
GlyphClass: 2
Flags: W
LayerCount: 2
Fore
SplineSet
234 1299 m 0,0,1
 276 1299 276 1299 307.5 1268 c 128,-1,2
 339 1237 339 1237 339 1194 c 256,3,4
 339 1151 339 1151 307.5 1120 c 128,-1,5
 276 1089 276 1089 234 1089 c 0,6,7
 191 1089 191 1089 160 1120 c 128,-1,8
 129 1151 129 1151 129 1194 c 256,9,10
 129 1237 129 1237 160 1268 c 128,-1,11
 191 1299 191 1299 234 1299 c 0,0,1
319 907 m 1,12,-1
 319 198 l 2,13,14
 319 129 319 129 347.5 104.5 c 128,-1,15
 376 80 376 80 443 80 c 1,16,-1
 443 46 l 1,17,18
 416 47 416 47 359.5 49.5 c 128,-1,19
 303 52 303 52 245 52 c 0,20,21
 189 52 189 52 132 49.5 c 128,-1,22
 75 47 75 47 47 46 c 1,23,-1
 47 80 l 1,24,25
 114 80 114 80 142.5 104.5 c 128,-1,26
 171 129 171 129 171 198 c 2,27,-1
 171 711 l 2,28,29
 171 784 171 784 145 819.5 c 128,-1,30
 119 855 119 855 47 855 c 1,31,-1
 47 889 l 1,32,33
 99 884 99 884 148 884 c 0,34,35
 196 884 196 884 239.5 890 c 128,-1,36
 283 896 283 896 319 907 c 1,12,-1
EndSplineSet
Validated: 1
EndChar

StartChar: j
Encoding: 106 106 77
Width: 438
GlyphClass: 2
Flags: W
LayerCount: 2
Fore
SplineSet
-42 -263 m 1,0,-1
 -42 -238 l 1,1,2
 60 -233 60 -233 110.5 -150.5 c 128,-1,3
 161 -68 161 -68 161 77 c 2,4,-1
 161 711 l 2,5,6
 161 784 161 784 135 819.5 c 128,-1,7
 109 855 109 855 37 855 c 1,8,-1
 37 889 l 1,9,10
 89 884 89 884 138 884 c 0,11,12
 186 884 186 884 229.5 890 c 128,-1,13
 273 896 273 896 309 907 c 1,14,-1
 309 234 l 2,15,16
 309 111 309 111 282 8 c 128,-1,17
 255 -95 255 -95 191 -163 c 0,18,19
 150 -207 150 -207 90 -235 c 128,-1,20
 30 -263 30 -263 -42 -263 c 1,0,-1
220 1299 m 0,21,22
 263 1299 263 1299 294 1268 c 128,-1,23
 325 1237 325 1237 325 1194 c 256,24,25
 325 1151 325 1151 294 1120 c 128,-1,26
 263 1089 263 1089 220 1089 c 0,27,28
 178 1089 178 1089 146.5 1120 c 128,-1,29
 115 1151 115 1151 115 1194 c 256,30,31
 115 1237 115 1237 146.5 1268 c 128,-1,32
 178 1299 178 1299 220 1299 c 0,21,22
EndSplineSet
Validated: 1
EndChar

StartChar: k
Encoding: 107 107 78
Width: 901
GlyphClass: 2
Flags: W
LayerCount: 2
Fore
SplineSet
305 1330 m 1,0,-1
 305 198 l 2,1,2
 305 129 305 129 329.5 104.5 c 128,-1,3
 354 80 354 80 413 80 c 1,4,-1
 413 46 l 1,5,6
 387 47 387 47 335.5 49.5 c 128,-1,7
 284 52 284 52 232 52 c 0,8,9
 176 52 176 52 118.5 49.5 c 128,-1,10
 61 47 61 47 33 46 c 1,11,-1
 33 80 l 1,12,13
 100 80 100 80 129 104.5 c 128,-1,14
 158 129 158 129 158 198 c 2,15,-1
 158 1133 l 2,16,17
 158 1207 158 1207 131.5 1242.5 c 128,-1,18
 105 1278 105 1278 33 1278 c 1,19,-1
 33 1312 l 1,20,21
 86 1307 86 1307 135 1307 c 0,22,23
 182 1307 182 1307 225.5 1313 c 128,-1,24
 269 1319 269 1319 305 1330 c 1,0,-1
826 889 m 1,25,-1
 826 857 l 1,26,27
 785 853 785 853 749 834.5 c 128,-1,28
 713 816 713 816 679 780 c 2,29,-1
 448 537 l 1,30,-1
 471 583 l 1,31,-1
 775 165 l 2,32,33
 803 127 803 127 828.5 106 c 128,-1,34
 854 85 854 85 890 80 c 1,35,-1
 890 46 l 1,36,37
 872 47 872 47 833.5 49.5 c 128,-1,38
 795 52 795 52 757 52 c 0,39,40
 707 52 707 52 654.5 49.5 c 128,-1,41
 602 47 602 47 576 46 c 1,42,-1
 576 80 l 1,43,44
 608 80 608 80 621.5 96.5 c 128,-1,45
 635 113 635 113 617 136 c 2,46,-1
 428 411 l 2,47,48
 397 455 397 455 371.5 468 c 128,-1,49
 346 481 346 481 299 483 c 1,50,-1
 299 516 l 1,51,52
 351 522 351 522 384 537.5 c 128,-1,53
 417 553 417 553 446 585 c 2,54,-1
 567 711 l 2,55,56
 620 765 620 765 620 797 c 128,-1,57
 620 829 620 829 586.5 843 c 128,-1,58
 553 857 553 857 499 857 c 1,59,-1
 499 889 l 1,60,61
 541 888 541 888 594.5 885.5 c 128,-1,62
 648 883 648 883 684 883 c 0,63,64
 712 883 712 883 738 883.5 c 128,-1,65
 764 884 764 884 787 886 c 128,-1,66
 810 888 810 888 826 889 c 1,25,-1
EndSplineSet
Validated: 5
EndChar

StartChar: l
Encoding: 108 108 79
Width: 469
GlyphClass: 2
Flags: W
LayerCount: 2
Fore
SplineSet
308 1330 m 1,0,-1
 308 198 l 2,1,2
 308 129 308 129 336.5 104.5 c 128,-1,3
 365 80 365 80 433 80 c 1,4,-1
 433 46 l 1,5,6
 405 47 405 47 348.5 49.5 c 128,-1,7
 292 52 292 52 234 52 c 0,8,9
 179 52 179 52 121.5 49.5 c 128,-1,10
 64 47 64 47 36 46 c 1,11,-1
 36 80 l 1,12,13
 103 80 103 80 132 104.5 c 128,-1,14
 161 129 161 129 161 198 c 2,15,-1
 161 1133 l 2,16,17
 161 1207 161 1207 134.5 1242.5 c 128,-1,18
 108 1278 108 1278 36 1278 c 1,19,-1
 36 1312 l 1,20,21
 88 1307 88 1307 138 1307 c 0,22,23
 185 1307 185 1307 228.5 1313 c 128,-1,24
 272 1319 272 1319 308 1330 c 1,0,-1
EndSplineSet
Validated: 1
EndChar

StartChar: m
Encoding: 109 109 80
Width: 1454
GlyphClass: 2
Flags: W
LayerCount: 2
Fore
SplineSet
587 912 m 0,0,1
 645 912 645 912 687.5 895.5 c 128,-1,2
 730 879 730 879 758 850 c 0,3,4
 789 817 789 817 800.5 764.5 c 128,-1,5
 812 712 812 712 812 635 c 2,6,-1
 812 198 l 2,7,8
 812 129 812 129 840.5 104.5 c 128,-1,9
 869 80 869 80 936 80 c 1,10,-1
 936 46 l 1,11,12
 908 47 908 47 851 49.5 c 128,-1,13
 794 52 794 52 740 52 c 0,14,15
 685 52 685 52 633.5 49.5 c 128,-1,16
 582 47 582 47 556 46 c 1,17,-1
 556 80 l 1,18,19
 615 80 615 80 639.5 104.5 c 128,-1,20
 664 129 664 129 664 198 c 2,21,-1
 664 671 l 2,22,23
 664 722 664 722 657.5 764.5 c 128,-1,24
 651 807 651 807 625 833.5 c 128,-1,25
 599 860 599 860 540 860 c 0,26,27
 476 860 476 860 426 820.5 c 128,-1,28
 376 781 376 781 347 713 c 128,-1,29
 318 645 318 645 318 562 c 2,30,-1
 318 198 l 2,31,32
 318 129 318 129 343 104.5 c 128,-1,33
 368 80 368 80 427 80 c 1,34,-1
 427 46 l 1,35,36
 400 47 400 47 348.5 49.5 c 128,-1,37
 297 52 297 52 243 52 c 256,38,39
 189 52 189 52 131.5 49.5 c 128,-1,40
 74 47 74 47 47 46 c 1,41,-1
 47 80 l 1,42,43
 114 80 114 80 142.5 104.5 c 128,-1,44
 171 129 171 129 171 198 c 2,45,-1
 171 711 l 2,46,47
 171 784 171 784 145 819.5 c 128,-1,48
 119 855 119 855 47 855 c 1,49,-1
 47 889 l 1,50,51
 99 884 99 884 148 884 c 0,52,53
 196 884 196 884 239 890 c 128,-1,54
 282 896 282 896 318 907 c 1,55,-1
 318 714 l 1,56,57
 361 820 361 820 435 866 c 128,-1,58
 509 912 509 912 587 912 c 0,0,1
1080 912 m 0,59,60
 1138 912 1138 912 1180.5 895.5 c 128,-1,61
 1223 879 1223 879 1251 850 c 0,62,63
 1282 817 1282 817 1293.5 764.5 c 128,-1,64
 1305 712 1305 712 1305 635 c 2,65,-1
 1305 198 l 2,66,67
 1305 129 1305 129 1333.5 104.5 c 128,-1,68
 1362 80 1362 80 1429 80 c 1,69,-1
 1429 46 l 1,70,71
 1401 47 1401 47 1344 49.5 c 128,-1,72
 1287 52 1287 52 1233 52 c 256,73,74
 1179 52 1179 52 1127 49.5 c 128,-1,75
 1075 47 1075 47 1049 46 c 1,76,-1
 1049 80 l 1,77,78
 1108 80 1108 80 1132.5 104.5 c 128,-1,79
 1157 129 1157 129 1157 198 c 2,80,-1
 1157 671 l 2,81,82
 1157 722 1157 722 1150.5 764.5 c 128,-1,83
 1144 807 1144 807 1118 833.5 c 128,-1,84
 1092 860 1092 860 1033 860 c 0,85,86
 938 860 938 860 875 774.5 c 128,-1,87
 812 689 812 689 812 563 c 1,88,-1
 807 716 l 1,89,90
 851 829 851 829 926.5 870.5 c 128,-1,91
 1002 912 1002 912 1080 912 c 0,59,60
EndSplineSet
Validated: 5
EndChar

StartChar: n
Encoding: 110 110 81
Width: 978
GlyphClass: 2
Flags: W
LayerCount: 2
Fore
SplineSet
597 912 m 0,0,1
 659 912 659 912 701 895.5 c 128,-1,2
 743 879 743 879 771 850 c 0,3,4
 802 817 802 817 815 768 c 128,-1,5
 828 719 828 719 828 635 c 2,6,-1
 828 198 l 2,7,8
 828 129 828 129 856.5 104.5 c 128,-1,9
 885 80 885 80 953 80 c 1,10,-1
 953 46 l 1,11,12
 925 47 925 47 867.5 49.5 c 128,-1,13
 810 52 810 52 756 52 c 256,14,15
 702 52 702 52 650.5 49.5 c 128,-1,16
 599 47 599 47 572 46 c 1,17,-1
 572 80 l 1,18,19
 631 80 631 80 656 104.5 c 128,-1,20
 681 129 681 129 681 198 c 2,21,-1
 681 671 l 2,22,23
 681 722 681 722 672.5 764.5 c 128,-1,24
 664 807 664 807 635.5 833.5 c 128,-1,25
 607 860 607 860 548 860 c 0,26,27
 445 860 445 860 381.5 774 c 128,-1,28
 318 688 318 688 318 562 c 2,29,-1
 318 198 l 2,30,31
 318 129 318 129 343 104.5 c 128,-1,32
 368 80 368 80 427 80 c 1,33,-1
 427 46 l 1,34,35
 400 47 400 47 348.5 49.5 c 128,-1,36
 297 52 297 52 243 52 c 256,37,38
 189 52 189 52 131.5 49.5 c 128,-1,39
 74 47 74 47 47 46 c 1,40,-1
 47 80 l 1,41,42
 114 80 114 80 142.5 104.5 c 128,-1,43
 171 129 171 129 171 198 c 2,44,-1
 171 711 l 2,45,46
 171 784 171 784 145 819.5 c 128,-1,47
 119 855 119 855 47 855 c 1,48,-1
 47 889 l 1,49,50
 99 884 99 884 148 884 c 0,51,52
 196 884 196 884 239 890 c 128,-1,53
 282 896 282 896 318 907 c 1,54,-1
 318 714 l 1,55,56
 361 825 361 825 437 868.5 c 128,-1,57
 513 912 513 912 597 912 c 0,0,1
EndSplineSet
Validated: 1
EndChar

StartChar: o
Encoding: 111 111 82
Width: 898
GlyphClass: 2
Flags: W
LayerCount: 2
Fore
SplineSet
449 912 m 0,0,1
 554 912 554 912 637.5 866 c 128,-1,2
 721 820 721 820 771 722 c 128,-1,3
 821 624 821 624 821 467 c 0,4,5
 821 309 821 309 771 211.5 c 128,-1,6
 721 114 721 114 637.5 68.5 c 128,-1,7
 554 23 554 23 449 23 c 0,8,9
 346 23 346 23 261.5 68.5 c 128,-1,10
 177 114 177 114 127 211.5 c 128,-1,11
 77 309 77 309 77 467 c 0,12,13
 77 624 77 624 127 722 c 128,-1,14
 177 820 177 820 261.5 866 c 128,-1,15
 346 912 346 912 449 912 c 0,0,1
449 879 m 0,16,17
 356 879 356 879 296 782.5 c 128,-1,18
 236 686 236 686 236 467 c 0,19,20
 236 247 236 247 296 151 c 128,-1,21
 356 55 356 55 449 55 c 0,22,23
 543 55 543 55 602.5 151 c 128,-1,24
 662 247 662 247 662 467 c 0,25,26
 662 686 662 686 602.5 782.5 c 128,-1,27
 543 879 543 879 449 879 c 0,16,17
EndSplineSet
Validated: 1
EndChar

StartChar: p
Encoding: 112 112 83
Width: 952
GlyphClass: 2
Flags: W
LayerCount: 2
Fore
SplineSet
308 907 m 1,0,-1
 308 -99 l 2,1,2
 308 -169 308 -169 350 -193 c 128,-1,3
 392 -217 392 -217 465 -217 c 1,4,-1
 465 -251 l 1,5,6
 429 -249 429 -249 365.5 -246.5 c 128,-1,7
 302 -244 302 -244 229 -244 c 0,8,9
 179 -244 179 -244 129 -246.5 c 128,-1,10
 79 -249 79 -249 53 -251 c 1,11,-1
 53 -217 l 1,12,13
 112 -217 112 -217 136.5 -195.5 c 128,-1,14
 161 -174 161 -174 161 -115 c 2,15,-1
 161 711 l 2,16,17
 161 784 161 784 134.5 819.5 c 128,-1,18
 108 855 108 855 36 855 c 1,19,-1
 36 889 l 1,20,21
 89 884 89 884 138 884 c 0,22,23
 185 884 185 884 228.5 890 c 128,-1,24
 272 896 272 896 308 907 c 1,0,-1
570 912 m 0,25,26
 700 912 700 912 787.5 808 c 128,-1,27
 875 704 875 704 875 506 c 0,28,29
 875 388 875 388 836.5 276.5 c 128,-1,30
 798 165 798 165 716 94 c 128,-1,31
 634 23 634 23 500 23 c 0,32,33
 423 23 423 23 366.5 59 c 128,-1,34
 310 95 310 95 290 145 c 1,35,-1
 306 168 l 1,36,37
 329 123 329 123 372.5 91.5 c 128,-1,38
 416 60 416 60 482 60 c 0,39,40
 574 60 574 60 624.5 117.5 c 128,-1,41
 675 175 675 175 695.5 271 c 128,-1,42
 716 367 716 367 716 483 c 0,43,44
 716 614 716 614 694.5 697.5 c 128,-1,45
 673 781 673 781 630.5 822 c 128,-1,46
 588 863 588 863 526 863 c 0,47,48
 446 863 446 863 380.5 796.5 c 128,-1,49
 315 730 315 730 297 596 c 1,50,-1
 277 619 l 1,51,52
 295 758 295 758 376 835 c 128,-1,53
 457 912 457 912 570 912 c 0,25,26
EndSplineSet
Validated: 5
EndChar

StartChar: q
Encoding: 113 113 84
Width: 922
GlyphClass: 2
Flags: W
LayerCount: 2
Fore
SplineSet
427 912 m 0,0,1
 529 912 529 912 591 868.5 c 128,-1,2
 653 825 653 825 688 725 c 1,3,-1
 655 743 l 1,4,5
 624 811 624 811 568 843 c 128,-1,6
 512 875 512 875 440 875 c 0,7,8
 344 875 344 875 289.5 775 c 128,-1,9
 235 675 235 675 235 467 c 0,10,11
 235 335 235 335 261.5 247 c 128,-1,12
 288 159 288 159 338.5 115.5 c 128,-1,13
 389 72 389 72 462 72 c 0,14,15
 530 72 530 72 587.5 139 c 128,-1,16
 645 206 645 206 655 337 c 1,17,-1
 675 314 l 1,18,19
 663 175 663 175 590 99 c 128,-1,20
 517 23 517 23 414 23 c 0,21,22
 321 23 321 23 244 71 c 128,-1,23
 167 119 167 119 122 218 c 128,-1,24
 77 317 77 317 77 467 c 0,25,26
 77 616 77 616 123.5 715 c 128,-1,27
 170 814 170 814 249.5 863 c 128,-1,28
 329 912 329 912 427 912 c 0,0,1
774 915 m 1,29,-1
 802 904 l 1,30,31
 796 883 796 883 793.5 858.5 c 128,-1,32
 791 834 791 834 791 809 c 2,33,-1
 791 -115 l 2,34,35
 791 -174 791 -174 815.5 -195.5 c 128,-1,36
 840 -217 840 -217 899 -217 c 1,37,-1
 899 -251 l 1,38,39
 873 -249 873 -249 823.5 -246.5 c 128,-1,40
 774 -244 774 -244 722 -244 c 0,41,42
 652 -244 652 -244 587 -246.5 c 128,-1,43
 522 -249 522 -249 486 -251 c 1,44,-1
 486 -217 l 1,45,46
 560 -217 560 -217 601.5 -193 c 128,-1,47
 643 -169 643 -169 643 -99 c 2,48,-1
 643 778 l 1,49,50
 666 801 666 801 687.5 824 c 128,-1,51
 709 847 709 847 731 870 c 128,-1,52
 753 893 753 893 774 915 c 1,29,-1
EndSplineSet
Validated: 5
EndChar

StartChar: r
Encoding: 114 114 85
Width: 728
GlyphClass: 2
Flags: W
LayerCount: 2
Fore
SplineSet
557 912 m 0,0,1
 601 912 601 912 634.5 894 c 128,-1,2
 668 876 668 876 687 847.5 c 128,-1,3
 706 819 706 819 706 783 c 0,4,5
 706 742 706 742 680.5 711 c 128,-1,6
 655 680 655 680 612 680 c 0,7,8
 578 680 578 680 552 702 c 128,-1,9
 526 724 526 724 526 765 c 0,10,11
 526 796 526 796 543 818 c 128,-1,12
 560 840 560 840 581 853 c 1,13,14
 570 870 570 870 547 870 c 0,15,16
 478 870 478 870 427.5 818 c 128,-1,17
 377 766 377 766 348 694 c 128,-1,18
 319 622 319 622 319 562 c 2,19,-1
 319 214 l 2,20,21
 319 134 319 134 366 107 c 128,-1,22
 413 80 413 80 493 80 c 1,23,-1
 493 46 l 1,24,25
 455 47 455 47 386.5 49.5 c 128,-1,26
 318 52 318 52 241 52 c 0,27,28
 185 52 185 52 130 49.5 c 128,-1,29
 75 47 75 47 47 46 c 1,30,-1
 47 80 l 1,31,32
 114 80 114 80 143 104.5 c 128,-1,33
 172 129 172 129 172 198 c 2,34,-1
 172 711 l 2,35,36
 172 784 172 784 145.5 819.5 c 128,-1,37
 119 855 119 855 47 855 c 1,38,-1
 47 889 l 1,39,40
 100 884 100 884 149 884 c 0,41,42
 196 884 196 884 239.5 890 c 128,-1,43
 283 896 283 896 319 907 c 1,44,-1
 319 702 l 1,45,46
 337 750 337 750 370.5 798.5 c 128,-1,47
 404 847 404 847 451.5 879.5 c 128,-1,48
 499 912 499 912 557 912 c 0,0,1
EndSplineSet
Validated: 1
EndChar

StartChar: s
Encoding: 115 115 86
Width: 732
GlyphClass: 2
Flags: W
LayerCount: 2
Fore
SplineSet
341 912 m 0,0,1
 406 912 406 912 452 891 c 128,-1,2
 498 870 498 870 519 852 c 0,3,4
 574 807 574 807 585 911 c 1,5,-1
 623 911 l 1,6,7
 619 865 619 865 617.5 802 c 128,-1,8
 616 739 616 739 616 632 c 1,9,-1
 578 632 l 1,10,11
 569 693 569 693 545 750 c 128,-1,12
 521 807 521 807 475 844 c 128,-1,13
 429 881 429 881 356 881 c 0,14,15
 298 881 298 881 259.5 849 c 128,-1,16
 221 817 221 817 221 755 c 0,17,18
 221 706 221 706 250.5 670.5 c 128,-1,19
 280 635 280 635 327.5 605 c 128,-1,20
 375 575 375 575 431 539 c 0,21,22
 524 478 524 478 589.5 416 c 128,-1,23
 655 354 655 354 655 252 c 0,24,25
 655 177 655 177 616 126 c 128,-1,26
 577 75 577 75 514 49 c 128,-1,27
 451 23 451 23 375 23 c 0,28,29
 339 23 339 23 307 28.5 c 128,-1,30
 275 34 275 34 246 46 c 0,31,32
 229 54 229 54 212 65.5 c 128,-1,33
 195 77 195 77 179 90 c 0,34,35
 162 103 162 103 149 89 c 128,-1,36
 136 75 136 75 130 34 c 1,37,-1
 92 34 l 1,38,39
 95 86 95 86 96.5 161.5 c 128,-1,40
 98 237 98 237 98 362 c 1,41,-1
 136 362 l 1,42,43
 148 270 148 270 169 201 c 128,-1,44
 190 132 190 132 236 93.5 c 128,-1,45
 282 55 282 55 364 55 c 0,46,47
 413 55 413 55 461.5 89.5 c 128,-1,48
 510 124 510 124 510 211 c 0,49,50
 510 283 510 283 457.5 329 c 128,-1,51
 405 375 405 375 325 426 c 0,52,53
 266 463 266 463 214 501 c 128,-1,54
 162 539 162 539 130 586.5 c 128,-1,55
 98 634 98 634 98 701 c 0,56,57
 98 775 98 775 132 821.5 c 128,-1,58
 166 868 166 868 221.5 890 c 128,-1,59
 277 912 277 912 341 912 c 0,0,1
EndSplineSet
Validated: 33
EndChar

StartChar: t
Encoding: 116 116 87
Width: 580
GlyphClass: 2
Flags: W
LayerCount: 2
Fore
SplineSet
311 1161 m 1,0,-1
 311 888 l 1,1,-1
 554 888 l 1,2,-1
 554 855 l 1,3,-1
 311 855 l 1,4,-1
 311 221 l 2,5,6
 311 144 311 144 339 113 c 128,-1,7
 367 82 367 82 416 82 c 256,8,9
 465 82 465 82 501 122 c 128,-1,10
 537 162 537 162 563 257 c 1,11,-1
 596 249 l 1,12,13
 580 154 580 154 531.5 88.5 c 128,-1,14
 483 23 483 23 383 23 c 0,15,16
 327 23 327 23 291 36.5 c 128,-1,17
 255 50 255 50 228 77 c 0,18,19
 191 114 191 114 177.5 166.5 c 128,-1,20
 164 219 164 219 164 306 c 2,21,-1
 164 855 l 1,22,-1
 6 855 l 1,23,-1
 6 888 l 1,24,-1
 164 888 l 1,25,-1
 164 1138 l 1,26,27
 205 1140 205 1140 242.5 1145 c 128,-1,28
 280 1150 280 1150 311 1161 c 1,0,-1
EndSplineSet
Validated: 1
EndChar

StartChar: u
Encoding: 117 117 88
Width: 952
GlyphClass: 2
Flags: W
LayerCount: 2
Fore
SplineSet
791 907 m 1,0,-1
 791 222 l 2,1,2
 791 149 791 149 818 113.5 c 128,-1,3
 845 78 845 78 916 78 c 1,4,-1
 916 44 l 1,5,6
 865 49 865 49 814 49 c 0,7,8
 767 49 767 49 723.5 44 c 128,-1,9
 680 39 680 39 644 26 c 1,10,-1
 644 219 l 1,11,12
 603 113 603 113 528.5 68 c 128,-1,13
 454 23 454 23 375 23 c 0,14,15
 318 23 318 23 275 39 c 128,-1,16
 232 55 232 55 205 85 c 0,17,18
 173 118 173 118 162 170 c 128,-1,19
 151 222 151 222 151 299 c 2,20,-1
 151 711 l 2,21,22
 151 784 151 784 124.5 819.5 c 128,-1,23
 98 855 98 855 26 855 c 1,24,-1
 26 889 l 1,25,26
 78 884 78 884 128 884 c 0,27,28
 175 884 175 884 218.5 890 c 128,-1,29
 262 896 262 896 298 907 c 1,30,-1
 298 263 l 2,31,32
 298 213 298 213 304.5 170 c 128,-1,33
 311 127 311 127 337.5 101 c 128,-1,34
 364 75 364 75 423 75 c 0,35,36
 519 75 519 75 581.5 161 c 128,-1,37
 644 247 644 247 644 372 c 2,38,-1
 644 711 l 2,39,40
 644 784 644 784 617.5 819.5 c 128,-1,41
 591 855 591 855 519 855 c 1,42,-1
 519 889 l 1,43,44
 572 884 572 884 621 884 c 0,45,46
 668 884 668 884 711.5 890 c 128,-1,47
 755 896 755 896 791 907 c 1,0,-1
EndSplineSet
Validated: 1
EndChar

StartChar: v
Encoding: 118 118 89
Width: 801
GlyphClass: 2
Flags: W
LayerCount: 2
Fore
SplineSet
796 889 m 1,0,-1
 796 857 l 1,1,2
 765 853 765 853 739 828.5 c 128,-1,3
 713 804 713 804 690 742 c 2,4,-1
 421 37 l 1,5,6
 415 37 415 37 408.5 37 c 128,-1,7
 402 37 402 37 393 37 c 1,8,-1
 92 763 l 2,9,10
 66 827 66 827 40.5 841 c 128,-1,11
 15 855 15 855 -3 855 c 1,12,-1
 -3 889 l 1,13,14
 30 888 30 888 65 885.5 c 128,-1,15
 100 883 100 883 141 883 c 0,16,17
 192 883 192 883 248.5 884.5 c 128,-1,18
 305 886 305 886 354 889 c 1,19,-1
 354 855 l 1,20,21
 313 855 313 855 281 849 c 128,-1,22
 249 843 249 843 240 817 c 128,-1,23
 231 791 231 791 256 727 c 2,24,-1
 461 221 l 1,25,-1
 451 213 l 1,26,-1
 638 702 l 2,27,28
 669 784 669 784 645 817 c 128,-1,29
 621 850 621 850 534 857 c 1,30,-1
 534 889 l 1,31,32
 577 888 577 888 605.5 886 c 128,-1,33
 634 884 634 884 672 884 c 256,34,35
 710 884 710 884 740 886 c 128,-1,36
 770 888 770 888 796 889 c 1,0,-1
EndSplineSet
Validated: 37
EndChar

StartChar: w
Encoding: 119 119 90
Width: 1261
GlyphClass: 2
Flags: W
LayerCount: 2
Fore
SplineSet
357 889 m 1,0,-1
 357 855 l 1,1,2
 316 855 316 855 285 849 c 128,-1,3
 254 843 254 843 244 815.5 c 128,-1,4
 234 788 234 788 258 717 c 2,5,-1
 429 229 l 1,6,-1
 417 231 l 1,7,-1
 658 896 l 1,8,-1
 691 883 l 1,9,-1
 391 37 l 1,10,11
 385 37 385 37 378.5 37 c 128,-1,12
 372 37 372 37 363 37 c 1,13,-1
 95 763 l 2,14,15
 68 829 68 829 43 842 c 128,-1,16
 18 855 18 855 0 855 c 1,17,-1
 0 889 l 1,18,19
 32 884 32 884 67.5 881.5 c 128,-1,20
 103 879 103 879 144 879 c 0,21,22
 195 879 195 879 251.5 882.5 c 128,-1,23
 308 886 308 886 357 889 c 1,0,-1
1256 889 m 1,24,-1
 1256 857 l 1,25,26
 1225 853 1225 853 1198 829.5 c 128,-1,27
 1171 806 1171 806 1150 742 c 2,28,-1
 912 37 l 1,29,30
 906 37 906 37 899.5 37 c 128,-1,31
 893 37 893 37 884 37 c 1,32,-1
 621 707 l 1,33,-1
 658 896 l 1,34,35
 668 896 668 896 677 896 c 128,-1,36
 686 896 686 896 696 896 c 1,37,-1
 952 219 l 1,38,-1
 938 209 l 1,39,-1
 1101 702 l 2,40,41
 1128 784 1128 784 1104.5 817 c 128,-1,42
 1081 850 1081 850 994 857 c 1,43,-1
 994 889 l 1,44,45
 1024 888 1024 888 1045 887 c 128,-1,46
 1066 886 1066 886 1086.5 885 c 128,-1,47
 1107 884 1107 884 1132 884 c 0,48,49
 1169 884 1169 884 1199.5 886 c 128,-1,50
 1230 888 1230 888 1256 889 c 1,24,-1
EndSplineSet
Validated: 37
EndChar

StartChar: x
Encoding: 120 120 91
Width: 851
GlyphClass: 2
Flags: W
LayerCount: 2
Fore
SplineSet
347 889 m 1,0,-1
 347 855 l 1,1,2
 316 855 316 855 295 840 c 128,-1,3
 274 825 274 825 290 799 c 2,4,-1
 727 162 l 2,5,6
 755 121 755 121 776.5 103.5 c 128,-1,7
 798 86 798 86 829 80 c 1,8,-1
 829 46 l 1,9,10
 813 47 813 47 779 49.5 c 128,-1,11
 745 52 745 52 713 52 c 0,12,13
 662 52 662 52 604 49.5 c 128,-1,14
 546 47 546 47 519 46 c 1,15,-1
 519 80 l 1,16,17
 552 80 552 80 573.5 95.5 c 128,-1,18
 595 111 595 111 577 136 c 2,19,-1
 139 773 l 2,20,21
 106 820 106 820 86.5 836 c 128,-1,22
 67 852 67 852 38 855 c 1,23,-1
 38 889 l 1,24,25
 54 888 54 888 88.5 885.5 c 128,-1,26
 123 883 123 883 154 883 c 0,27,28
 206 883 206 883 263.5 885.5 c 128,-1,29
 321 888 321 888 347 889 c 1,0,-1
392 473 m 1,30,31
 392 473 392 473 399 451 c 128,-1,32
 406 429 406 429 406 429 c 1,33,-1
 270 252 l 2,34,35
 228 196 228 196 225.5 158.5 c 128,-1,36
 223 121 223 121 255.5 102 c 128,-1,37
 288 83 288 83 346 78 c 1,38,-1
 346 46 l 1,39,40
 318 47 318 47 283.5 48 c 128,-1,41
 249 49 249 49 217 49.5 c 128,-1,42
 185 50 185 50 159 50 c 0,43,44
 87 50 87 50 34 46 c 1,45,-1
 34 78 l 1,46,47
 66 82 66 82 99.5 107 c 128,-1,48
 133 132 133 132 179 193 c 2,49,-1
 392 473 l 1,30,31
796 889 m 1,50,-1
 796 857 l 1,51,52
 765 853 765 853 728 824.5 c 128,-1,53
 691 796 691 796 652 742 c 2,54,-1
 464 481 l 1,55,56
 464 481 464 481 457.5 502.5 c 128,-1,57
 451 524 451 524 451 524 c 1,58,-1
 578 702 l 2,59,60
 632 780 632 780 626.5 815 c 128,-1,61
 621 850 621 850 534 857 c 1,62,-1
 534 889 l 1,63,64
 577 888 577 888 605.5 886 c 128,-1,65
 634 884 634 884 672 884 c 0,66,67
 745 884 745 884 796 889 c 1,50,-1
EndSplineSet
Validated: 37
EndChar

StartChar: y
Encoding: 121 121 92
Width: 826
GlyphClass: 2
Flags: W
LayerCount: 2
Fore
SplineSet
810 889 m 1,0,-1
 810 857 l 1,1,2
 778 853 778 853 752 828.5 c 128,-1,3
 726 804 726 804 703 742 c 2,4,-1
 434 37 l 1,5,-1
 407 37 l 1,6,-1
 105 763 l 1,7,8
 74 827 74 827 43.5 841 c 128,-1,9
 13 855 13 855 -6 855 c 1,10,-1
 -6 889 l 1,11,12
 30 884 30 884 69 881.5 c 128,-1,13
 108 879 108 879 154 879 c 0,14,15
 205 879 205 879 261.5 882.5 c 128,-1,16
 318 886 318 886 367 889 c 1,17,-1
 367 855 l 1,18,19
 326 855 326 855 294 849 c 128,-1,20
 262 843 262 843 254 814.5 c 128,-1,21
 246 786 246 786 274 717 c 2,22,-1
 475 218 l 1,23,-1
 466 214 l 1,24,-1
 652 702 l 2,25,26
 683 784 683 784 658.5 817 c 128,-1,27
 634 850 634 850 547 857 c 1,28,-1
 547 889 l 1,29,30
 590 888 590 888 618.5 886 c 128,-1,31
 647 884 647 884 685 884 c 256,32,33
 723 884 723 884 753 886 c 128,-1,34
 783 888 783 888 810 889 c 1,0,-1
434 37 m 1,35,-1
 379 -105 l 2,36,37
 348 -186 348 -186 308 -220 c 0,38,39
 282 -244 282 -244 246 -253.5 c 128,-1,40
 210 -263 210 -263 180 -263 c 0,41,42
 149 -263 149 -263 124 -251.5 c 128,-1,43
 99 -240 99 -240 84 -217.5 c 128,-1,44
 69 -195 69 -195 69 -164 c 0,45,46
 69 -125 69 -125 92 -101 c 128,-1,47
 115 -77 115 -77 156 -77 c 0,48,49
 190 -77 190 -77 214.5 -97 c 128,-1,50
 239 -117 239 -117 239 -154 c 0,51,52
 239 -182 239 -182 226 -200 c 128,-1,53
 213 -218 213 -218 195 -228 c 1,54,55
 198 -230 198 -230 200.5 -230 c 128,-1,56
 203 -230 203 -230 205 -230 c 0,57,58
 249 -230 249 -230 283.5 -199.5 c 128,-1,59
 318 -169 318 -169 344 -102 c 2,60,-1
 403 50 l 1,61,-1
 434 37 l 1,35,-1
EndSplineSet
Validated: 37
EndChar

StartChar: z
Encoding: 122 122 93
Width: 780
GlyphClass: 2
Flags: W
LayerCount: 2
Fore
SplineSet
719 897 m 1,0,-1
 245 70 l 1,1,-1
 425 70 l 2,2,3
 491 70 491 70 539.5 96.5 c 128,-1,4
 588 123 588 123 617.5 181 c 128,-1,5
 647 239 647 239 653 334 c 1,6,-1
 691 334 l 1,7,8
 691 229 691 229 692.5 157 c 128,-1,9
 694 85 694 85 697 39 c 1,10,11
 625 42 625 42 547.5 44 c 128,-1,12
 470 46 470 46 393 46 c 0,13,14
 311 46 311 46 225.5 43.5 c 128,-1,15
 140 41 140 41 62 37 c 1,16,-1
 535 865 l 1,17,-1
 355 865 l 2,18,19
 283 865 283 865 234.5 838.5 c 128,-1,20
 186 812 186 812 160.5 754 c 128,-1,21
 135 696 135 696 127 601 c 1,22,-1
 90 601 l 1,23,24
 90 707 90 707 88 778.5 c 128,-1,25
 86 850 86 850 83 896 c 1,26,27
 155 893 155 893 233 891 c 128,-1,28
 311 889 311 889 388 889 c 0,29,30
 470 889 470 889 555 891.5 c 128,-1,31
 640 894 640 894 719 897 c 1,0,-1
EndSplineSet
Validated: 1
EndChar

StartChar: braceleft
Encoding: 123 123 94
Width: 649
GlyphClass: 2
Flags: W
LayerCount: 2
Fore
SplineSet
580 1364 m 1,0,-1
 580 1325 l 1,1,2
 512 1323 512 1323 477 1302.5 c 128,-1,3
 442 1282 442 1282 429 1218.5 c 128,-1,4
 416 1155 416 1155 416 1026 c 0,5,6
 416 879 416 879 375 798 c 128,-1,7
 334 717 334 717 267.5 681 c 128,-1,8
 201 645 201 645 123 627 c 1,9,10
 201 610 201 610 267.5 573.5 c 128,-1,11
 334 537 334 537 375 457 c 128,-1,12
 416 377 416 377 416 227 c 0,13,14
 416 96 416 96 429 31.5 c 128,-1,15
 442 -33 442 -33 477 -55.5 c 128,-1,16
 512 -78 512 -78 580 -80 c 1,17,-1
 580 -119 l 1,18,19
 385 -119 385 -119 308 -40 c 128,-1,20
 231 39 231 39 231 227 c 0,21,22
 231 379 231 379 218 460 c 128,-1,23
 205 541 205 541 172 572.5 c 128,-1,24
 139 604 139 604 76 608 c 1,25,-1
 66 608 l 1,26,-1
 66 645 l 1,27,-1
 76 645 l 1,28,29
 139 649 139 649 172 681 c 128,-1,30
 205 713 205 713 218 793.5 c 128,-1,31
 231 874 231 874 231 1026 c 0,32,33
 231 1212 231 1212 308 1288 c 128,-1,34
 385 1364 385 1364 580 1364 c 1,0,-1
EndSplineSet
Validated: 1
EndChar

StartChar: bar
Encoding: 124 124 95
Width: 383
GlyphClass: 2
Flags: W
LayerCount: 2
Fore
SplineSet
116 -69 m 1,0,-1
 116 1103 l 1,1,-1
 287 1172 l 1,2,-1
 287 0 l 1,3,-1
 116 -69 l 1,0,-1
EndSplineSet
Validated: 1
EndChar

StartChar: braceright
Encoding: 125 125 96
Width: 649
GlyphClass: 2
Flags: W
LayerCount: 2
Fore
SplineSet
70 1364 m 1,0,-1
 70 1325 l 1,1,2
 137 1323 137 1323 172 1302.5 c 128,-1,3
 207 1282 207 1282 220 1218.5 c 128,-1,4
 233 1155 233 1155 233 1026 c 0,5,6
 233 879 233 879 274 798 c 128,-1,7
 315 717 315 717 382 681 c 128,-1,8
 449 645 449 645 526 627 c 1,9,10
 449 610 449 610 382 573.5 c 128,-1,11
 315 537 315 537 274 457 c 128,-1,12
 233 377 233 377 233 227 c 0,13,14
 233 96 233 96 220 31.5 c 128,-1,15
 207 -33 207 -33 172 -55.5 c 128,-1,16
 137 -78 137 -78 70 -80 c 1,17,-1
 70 -119 l 1,18,19
 264 -119 264 -119 341 -40 c 128,-1,20
 418 39 418 39 418 227 c 0,21,22
 418 379 418 379 431 460 c 128,-1,23
 444 541 444 541 477 572.5 c 128,-1,24
 510 604 510 604 573 608 c 1,25,-1
 584 608 l 1,26,-1
 584 645 l 1,27,-1
 573 645 l 1,28,29
 510 649 510 649 477 681 c 128,-1,30
 444 713 444 713 431 793.5 c 128,-1,31
 418 874 418 874 418 1026 c 0,32,33
 418 1212 418 1212 341 1288 c 128,-1,34
 264 1364 264 1364 70 1364 c 1,0,-1
EndSplineSet
Validated: 9
EndChar

StartChar: asciitilde
Encoding: 126 126 97
Width: 1329
GlyphClass: 2
Flags: W
LayerCount: 2
Fore
SplineSet
440 748 m 0,0,1
 516 748 516 748 580.5 724 c 128,-1,2
 645 700 645 700 705.5 668.5 c 128,-1,3
 766 637 766 637 828.5 613.5 c 128,-1,4
 891 590 891 590 961 590 c 0,5,6
 1022 590 1022 590 1070 616.5 c 128,-1,7
 1118 643 1118 643 1145 709 c 1,8,-1
 1180 698 l 1,9,10
 1167 598 1167 598 1083 539.5 c 128,-1,11
 999 481 999 481 891 481 c 0,12,13
 815 481 815 481 750.5 504.5 c 128,-1,14
 686 528 686 528 625.5 560 c 128,-1,15
 565 592 565 592 503.5 615.5 c 128,-1,16
 442 639 442 639 371 639 c 0,17,18
 309 639 309 639 262 612.5 c 128,-1,19
 215 586 215 586 186 520 c 1,20,-1
 152 530 l 1,21,22
 164 633 164 633 248 690.5 c 128,-1,23
 332 748 332 748 440 748 c 0,0,1
EndSplineSet
Validated: 1
EndChar

StartChar: om-deva
Encoding: 2384 2384 98
Width: 1947
GlyphClass: 2
Flags: W
LayerCount: 2
Fore
SplineSet
266 716 m 0,0,1
 295 717 295 717 325 736 c 0,2,3
 348 751 348 751 353 767 c 0,4,5
 356 778 356 778 356 788 c 0,6,7
 356 801 356 801 351 815 c 0,8,9
 344 833 344 833 331 844 c 2,10,-1
 328 847 l 1,11,12
 226 797 226 797 225 753 c 0,13,14
 226 739 226 739 235 727 c 0,15,16
 247 716 247 716 266 716 c 0,0,1
458 -1 m 0,17,18
 289 0 289 0 222 69 c 0,19,20
 178 111 178 111 178 187 c 0,21,22
 179 277 179 277 260 329 c 0,23,24
 323 367 323 367 397 367 c 0,25,26
 410 367 410 367 435 365 c 0,27,28
 550 348 550 348 589 260 c 0,29,30
 603 227 603 227 603 192 c 0,31,32
 603 169 603 169 599 155 c 1,33,34
 724 157 724 157 807 220 c 0,35,36
 876 273 876 273 877 327 c 0,37,38
 875 400 875 400 772 424 c 0,39,40
 737 433 737 433 680 433 c 0,41,42
 637 433 637 433 599 429 c 0,43,44
 534 425 534 425 460 412 c 1,45,-1
 451 411 l 1,46,47
 448 428 448 428 445 463 c 0,48,49
 440 521 440 521 435 553 c 2,50,-1
 434 563 l 1,51,52
 479 568 479 568 500 573 c 0,53,54
 593 589 593 589 661 610 c 0,55,56
 709 624 709 624 715 629 c 0,57,58
 755 643 755 643 778 660 c 0,59,60
 847 710 847 710 847 774 c 0,61,62
 847 806 847 806 826 834 c 0,63,64
 790 878 790 878 729 894 c 0,65,66
 678 907 678 907 611 907 c 0,67,68
 540 907 540 907 470 893 c 1,69,70
 472 890 472 890 475 885 c 0,71,72
 480 876 480 876 485 866 c 2,73,-1
 487 861 l 2,74,75
 504 814 504 814 504 779 c 0,76,77
 503 706 503 706 441 646 c 0,78,79
 398 606 398 606 334 586 c 0,80,81
 284 572 284 572 246 572 c 0,82,83
 175 573 175 573 127 616 c 1,84,85
 83 661 83 661 83 726 c 0,86,87
 83 764 83 764 100 805 c 0,88,89
 134 881 134 881 199 930 c 1,90,91
 318 1032 318 1032 549 1049 c 0,92,93
 587 1051 587 1051 606 1051 c 0,94,95
 860 1050 860 1050 951 914 c 0,96,97
 996 840 996 840 996 767 c 0,98,99
 996 715 996 715 972 663 c 0,100,101
 932 577 932 577 859 544 c 1,102,103
 861 543 861 543 877 536 c 0,104,105
 896 528 896 528 909 523 c 0,106,107
 985 486 985 486 1014 410 c 0,108,109
 1029 372 1029 372 1029 332 c 0,110,111
 1029 284 1029 284 1007 236 c 0,112,113
 962 140 962 140 859 94 c 1,114,115
 818 69 818 69 754 48 c 0,116,117
 694 27 694 27 618 13 c 0,118,119
 541 -1 541 -1 458 -1 c 0,17,18
423 144 m 2,120,-1
 454 145 l 1,121,122
 462 160 462 160 462 174 c 0,123,124
 462 186 462 186 456 199 c 0,125,126
 441 227 441 227 402 227 c 0,127,128
 388 227 388 227 364 222 c 0,129,130
 330 214 330 214 322 191 c 0,131,132
 319 183 319 183 319 178 c 0,133,134
 320 170 320 170 325 165 c 0,135,136
 360 144 360 144 423 144 c 2,120,-1
1476 131 m 2,137,138
 1587 132 1587 132 1661 228 c 0,139,140
 1728 317 1728 317 1728 452 c 0,141,142
 1728 483 1728 483 1725 514 c 0,143,144
 1713 599 1713 599 1692 638 c 0,145,146
 1656 704 1656 704 1638 723 c 0,147,148
 1573 790 1573 790 1477 790 c 0,149,150
 1369 789 1369 789 1296 712 c 0,151,152
 1213 622 1213 622 1213 471 c 0,153,154
 1214 316 1214 316 1290 221 c 0,155,156
 1364 131 1364 131 1474 131 c 2,157,-1
 1476 131 l 2,137,138
1472 -6 m 0,158,159
 1315 -5 1315 -5 1206 90 c 0,160,161
 1122 164 1122 164 1090 282 c 0,162,163
 1062 380 1062 380 1062 476 c 0,164,165
 1063 635 1063 635 1142 752 c 0,166,167
 1254 916 1254 916 1465 927 c 1,168,-1
 1474 927 l 2,169,170
 1652 926 1652 926 1752 821 c 0,171,172
 1852 713 1852 713 1872 545 c 0,173,174
 1874 534 1874 534 1875 519 c 0,175,176
 1878 487 1878 487 1878 434 c 0,177,178
 1877 281 1877 281 1790 153 c 0,179,180
 1682 -6 1682 -6 1472 -6 c 0,158,159
EndSplineSet
Validated: 513
EndChar

StartChar: devanagaridanda
Encoding: 2404 2404 99
Width: 383
GlyphClass: 2
Flags: W
LayerCount: 2
Fore
SplineSet
116 -69 m 1,0,-1
 116 1103 l 1,1,-1
 287 1172 l 1,2,-1
 287 0 l 1,3,-1
 116 -69 l 1,0,-1
EndSplineSet
Validated: 1
EndChar

StartChar: devanagaridoubledanda
Encoding: 2405 2405 100
Width: 725
GlyphClass: 2
Flags: W
LayerCount: 2
Fore
SplineSet
467 -69 m 1,0,-1
 467 1103 l 1,1,-1
 638 1172 l 1,2,-1
 638 0 l 1,3,-1
 467 -69 l 1,0,-1
116 -69 m 1,4,-1
 116 1103 l 1,5,-1
 287 1172 l 1,6,-1
 287 0 l 1,7,-1
 116 -69 l 1,4,-1
EndSplineSet
Validated: 1
EndChar

StartChar: signcandrabinducomb-mlym
Encoding: 3329 3329 101
Width: 780
GlyphClass: 2
Flags: W
LayerCount: 2
Fore
SplineSet
253 1149 m 0,0,1
 96 1150 96 1150 -19 1246 c 0,2,3
 -143 1352 -143 1352 -187 1545 c 1,4,-1
 -42 1585 l 1,5,6
 -8 1469 -8 1469 52 1399 c 0,7,8
 135 1303 135 1303 263 1303 c 0,9,10
 361 1304 361 1304 435 1371 c 0,11,12
 515 1444 515 1444 555 1585 c 1,13,-1
 704 1540 l 1,14,15
 660 1357 660 1357 547 1256 c 0,16,17
 426 1149 426 1149 253 1149 c 0,0,1
256 1381 m 0,18,19
 206 1382 206 1382 173 1416 c 0,20,21
 139 1451 139 1451 139 1503 c 0,22,23
 140 1557 140 1557 173 1591 c 0,24,25
 207 1626 207 1626 256 1626 c 0,26,27
 306 1625 306 1625 341 1591 c 0,28,29
 375 1555 375 1555 375 1503 c 0,30,31
 374 1452 374 1452 341 1417 c 0,32,33
 306 1381 306 1381 256 1381 c 0,18,19
EndSplineSet
Validated: 513
EndChar

StartChar: signanusvara-mlym
Encoding: 3330 3330 102
Width: 907
GlyphClass: 2
Flags: W
LayerCount: 2
Fore
SplineSet
498 131 m 2,0,1
 609 132 609 132 683 228 c 0,2,3
 750 317 750 317 750 452 c 0,4,5
 750 483 750 483 747 514 c 0,6,7
 735 599 735 599 714 638 c 0,8,9
 678 704 678 704 660 723 c 0,10,11
 595 790 595 790 499 790 c 0,12,13
 391 789 391 789 318 712 c 0,14,15
 235 622 235 622 235 471 c 0,16,17
 236 316 236 316 312 221 c 0,18,19
 386 131 386 131 496 131 c 2,20,-1
 498 131 l 2,0,1
494 -6 m 0,21,22
 337 -5 337 -5 228 90 c 0,23,24
 144 164 144 164 112 282 c 0,25,26
 84 380 84 380 84 476 c 0,27,28
 85 635 85 635 164 752 c 0,29,30
 276 916 276 916 487 927 c 1,31,-1
 496 927 l 2,32,33
 674 926 674 926 774 821 c 0,34,35
 874 713 874 713 894 545 c 0,36,37
 896 534 896 534 897 519 c 0,38,39
 900 487 900 487 900 434 c 0,40,41
 899 281 899 281 812 153 c 0,42,43
 704 -6 704 -6 494 -6 c 0,21,22
EndSplineSet
Validated: 513
Ligature2: "'pstf' Post Base Forms in Malay+AQEA-lam lookup 18 subtable" signanusvara-mlym
EndChar

StartChar: signvisarga-mlym
Encoding: 3331 3331 103
Width: 559
GlyphClass: 2
Flags: W
LayerCount: 2
Fore
SplineSet
303 530 m 0,0,1
 226 531 226 531 167 589 c 0,2,3
 96 661 96 661 96 796 c 0,4,5
 97 880 97 880 134 945 c 0,6,7
 192 1039 192 1039 300 1044 c 1,8,9
 393 1043 393 1043 442 987 c 0,10,11
 493 928 493 928 506 833 c 2,12,-1
 508 819 l 1,13,-1
 509 776 l 2,14,15
 508 691 508 691 464 619 c 0,16,17
 407 531 407 531 303 530 c 0,0,1
305 667 m 2,18,19
 335 668 335 668 357 700 c 256,20,21
 379 732 379 732 379 787 c 0,22,23
 379 836 379 836 367 860 c 0,24,25
 353 890 353 890 347 896 c 0,26,27
 329 913 329 913 307 913 c 0,28,29
 275 912 275 912 256 888 c 0,30,31
 229 856 229 856 229 796 c 0,32,33
 230 733 230 733 255 696 c 0,34,35
 276 668 276 668 303 667 c 2,36,-1
 305 667 l 2,18,19
302 -21 m 0,37,38
 223 -20 223 -20 167 34 c 0,39,40
 96 106 96 106 96 241 c 0,41,42
 97 325 97 325 134 390 c 0,43,44
 192 484 192 484 300 490 c 1,45,46
 392 489 392 489 443 431 c 0,47,48
 506 360 506 360 506 278 c 1,49,-1
 508 264 l 1,50,-1
 509 222 l 2,51,52
 509 136 509 136 464 66 c 0,53,54
 418 -4 418 -4 339 -18 c 0,55,56
 320 -21 320 -21 302 -21 c 0,37,38
305 112 m 0,57,58
 335 112 335 112 356 142 c 0,59,60
 379 178 379 178 379 232 c 0,61,62
 379 280 379 280 367 304 c 0,63,64
 352 336 352 336 351 338 c 0,65,66
 348 340 348 340 339 348 c 0,67,68
 324 358 324 358 305 358 c 0,69,70
 277 357 277 357 256 332 c 0,71,72
 229 300 229 300 229 237 c 0,73,74
 230 178 230 178 255 140 c 0,75,76
 275 113 275 113 305 112 c 0,57,58
EndSplineSet
Validated: 513
Ligature2: "'pstf' Post Base Forms in Malay+AQEA-lam lookup 18 subtable" signvisarga-mlym
EndChar

StartChar: a-mlym
Encoding: 3333 3333 104
Width: 2068
GlyphClass: 2
Flags: W
LayerCount: 2
Fore
SplineSet
1018 138 m 0,0,1
 1093 140 1093 140 1094 196 c 2,2,-1
 1094 204 l 1,3,4
 1088 254 1088 254 1044 268 c 0,5,6
 1016 277 1016 277 960 277 c 0,7,8
 942 277 942 277 897 275 c 1,9,10
 901 201 901 201 947 163 c 0,11,12
 979 138 979 138 1018 138 c 0,0,1
1699 143 m 0,13,14
 1720 143 1720 143 1746 154 c 0,15,16
 1777 169 1777 169 1802 240 c 0,17,18
 1823 302 1823 302 1823 353 c 2,19,-1
 1822 373 l 1,20,21
 1801 397 1801 397 1755 397 c 0,22,23
 1669 396 1669 396 1640 342 c 0,24,25
 1615 295 1615 295 1615 253 c 0,26,27
 1616 219 1616 219 1632 188 c 0,28,29
 1658 144 1658 144 1699 143 c 0,13,14
1683 -1 m 1,30,31
 1564 11 1564 11 1516 95 c 0,32,33
 1482 153 1482 153 1482 234 c 0,34,35
 1482 273 1482 273 1489 310 c 0,36,37
 1509 419 1509 419 1597 482 c 0,38,39
 1660 526 1660 526 1748 526 c 0,40,41
 1784 526 1784 526 1830 518 c 1,42,-1
 1828 567 l 1,43,44
 1805 730 1805 730 1744 811 c 0,45,46
 1697 871 1697 871 1631 872 c 0,47,48
 1552 871 1552 871 1498 795 c 0,49,50
 1462 743 1462 743 1448 682 c 0,51,52
 1423 580 1423 580 1423 500 c 1,53,-1
 1271 501 l 1,54,-1
 1272 551 l 1,55,56
 1271 796 1271 796 1144 858 c 0,57,58
 1110 874 1110 874 1079 874 c 0,59,60
 1026 873 1026 873 982 828 c 0,61,62
 972 818 972 818 964 807 c 0,63,64
 915 738 915 738 894 628 c 0,65,66
 881 562 881 562 881 497 c 0,67,68
 881 453 881 453 887 411 c 1,69,70
 922 414 922 414 952 414 c 0,71,72
 1056 414 1056 414 1123 381 c 0,73,74
 1212 336 1212 336 1227 252 c 0,75,76
 1234 221 1234 221 1234 190 c 0,77,78
 1234 114 1234 114 1186 64 c 0,79,80
 1121 0 1121 0 1017 0 c 0,81,82
 919 1 919 1 841 69 c 0,83,84
 768 134 768 134 753 271 c 1,85,-1
 732 270 l 2,86,87
 634 263 634 263 407 257 c 0,88,89
 304 253 304 253 227 253 c 0,90,91
 173 253 173 253 156 256 c 0,92,93
 125 261 125 261 124 294 c 0,94,95
 125 335 125 335 164 350 c 0,96,97
 351 418 351 418 389 439 c 1,98,99
 430 456 430 456 449 472 c 0,100,101
 452 475 452 475 460 482 c 0,102,103
 467 489 467 489 471 492 c 0,104,105
 485 505 485 505 492 517 c 0,106,107
 506 542 506 542 506 562 c 0,108,109
 505 586 505 586 486 607 c 0,110,111
 467 634 467 634 394 634 c 0,112,113
 303 633 303 633 239 583 c 2,114,-1
 196 547 l 1,115,116
 178 569 178 569 146.5 613 c 128,-1,117
 115 657 115 657 114 659 c 0,118,119
 158 696 158 696 185 714 c 0,120,121
 214 733 214 733 276 753 c 0,122,123
 337 772 337 772 412 772 c 1,124,125
 555 764 555 764 619 672 c 0,126,127
 652 626 652 626 652 565 c 0,128,129
 652 554 652 554 650 533 c 0,130,131
 639 451 639 451 580 401 c 1,132,-1
 746 412 l 1,133,134
 743 459 743 459 743 500 c 0,135,136
 743 593 743 593 757 672 c 0,137,138
 777 783 777 783 811 848 c 0,139,140
 847 913 847 913 896 953 c 0,141,142
 947 994 947 994 992 1007 c 0,143,144
 1044 1021 1044 1021 1100 1021 c 0,145,146
 1164 1021 1164 1021 1213 1003 c 0,147,148
 1266 983 1266 983 1296 946 c 0,149,150
 1325 909 1325 909 1341 878 c 0,151,152
 1357 842 1357 842 1366 809 c 1,153,154
 1400 920 1400 920 1477 972 c 0,155,156
 1550 1021 1550 1021 1640 1021 c 2,157,-1
 1650 1021 l 2,158,159
 1737 1021 1737 1021 1803 967 c 0,160,161
 1869 911 1869 911 1903 827 c 0,162,163
 1970 661 1970 661 1970 481 c 2,164,-1
 1971 435 l 2,165,166
 1971 378 1971 378 1963 319 c 0,167,168
 1953 247 1953 247 1925 169 c 0,169,170
 1896 94 1896 94 1835 47 c 0,171,172
 1773 1 1773 1 1683 -1 c 1,30,31
EndSplineSet
Validated: 513
EndChar

StartChar: aa-mlym
Encoding: 3334 3334 105
Width: 2153
GlyphClass: 2
Flags: W
LayerCount: 2
Fore
SplineSet
997 138 m 0,0,1
 1072 140 1072 140 1073 196 c 0,2,3
 1072 253 1072 253 1024 268 c 0,4,5
 994 278 994 278 933 278 c 0,6,7
 917 278 917 278 876 276 c 1,8,9
 880 202 880 202 926 164 c 0,10,11
 959 138 959 138 997 138 c 0,0,1
1641 -219 m 2,12,-1
 860 -219 l 1,13,-1
 858 -75 l 1,14,-1
 1603 -75 l 2,15,16
 1773 -75 1773 -75 1814 -63 c 0,17,18
 1898 -39 1898 -39 1916 82 c 0,19,20
 1921 121 1921 121 1921 150 c 0,21,22
 1921 182 1921 182 1917 206 c 1,23,24
 1850 0 1850 0 1662 -1 c 1,25,26
 1544 10 1544 10 1495 96 c 0,27,28
 1461 154 1461 154 1461 234 c 0,29,30
 1461 273 1461 273 1468 310 c 0,31,32
 1488 419 1488 419 1577 482 c 0,33,34
 1640 526 1640 526 1729 526 c 0,35,36
 1764 526 1764 526 1810 518 c 1,37,38
 1810 543 1810 543 1808 567 c 0,39,40
 1785 728 1785 728 1723 812 c 0,41,42
 1676 872 1676 872 1612 872 c 0,43,44
 1587 872 1587 872 1564 865 c 0,45,46
 1512 845 1512 845 1477 795 c 0,47,48
 1441 741 1441 741 1428 682 c 0,49,50
 1412 617 1412 617 1408 578 c 0,51,52
 1403 529 1403 529 1403 500 c 1,53,-1
 1250 501 l 1,54,-1
 1251 554 l 1,55,56
 1250 796 1250 796 1123 858 c 0,57,58
 1089 874 1089 874 1058 874 c 0,59,60
 1005 873 1005 873 961 828 c 0,61,62
 953 820 953 820 944 807 c 0,63,64
 895 738 895 738 874 628 c 0,65,66
 861 562 861 562 861 497 c 0,67,68
 861 453 861 453 867 411 c 1,69,70
 902 414 902 414 932 414 c 0,71,72
 1036 414 1036 414 1103 381 c 0,73,74
 1190 337 1190 337 1206 253 c 0,75,76
 1213 222 1213 222 1213 191 c 0,77,78
 1213 114 1213 114 1165 65 c 0,79,80
 1101 0 1101 0 995 0 c 0,81,82
 898 1 898 1 821 70 c 0,83,84
 748 135 748 135 733 271 c 1,85,-1
 712 270 l 2,86,87
 579 261 579 261 386 257 c 0,88,89
 267 254 267 254 205 254 c 0,90,91
 156 254 156 254 136 256 c 0,92,93
 105 261 105 261 104 294 c 0,94,95
 104 338 104 338 143 351 c 0,96,97
 276 397 276 397 331 422 c 0,98,99
 337 425 337 425 348 429 c 0,100,101
 357 434 357 434 360 435 c 0,102,103
 372 440 372 440 385 447 c 0,104,105
 402 454 402 454 412 462 c 0,106,107
 443 483 443 483 455 496 c 0,108,109
 485 530 485 530 485 562 c 0,110,111
 484 588 484 588 466 608 c 0,112,113
 447 635 447 635 374 635 c 0,114,115
 283 634 283 634 219 584 c 2,116,-1
 176 547 l 1,117,118
 154 576 154 576 125 616 c 0,119,120
 121 621 121 621 117.5 626.5 c 128,-1,121
 114 632 114 632 111 636 c 128,-1,122
 108 640 108 640 105 643.5 c 128,-1,123
 102 647 102 647 100.5 649.5 c 128,-1,124
 99 652 99 652 97.5 654 c 128,-1,125
 96 656 96 656 95 658 c 2,126,-1
 94 659 l 1,127,128
 140 698 140 698 164 715 c 0,129,130
 195 734 195 734 256 754 c 0,131,132
 314 772 314 772 385 772 c 2,133,-1
 392 772 l 1,134,135
 535 764 535 764 598 673 c 0,136,137
 631 627 631 627 631 566 c 0,138,139
 631 555 631 555 629 534 c 0,140,141
 618 451 618 451 559 402 c 1,142,143
 616 406 616 406 725 412 c 1,144,145
 722 459 722 459 722 500 c 0,146,147
 722 592 722 592 736 673 c 0,148,149
 756 784 756 784 790 849 c 0,150,151
 825 913 825 913 875 953 c 0,152,153
 927 994 927 994 972 1007 c 0,154,155
 1024 1022 1024 1022 1080 1022 c 0,156,157
 1144 1022 1144 1022 1193 1004 c 0,158,159
 1245 984 1245 984 1276 946 c 0,160,161
 1305 907 1305 907 1320 878 c 0,162,163
 1336 842 1336 842 1345 809 c 1,164,165
 1379 920 1379 920 1457 972 c 0,166,167
 1530 1021 1530 1021 1616 1021 c 2,168,-1
 1629 1021 l 2,169,170
 1716 1021 1716 1021 1782 967 c 0,171,172
 1848 911 1848 911 1882 827 c 0,173,174
 1949 661 1949 661 1949 482 c 2,175,-1
 1949 472 l 1,176,-1
 1949 455 l 1,177,178
 2029 378 2029 378 2059 242 c 0,179,180
 2066 212 2066 212 2066 161 c 0,181,182
 2066 125 2066 125 2061 64 c 0,183,184
 2052 -21 2052 -21 1998 -106 c 0,185,186
 1936 -204 1936 -204 1804 -215 c 0,187,188
 1746 -219 1746 -219 1641 -219 c 2,12,-1
1678 143 m 0,189,190
 1699 143 1699 143 1725 154 c 0,191,192
 1756 169 1756 169 1781 240 c 0,193,194
 1803 301 1803 301 1803 353 c 2,195,-1
 1802 373 l 1,196,197
 1781 397 1781 397 1735 397 c 2,198,-1
 1711 396 l 1,199,200
 1644 388 1644 388 1619 341 c 0,201,202
 1595 294 1595 294 1595 253 c 0,203,204
 1596 219 1596 219 1612 188 c 0,205,206
 1636 143 1636 143 1678 143 c 0,189,190
EndSplineSet
Validated: 513
EndChar

StartChar: i-mlym
Encoding: 3335 3335 106
Width: 1395
GlyphClass: 2
Flags: W
LayerCount: 2
Fore
SplineSet
295 696 m 2,0,1
 319 697 319 697 334 722 c 0,2,3
 349 748 349 748 349 780 c 0,4,5
 348 812 348 812 312 854 c 1,6,7
 283 853 283 853 265 830 c 0,8,9
 246 806 246 806 246 775 c 0,10,11
 247 697 247 697 294 696 c 2,12,-1
 295 696 l 2,0,1
1099 0 m 1,13,-1
 856 0 l 2,14,15
 776 0 776 0 748 42 c 0,16,17
 731 69 731 69 731 94 c 0,18,19
 731 114 731 114 740 136 c 0,20,21
 755 174 755 174 772 199 c 0,22,23
 798 239 798 239 902 361 c 0,24,25
 1005 483 1005 483 1064 576 c 0,26,27
 1120 666 1120 666 1120 730 c 0,28,29
 1119 814 1119 814 1077 854 c 0,30,31
 1037 890 1037 890 971 890 c 2,32,-1
 958 890 l 2,33,34
 893 889 893 889 834 828 c 0,35,36
 766 756 766 756 766 662 c 1,37,-1
 767 641 l 1,38,-1
 622 641 l 1,39,-1
 619 695 l 2,40,41
 615 782 615 782 567 838 c 0,42,43
 529 881 529 881 489 882 c 0,44,45
 476 882 476 882 466 878 c 1,46,47
 492 810 492 810 493 776 c 0,48,49
 495 752 495 752 495 741 c 0,50,51
 494 616 494 616 386 568 c 0,52,53
 339 548 339 548 299 548 c 0,54,55
 236 549 236 549 179 592 c 0,56,57
 104 649 104 649 104 754 c 0,58,59
 104 782 104 782 108 806 c 0,60,61
 121 909 121 909 202 970 c 0,62,63
 283 1029 283 1029 398 1034 c 1,64,-1
 404 1034 l 2,65,66
 643 1033 643 1033 696 868 c 1,67,68
 739 962 739 962 825 1004 c 0,69,70
 895 1037 895 1037 964 1037 c 0,71,72
 977 1037 977 1037 1000 1035 c 0,73,74
 1089 1022 1089 1022 1164 968 c 0,75,76
 1239 911 1239 911 1260 831 c 0,77,78
 1272 801 1272 801 1272 747 c 0,79,80
 1271 571 1271 571 1060 327 c 0,81,82
 1038 303 1038 303 962 203 c 0,83,84
 940 174 940 174 939 161 c 0,85,86
 941 138 941 138 1026 138 c 0,87,88
 1028 138 1028 138 1041 138 c 0,89,90
 1079 139 1079 139 1110 140 c 0,91,92
 1184 142 1184 142 1222 146 c 1,93,94
 1224 127 1224 127 1224 79 c 0,95,96
 1224 18 1224 18 1225 5 c 1,97,-1
 1099 0 l 1,13,-1
EndSplineSet
Validated: 513
EndChar

StartChar: ii-mlym
Encoding: 3336 3336 107
Width: 2184
GlyphClass: 2
Flags: W
LayerCount: 2
Fore
SplineSet
263 696 m 2,0,1
 287 697 287 697 302 722 c 0,2,3
 317 748 317 748 317 780 c 0,4,5
 316 812 316 812 280 854 c 1,6,7
 251 853 251 853 233 830 c 0,8,9
 215 805 215 805 215 775 c 0,10,11
 216 697 216 697 262 696 c 2,12,-1
 263 696 l 2,0,1
1067 0 m 1,13,-1
 824 0 l 2,14,15
 744 0 744 0 716 42 c 0,16,17
 699 69 699 69 699 94 c 0,18,19
 699 114 699 114 708 136 c 0,20,21
 722 170 722 170 741 199 c 0,22,23
 767 239 767 239 871 361 c 0,24,25
 970 478 970 478 1032 576 c 0,26,27
 1088 666 1088 666 1088 730 c 0,28,29
 1087 813 1087 813 1046 854 c 0,30,31
 1006 890 1006 890 940 890 c 2,32,-1
 927 890 l 2,33,34
 861 889 861 889 802 828 c 0,35,36
 734 756 734 756 734 657 c 1,37,-1
 735 635 l 1,38,-1
 590 635 l 1,39,-1
 588 695 l 2,40,41
 584 782 584 782 536 838 c 0,42,43
 498 881 498 881 457 882 c 0,44,45
 444 882 444 882 434 878 c 1,46,47
 460 808 460 808 462 776 c 0,48,49
 464 752 464 752 464 741 c 0,50,51
 463 616 463 616 354 568 c 0,52,53
 307 548 307 548 267 548 c 0,54,55
 204 549 204 549 147 592 c 0,56,57
 72 649 72 649 72 754 c 0,58,59
 72 782 72 782 76 806 c 0,60,61
 89 909 89 909 170 970 c 0,62,63
 251 1029 251 1029 366 1034 c 1,64,-1
 372 1034 l 2,65,66
 611 1033 611 1033 664 868 c 1,67,68
 707 962 707 962 793 1004 c 0,69,70
 863 1037 863 1037 932 1037 c 0,71,72
 945 1037 945 1037 968 1035 c 0,73,74
 1057 1022 1057 1022 1132 968 c 0,75,76
 1207 912 1207 912 1229 831 c 0,77,78
 1241 801 1241 801 1241 747 c 0,79,80
 1241 572 1241 572 1028 327 c 0,81,82
 1006 303 1006 303 930 203 c 0,83,84
 909 177 909 177 908 161 c 0,85,86
 910 138 910 138 994 138 c 0,87,88
 996 138 996 138 1009 138 c 0,89,90
 1047 139 1047 139 1078 140 c 0,91,92
 1152 142 1152 142 1190 146 c 1,93,94
 1193 125 1193 125 1193 5 c 1,95,-1
 1067 0 l 1,13,-1
1863 5 m 1,96,-1
 1696 5 l 1,97,98
 1792 170 1792 170 1867 386 c 0,99,100
 1934 578 1934 578 1934 728 c 1,101,-1
 1933 765 l 2,102,103
 1932 888 1932 888 1850 889 c 0,104,105
 1803 888 1803 888 1788 855 c 0,106,107
 1773 819 1773 819 1770 758 c 1,108,-1
 1633 758 l 1,109,-1
 1630 813 l 2,110,111
 1624 858 1624 858 1591 878 c 0,112,113
 1570 890 1570 890 1549 890 c 0,114,115
 1537 890 1537 890 1523 885 c 0,116,117
 1489 872 1489 872 1487 842 c 0,118,119
 1488 817 1488 817 1501 797 c 0,120,121
 1514 779 1514 779 1526 771 c 0,122,123
 1536 764 1536 764 1573 744 c 1,124,125
 1554 722 1554 722 1470 629 c 1,126,127
 1429 644 1429 644 1387 709 c 0,128,129
 1344 776 1344 776 1344 848 c 0,130,131
 1344 926 1344 926 1392 980 c 0,132,133
 1440 1033 1440 1033 1519 1033 c 1,134,-1
 1537 1034 l 1,135,136
 1598 1033 1598 1033 1636 1002 c 0,137,138
 1678 966 1678 966 1684 927 c 1,139,140
 1698 966 1698 966 1727 996 c 0,141,142
 1744 1012 1744 1012 1763 1020 c 0,143,144
 1798 1036 1798 1036 1842 1036 c 0,145,146
 1908 1036 1908 1036 1959 1008 c 0,147,148
 2049 961 2049 961 2071 862 c 1,149,150
 2079 799 2079 799 2079 740 c 0,151,152
 2079 585 2079 585 2030 404 c 0,153,154
 1983 228 1983 228 1863 5 c 1,96,-1
EndSplineSet
Validated: 513
EndChar

StartChar: u-mlym
Encoding: 3337 3337 108
Width: 1059
GlyphClass: 2
Flags: W
LayerCount: 2
Fore
SplineSet
262 690 m 1,0,-1
 273 691 l 2,1,2
 323 699 323 699 328 744 c 0,3,4
 331 760 331 760 331 774 c 0,5,6
 330 818 330 818 300 832 c 1,7,8
 263 820 263 820 242 800 c 0,9,10
 218 778 218 778 218 746 c 2,11,-1
 218 739 l 1,12,13
 224 691 224 691 262 690 c 1,0,-1
386 -1 m 1,14,15
 284 4 284 4 262 8 c 0,16,17
 180 24 180 24 179 87 c 0,18,19
 180 134 180 134 242 176 c 1,20,21
 298 225 298 225 442 322 c 0,22,23
 588 420 588 420 688 508 c 256,24,25
 788 596 788 596 811 677 c 0,26,27
 813 686 813 686 815 701 c 0,28,29
 815 708 815 708 813 738 c 0,30,31
 809 764 809 764 797 782 c 0,32,33
 782 803 782 803 760 824 c 0,34,35
 735 847 735 847 695 859 c 0,36,37
 647 871 647 871 594 878 c 0,38,39
 572 881 572 881 546 881 c 0,40,41
 505 881 505 881 448 873 c 1,42,43
 478 839 478 839 483 796 c 0,44,45
 485 770 485 770 485 757 c 0,46,47
 484 688 484 688 454 640 c 0,48,49
 413 577 413 577 352 557 c 0,50,51
 308 543 308 543 267 543 c 0,52,53
 174 544 174 544 129 590 c 0,54,55
 62 666 62 666 62 748 c 0,56,57
 63 854 63 854 150 928 c 0,58,59
 233 1002 233 1002 393 1025 c 0,60,61
 445 1032 445 1032 503 1032 c 0,62,63
 604 1032 604 1032 706 1006 c 0,64,65
 858 965 858 965 914 878 c 0,66,67
 966 800 966 800 966 717 c 0,68,69
 966 641 966 641 932 578 c 0,70,71
 896 508 896 508 821 434 c 0,72,73
 747 360 747 360 660 296 c 0,74,75
 579 238 579 238 457 163 c 0,76,77
 450 158 450 158 444.5 153.5 c 128,-1,78
 439 149 439 149 435 146 c 128,-1,79
 431 143 431 143 428 140.5 c 128,-1,80
 425 138 425 138 424 136 c 2,81,-1
 422 135 l 2,82,83
 422 132 422 132 431 132 c 2,84,-1
 951 132 l 1,85,-1
 951 71 l 2,86,87
 949 5 949 5 949 0 c 1,88,-1
 386 -1 l 1,14,15
EndSplineSet
Validated: 513
EndChar

StartChar: uu-mlym
Encoding: 3338 3338 109
Width: 1138
GlyphClass: 2
Flags: W
LayerCount: 2
Fore
SplineSet
496 -242 m 0,0,1
 510 -241 510 -241 518 -233 c 0,2,3
 528 -224 528 -224 529 -212 c 0,4,5
 527 -194 527 -194 503 -186 c 1,6,-1
 490 -185 l 2,7,8
 464 -186 464 -186 444 -205 c 1,9,10
 458 -241 458 -241 496 -242 c 0,0,1
578 -517 m 0,11,12
 463 -517 463 -517 382 -469 c 0,13,14
 290 -418 290 -418 276 -298 c 0,15,16
 274 -276 274 -276 274 -266 c 0,17,18
 275 -166 275 -166 352 -105 c 0,19,20
 409 -61 409 -61 485 -61 c 0,21,22
 589 -62 589 -62 639 -118 c 1,23,24
 666 -158 666 -158 672 -206 c 2,25,-1
 673 -216 l 1,26,27
 672 -261 672 -261 634 -298 c 0,28,29
 590 -341 590 -341 511 -341 c 0,30,31
 423 -339 423 -339 401 -285 c 1,32,33
 402 -318 402 -318 415 -332 c 0,34,35
 421 -339 421 -339 427 -345 c 0,36,37
 432 -350 432 -350 446 -358 c 0,38,39
 461 -369 461 -369 465 -370 c 0,40,41
 505 -388 505 -388 569 -388 c 0,42,43
 586 -388 586 -388 623 -386 c 0,44,45
 681 -381 681 -381 746 -334 c 0,46,47
 812 -286 812 -286 860 -203 c 1,48,-1
 989 -272 l 1,49,50
 945 -360 945 -360 867 -419 c 0,51,52
 738 -517 738 -517 578 -517 c 0,11,12
292 690 m 1,53,-1
 303 691 l 1,54,55
 353 700 353 700 358 745 c 0,56,57
 361 762 361 762 361 774 c 0,58,59
 360 818 360 818 330 832 c 1,60,61
 297 823 297 823 272 800 c 0,62,63
 248 778 248 778 248 746 c 2,64,-1
 248 739 l 1,65,66
 254 691 254 691 292 690 c 1,53,-1
416 -1 m 1,67,68
 324 4 324 4 292 7 c 0,69,70
 210 23 210 23 209 86 c 0,71,72
 209 134 209 134 272 176 c 1,73,74
 328 225 328 225 472 322 c 0,75,76
 618 420 618 420 718 508 c 0,77,78
 818 597 818 597 841 677 c 0,79,80
 845 692 845 692 845 708 c 0,81,82
 845 754 845 754 827 782 c 0,83,84
 812 803 812 803 790 824 c 0,85,86
 765 847 765 847 725 859 c 0,87,88
 677 871 677 871 624 878 c 0,89,90
 602 881 602 881 576 881 c 0,91,92
 535 881 535 881 478 873 c 1,93,94
 508 839 508 839 513 796 c 0,95,96
 515 770 515 770 515 757 c 0,97,98
 514 688 514 688 484 640 c 0,99,100
 442 577 442 577 382 557 c 0,101,102
 338 543 338 543 297 543 c 0,103,104
 204 544 204 544 159 590 c 0,105,106
 92 666 92 666 92 748 c 0,107,108
 93 854 93 854 180 928 c 0,109,110
 263 1002 263 1002 423 1025 c 0,111,112
 475 1032 475 1032 533 1032 c 0,113,114
 634 1032 634 1032 736 1006 c 0,115,116
 889 964 889 964 944 879 c 0,117,118
 996 801 996 801 996 718 c 0,119,120
 996 641 996 641 962 578 c 0,121,122
 926 508 926 508 851 434 c 0,123,124
 777 360 777 360 690 296 c 0,125,126
 601 231 601 231 487 162 c 0,127,128
 477 155 477 155 471.5 150.5 c 128,-1,129
 466 146 466 146 461 142.5 c 128,-1,130
 456 139 456 139 454 137 c 2,131,-1
 452 135 l 1,132,133
 454 133 454 133 457 133 c 2,134,-1
 981 132 l 1,135,-1
 981 71 l 2,136,137
 979 5 979 5 979 0 c 1,138,-1
 416 -1 l 1,67,68
EndSplineSet
Validated: 513
EndChar

StartChar: vocalicr-mlym
Encoding: 3339 3339 110
Width: 1206
GlyphClass: 2
Flags: W
LayerCount: 2
Fore
SplineSet
663 142 m 0,0,1
 752 144 752 144 787 196 c 0,2,3
 796 209 796 209 796 221 c 0,4,5
 796 231 796 231 792 240 c 0,6,7
 790 245 790 245 781 260 c 0,8,9
 774 272 774 272 762 281 c 0,10,11
 758 284 758 284 751 291 c 0,12,13
 742 297 742 297 739 299.5 c 128,-1,14
 736 302 736 302 727 309 c 0,15,16
 717 316 717 316 712 320 c 0,17,18
 694 333 694 333 686 337 c 0,19,20
 679 341 679 341 659 354 c 0,21,22
 648 359 648 359 645 362 c 1,23,24
 548 271 548 271 537 234 c 0,25,26
 533 223 533 223 533 212 c 0,27,28
 534 183 534 183 561 166 c 0,29,30
 598 142 598 142 663 142 c 0,0,1
943 780 m 1,31,32
 988 814 988 814 988 843 c 0,33,34
 988 853 988 853 983 862 c 0,35,36
 971 886 971 886 940 887 c 0,37,38
 912 886 912 886 898 867 c 0,39,40
 891 857 891 857 891 845 c 0,41,42
 892 828 892 828 901 810 c 1,43,44
 924 782 924 782 943 780 c 1,31,32
271 762 m 1,45,46
 284 774 284 774 289 777 c 0,47,48
 293 780 293 780 304 791 c 0,49,50
 314 801 314 801 319 811 c 0,51,52
 322 819 322 819 322 833 c 0,53,54
 321 847 321 847 315 858 c 0,55,56
 293 889 293 889 267 890 c 0,57,58
 237 890 237 890 219 866 c 0,59,60
 215 857 215 857 215 847 c 0,61,62
 216 826 216 826 231 800 c 1,63,64
 245 784 245 784 271 762 c 1,45,46
640 -3 m 0,65,66
 614 -3 614 -3 589 0 c 0,67,68
 510 8 510 8 451 61 c 0,69,70
 388 120 388 120 388 217 c 0,71,72
 388 260 388 260 407 299 c 0,73,74
 431 349 431 349 455 375 c 0,75,76
 480 401 480 401 519 436 c 1,77,78
 404 503 404 503 259 596 c 1,79,80
 160 650 160 650 108 727 c 0,81,82
 67 790 67 790 67 852 c 0,83,84
 67 863 67 863 69 882 c 0,85,86
 76 918 76 918 103 960 c 0,87,88
 151 1029 151 1029 262 1029 c 0,89,90
 387 1028 387 1028 437 940 c 0,91,92
 461 896 461 896 461 854 c 0,93,94
 461 832 461 832 453 805 c 0,95,96
 430 738 430 738 371 704 c 1,97,98
 610 550 610 550 641 530 c 1,99,100
 708 581 708 581 851 700 c 1,101,102
 765 739 765 739 751 810 c 0,103,104
 747 828 747 828 747 850 c 0,105,106
 748 913 748 913 791 966 c 0,107,108
 844 1030 844 1030 947 1030 c 0,109,110
 1058 1029 1058 1029 1110 942 c 0,111,112
 1137 896 1137 896 1137 846 c 0,113,114
 1137 812 1137 812 1123 774 c 0,115,116
 1104 734 1104 734 1056 683 c 0,117,118
 1011 635 1011 635 969 601 c 0,119,120
 923 563 923 563 860 517 c 0,121,122
 798 471 798 471 769 448 c 1,123,124
 824 414 824 414 856 391 c 0,125,126
 886 369 886 369 918 319 c 0,127,128
 944 277 944 277 944 232 c 2,129,-1
 943 214 l 2,130,131
 941 138 941 138 885 82 c 0,132,133
 828 26 828 26 749 9 c 0,134,135
 694 -3 694 -3 640 -3 c 0,65,66
EndSplineSet
Validated: 513
EndChar

StartChar: vocalicl-mlym
Encoding: 3340 3340 111
Width: 1378
GlyphClass: 2
Flags: W
LayerCount: 2
Fore
SplineSet
661 142 m 0,0,1
 751 144 751 144 783 196 c 0,2,3
 792 209 792 209 792 221 c 0,4,5
 792 234 792 234 777 260 c 0,6,7
 770 272 770 272 758 281 c 0,8,9
 725 309 725 309 708 319 c 2,10,-1
 682 336 l 2,11,12
 655 354 655 354 643 360 c 1,13,14
 623 342 623 342 571 290 c 0,15,16
 539 254 539 254 533 234 c 0,17,18
 529 223 529 223 529 212 c 0,19,20
 530 183 530 183 557 166 c 0,21,22
 595 142 595 142 661 142 c 0,0,1
939 780 m 1,23,24
 984 815 984 815 985 845 c 0,25,26
 984 856 984 856 981 862 c 0,27,28
 967 886 967 886 936 887 c 0,29,30
 909 886 909 886 895 867 c 0,31,32
 888 856 888 856 888 844 c 0,33,34
 889 829 889 829 897 810 c 1,35,36
 921 782 921 782 939 780 c 1,23,24
267 762 m 1,37,38
 309 793 309 793 315 808 c 0,39,40
 318 818 318 818 318 833 c 0,41,42
 318 844 318 844 313 858 c 1,43,44
 290 889 290 889 263 890 c 0,45,46
 232 889 232 889 215 864 c 0,47,48
 211 857 211 857 211 847 c 0,49,50
 212 807 212 807 267 762 c 1,37,38
638 -3 m 0,51,52
 611 -3 611 -3 586 0 c 0,53,54
 507 8 507 8 447 61 c 0,55,56
 384 120 384 120 384 217 c 0,57,58
 384 259 384 259 403 298 c 0,59,60
 428 350 428 350 451 374 c 0,61,62
 478 402 478 402 515 434 c 1,63,64
 389 510 389 510 257 596 c 1,65,66
 154 651 154 651 104 726 c 0,67,68
 63 789 63 789 63 852 c 0,69,70
 63 863 63 863 65 882 c 0,71,72
 72 918 72 918 99 960 c 0,73,74
 148 1029 148 1029 259 1029 c 0,75,76
 385 1028 385 1028 433 940 c 0,77,78
 457 896 457 896 457 853 c 0,79,80
 457 829 457 829 449 804 c 0,81,82
 426 738 426 738 367 704 c 1,83,84
 606 550 606 550 637 530 c 1,85,86
 709 584 709 584 847 698 c 1,87,88
 761 737 761 737 747 810 c 0,89,90
 743 828 743 828 743 850 c 0,91,92
 744 913 744 913 787 966 c 0,93,94
 840 1030 840 1030 943 1030 c 0,95,96
 1053 1029 1053 1029 1106 941 c 0,97,98
 1133 894 1133 894 1133 845 c 0,99,100
 1133 811 1133 811 1119 774 c 0,101,102
 1099 732 1099 732 1053 683 c 0,103,104
 1008 635 1008 635 966 601 c 0,105,106
 926 568 926 568 765 448 c 1,107,108
 820 414 820 414 852 391 c 0,109,110
 882 369 882 369 914 319 c 0,111,112
 941 275 941 275 941 227 c 0,113,114
 941 140 941 140 884 83 c 0,115,116
 826 26 826 26 747 9 c 0,117,118
 692 -3 692 -3 638 -3 c 0,51,52
1289 -4 m 1,119,-1
 1141 -4 l 1,120,121
 1161 101 1161 101 1161 185 c 0,122,123
 1160 487 1160 487 925 618 c 1,124,125
 908 640 908 640 908 658 c 0,126,127
 909 684 909 684 937 706 c 0,128,129
 965 724 965 724 992 724 c 0,130,131
 1033 723 1033 723 1077 686 c 1,132,133
 1160 636 1160 636 1216 546 c 0,134,135
 1271 457 1271 457 1289 354 c 0,136,137
 1306 253 1306 253 1306 170 c 0,138,139
 1306 74 1306 74 1289 -4 c 1,119,-1
EndSplineSet
Validated: 517
EndChar

StartChar: e-mlym
Encoding: 3342 3342 112
Width: 1625
GlyphClass: 2
Flags: W
LayerCount: 2
Fore
SplineSet
895 -1 m 0,0,1
 868 -1 868 -1 838 5 c 0,2,3
 756 24 756 24 706 88 c 0,4,5
 654 154 654 154 638 241 c 1,6,7
 573 236 573 236 375 227 c 0,8,9
 324 224 324 224 290 224 c 0,10,11
 245 224 245 224 225 229 c 0,12,13
 161 247 161 247 144 306 c 0,14,15
 139 325 139 325 139 338 c 0,16,17
 140 378 140 378 173 412 c 0,18,19
 195 432 195 432 275 488 c 0,20,21
 346 537 346 537 357 550 c 0,22,23
 367 564 367 564 368 572 c 2,24,-1
 368 573 l 1,25,26
 362 583 362 583 340 583 c 2,27,-1
 332 583 l 1,28,29
 250 572 250 572 200 522 c 2,30,-1
 150 472 l 1,31,-1
 49 572 l 1,32,-1
 100 622 l 2,33,34
 186 708 186 708 316 724 c 0,35,36
 336 726 336 726 345 726 c 0,37,38
 439 725 439 725 487 651 c 0,39,40
 511 613 511 613 511 572 c 0,41,42
 510 521 510 521 472 466 c 0,43,44
 446 432 446 432 355 370 c 0,45,46
 355 369 355 369 354 369 c 2,47,-1
 353 368 l 1,48,-1
 369 369 l 2,49,50
 518 376 518 376 546 378 c 0,51,52
 598 381 598 381 622 383 c 1,53,-1
 621 429 l 2,54,55
 621 495 621 495 630 541 c 0,56,57
 644 637 644 637 702 749 c 0,58,59
 752 846 752 846 855 911 c 0,60,61
 971 983 971 983 1100 983 c 0,62,63
 1375 981 1375 981 1490 664 c 0,64,65
 1539 522 1539 522 1539 364 c 0,66,67
 1539 202 1539 202 1488 67 c 2,68,-1
 1463 0 l 1,69,-1
 1315 0 l 1,70,-1
 1351 113 l 2,71,72
 1390 229 1390 229 1390 349 c 0,73,74
 1390 482 1390 482 1342 622 c 0,75,76
 1308 719 1308 719 1239 779 c 0,77,78
 1174 836 1174 836 1092 836 c 1,79,-1
 1076 835 l 2,80,81
 918 825 918 825 830 678 c 1,82,83
 788 597 788 597 772 515 c 0,84,85
 764 468 764 468 764 418 c 2,86,-1
 764 396 l 1,87,88
 796 398 796 398 810 398 c 0,89,90
 870 398 870 398 913 386 c 0,91,92
 978 370 978 370 1029 322 c 0,93,94
 1081 271 1081 271 1081 192 c 0,95,96
 1080 95 1080 95 1016 41 c 0,97,98
 963 -1 963 -1 895 -1 c 0,0,1
893 141 m 0,99,100
 937 143 937 143 938 193 c 2,101,-1
 938 201 l 2,102,103
 935 233 935 233 879 248 c 0,104,105
 852 255 852 255 812 255 c 2,106,-1
 780 254 l 1,107,108
 810 142 810 142 893 141 c 0,99,100
EndSplineSet
Validated: 513
EndChar

StartChar: ee-mlym
Encoding: 3343 3343 113
Width: 1718
GlyphClass: 2
Flags: W
LayerCount: 2
Fore
SplineSet
365 -234 m 1,0,1
 368 -167 368 -167 369 -103 c 2,2,-1
 370 -90 l 1,3,4
 975 -92 975 -92 1007 -93 c 2,5,-1
 1152 -85 l 2,6,7
 1158 -84 1158 -84 1164 -84 c 0,8,9
 1282 -77 1282 -77 1330 2 c 0,10,11
 1350 36 1350 36 1373 107 c 0,12,13
 1409 213 1409 213 1409 327 c 0,14,15
 1409 467 1409 467 1357 617 c 0,16,17
 1323 714 1323 714 1254 774 c 0,18,19
 1190 831 1190 831 1107 831 c 1,20,-1
 1091 830 l 2,21,22
 934 820 934 820 844 672 c 1,23,24
 778 544 778 544 778 420 c 1,25,-1
 779 391 l 1,26,27
 811 393 811 393 825 393 c 0,28,29
 885 393 885 393 928 381 c 0,30,31
 994 364 994 364 1043 317 c 0,32,33
 1095 266 1095 266 1095 187 c 0,34,35
 1094 90 1094 90 1030 36 c 0,36,37
 979 -6 979 -6 910 -6 c 0,38,39
 883 -6 883 -6 853 0 c 0,40,41
 772 17 772 17 721 83 c 0,42,43
 668 148 668 148 652 236 c 1,44,45
 531 227 531 227 389 221 c 0,46,47
 327 219 327 219 309 219 c 0,48,49
 258 219 258 219 239 224 c 0,50,51
 175 243 175 243 158 301 c 0,52,53
 153 320 153 320 153 332 c 0,54,55
 154 373 154 373 188 406 c 0,56,57
 217 433 217 433 289 483 c 0,58,59
 360 532 360 532 371 545 c 0,60,61
 381 559 381 559 382 567 c 2,62,-1
 382 568 l 1,63,64
 376 578 376 578 355 578 c 2,65,-1
 347 578 l 1,66,67
 265 567 265 567 215 517 c 2,68,-1
 165 466 l 1,69,-1
 64 567 l 1,70,-1
 114 617 l 2,71,72
 200 704 200 704 330 719 c 0,73,74
 350 721 350 721 359 721 c 0,75,76
 453 720 453 720 502 646 c 0,77,78
 526 608 526 608 526 568 c 0,79,80
 525 515 525 515 486 461 c 0,81,82
 458 424 458 424 370 365 c 0,83,84
 368 364 368 364 367 363 c 1,85,-1
 383 364 l 2,86,87
 532 372 532 372 560 373 c 0,88,89
 612 376 612 376 636 378 c 1,90,-1
 635 424 l 2,91,92
 635 490 635 490 644 536 c 0,93,94
 658 629 658 629 717 744 c 0,95,96
 766 842 766 842 870 906 c 0,97,98
 986 978 986 978 1115 978 c 0,99,100
 1390 976 1390 976 1505 659 c 0,101,102
 1557 514 1557 514 1557 347 c 0,103,104
 1557 187 1557 187 1513 64 c 0,105,106
 1472 -46 1472 -46 1409 -127 c 0,107,108
 1362 -186 1362 -186 1262 -215 c 0,109,110
 1208 -229 1208 -229 1118 -231 c 2,111,-1
 365 -234 l 1,0,1
909 137 m 0,112,113
 927 138 927 138 938 145 c 0,114,115
 953 158 953 158 953 188 c 2,116,-1
 953 196 l 2,117,118
 950 228 950 228 894 243 c 0,119,120
 868 250 868 250 828 250 c 2,121,-1
 795 249 l 1,122,123
 825 138 825 138 909 137 c 0,112,113
EndSplineSet
Validated: 513
EndChar

StartChar: ai-mlym
Encoding: 3344 3344 114
Width: 2509
GlyphClass: 2
Flags: W
LayerCount: 2
Fore
SplineSet
651 0 m 1,0,-1
 503 0 l 1,1,2
 503 18 503 18 507 70 c 2,3,-1
 509 344 l 1,4,-1
 508 420 l 2,5,6
 507 437 507 437 507 486 c 0,7,8
 505 542 505 542 505 542 c 2,9,10
 503 682 503 682 461 738 c 1,11,-1
 441 758 l 1,12,-1
 422 770 l 1,13,14
 432 741 432 741 432 693 c 2,15,-1
 431 664 l 2,16,17
 427 605 427 605 388 562 c 0,18,19
 338 508 338 508 249 508 c 1,20,-1
 220 512 l 2,21,22
 148 524 148 524 108 588 c 0,23,24
 80 634 80 634 75 684 c 1,25,26
 75 759 75 759 82 780 c 0,27,28
 111 868 111 868 202 910 c 0,29,30
 255 931 255 931 336 931 c 2,31,-1
 375 930 l 1,32,33
 485 922 485 922 561 848 c 0,34,35
 630 779 630 779 638 694 c 0,36,37
 653 558 653 558 653 339 c 2,38,-1
 651 0 l 1,0,-1
268 655 m 0,39,40
 288 655 288 655 301 670 c 0,41,42
 314 684 314 684 314 712 c 0,43,44
 311 738 311 738 305 750 c 0,45,46
 292 772 292 772 261 772 c 0,47,48
 216 769 216 769 215 715 c 0,49,50
 217 656 217 656 268 655 c 0,39,40
1479 125 m 0,51,52
 1548 127 1548 127 1549 179 c 0,53,54
 1548 229 1548 229 1504 243 c 0,55,56
 1475 252 1475 252 1424 252 c 0,57,58
 1407 252 1407 252 1370 250 c 1,59,60
 1374 182 1374 182 1416 148 c 0,61,62
 1446 125 1446 125 1479 125 c 0,51,52
2233 0 m 1,63,-1
 2082 0 l 1,64,65
 2115 38 2115 38 2147 130 c 0,66,67
 2208 299 2208 299 2208 476 c 0,68,69
 2208 656 2208 656 2150 741 c 0,70,71
 2115 792 2115 792 2052 793 c 0,72,73
 1967 792 1967 792 1916 720 c 0,74,75
 1884 674 1884 674 1870 618 c 0,76,77
 1847 517 1847 517 1847 454 c 1,78,-1
 1709 454 l 1,79,-1
 1710 501 l 1,80,81
 1709 724 1709 724 1592 780 c 0,82,83
 1560 794 1560 794 1534 794 c 0,84,85
 1484 793 1484 793 1442 746 c 0,86,87
 1437 741 1437 741 1432 732 c 0,88,89
 1388 671 1388 671 1368 570 c 0,90,91
 1356 508 1356 508 1356 448 c 0,92,93
 1356 413 1356 413 1361 372 c 1,94,95
 1392 375 1392 375 1421 375 c 0,96,97
 1514 375 1514 375 1575 345 c 0,98,99
 1655 305 1655 305 1669 230 c 0,100,101
 1675 200 1675 200 1675 173 c 0,102,103
 1674 102 1674 102 1632 59 c 0,104,105
 1572 0 1572 0 1476 0 c 0,106,107
 1388 1 1388 1 1321 61 c 0,108,109
 1254 124 1254 124 1240 246 c 1,110,-1
 1221 246 l 1,111,112
 1102 237 1102 237 926 233 c 0,113,114
 816 230 816 230 759 230 c 0,115,116
 716 230 716 230 698 232 c 0,117,118
 670 235 670 235 669 266 c 0,119,120
 670 306 670 306 705 318 c 0,121,122
 849 370 849 370 880 384 c 2,123,-1
 910 398 l 2,124,125
 954 420 954 420 964 428 c 0,126,127
 967 431 967 431 974.5 437.5 c 128,-1,128
 982 444 982 444 985 447 c 0,129,130
 995 457 995 457 1003 470 c 0,131,132
 1016 491 1016 491 1016 510 c 0,133,134
 1015 532 1015 532 998 550 c 1,135,136
 982 575 982 575 919 575 c 0,137,138
 833 574 833 574 773 530 c 1,139,-1
 735 496 l 1,140,-1
 660 598 l 1,141,142
 696 628 696 628 724 648 c 0,143,144
 750 666 750 666 807 684 c 0,145,146
 856 700 856 700 918 700 c 2,147,-1
 931 700 l 1,148,149
 1059 693 1059 693 1118 610 c 0,150,151
 1148 569 1148 569 1148 513 c 0,152,153
 1148 503 1148 503 1146 484 c 0,154,155
 1136 408 1136 408 1083 364 c 1,156,-1
 1233 374 l 1,157,158
 1231 428 1231 428 1231 453 c 0,159,160
 1231 565 1231 565 1251 655 c 0,161,162
 1277 771 1277 771 1330 826 c 0,163,164
 1382 879 1382 879 1434 902 c 0,165,166
 1490 926 1490 926 1554 926 c 0,167,168
 1741 924 1741 924 1795 734 c 1,169,170
 1825 833 1825 833 1896 882 c 0,171,172
 1963 926 1963 926 2040 926 c 2,173,-1
 2053 926 l 2,174,175
 2198 925 2198 925 2265 814 c 0,176,177
 2337 692 2337 692 2337 493 c 0,178,179
 2337 286 2337 286 2271 100 c 0,180,181
 2255 56 2255 56 2254 52 c 0,182,183
 2238 6 2238 6 2233 0 c 1,63,-1
EndSplineSet
Validated: 513
EndChar

StartChar: o-mlym
Encoding: 3346 3346 115
Width: 1107
GlyphClass: 2
Flags: W
LayerCount: 2
Fore
SplineSet
266 716 m 0,0,1
 295 717 295 717 325 736 c 0,2,3
 348 751 348 751 353 767 c 0,4,5
 356 778 356 778 356 788 c 0,6,7
 356 801 356 801 351 815 c 0,8,9
 344 833 344 833 331 844 c 2,10,-1
 328 847 l 1,11,12
 226 797 226 797 225 753 c 0,13,14
 226 739 226 739 235 727 c 0,15,16
 247 716 247 716 266 716 c 0,0,1
458 -1 m 0,17,18
 289 0 289 0 222 69 c 0,19,20
 178 111 178 111 178 187 c 0,21,22
 179 277 179 277 260 329 c 0,23,24
 323 367 323 367 397 367 c 0,25,26
 410 367 410 367 435 365 c 0,27,28
 550 348 550 348 589 260 c 0,29,30
 603 227 603 227 603 192 c 0,31,32
 603 169 603 169 599 155 c 1,33,34
 724 157 724 157 807 220 c 0,35,36
 876 273 876 273 877 327 c 0,37,38
 875 400 875 400 772 424 c 0,39,40
 737 433 737 433 680 433 c 0,41,42
 637 433 637 433 599 429 c 0,43,44
 534 425 534 425 460 412 c 1,45,-1
 451 411 l 1,46,47
 448 428 448 428 445 463 c 0,48,49
 440 521 440 521 435 553 c 2,50,-1
 434 563 l 1,51,52
 479 568 479 568 500 573 c 0,53,54
 593 589 593 589 661 610 c 0,55,56
 709 624 709 624 715 629 c 0,57,58
 755 643 755 643 778 660 c 0,59,60
 847 710 847 710 847 774 c 0,61,62
 847 806 847 806 826 834 c 0,63,64
 790 878 790 878 729 894 c 0,65,66
 678 907 678 907 611 907 c 0,67,68
 540 907 540 907 470 893 c 1,69,70
 472 890 472 890 475 885 c 0,71,72
 480 876 480 876 485 866 c 2,73,-1
 487 861 l 2,74,75
 504 814 504 814 504 779 c 0,76,77
 503 706 503 706 441 646 c 0,78,79
 398 606 398 606 334 586 c 0,80,81
 284 572 284 572 246 572 c 0,82,83
 175 573 175 573 127 616 c 1,84,85
 83 661 83 661 83 726 c 0,86,87
 83 764 83 764 100 805 c 0,88,89
 134 881 134 881 199 930 c 1,90,91
 318 1032 318 1032 549 1049 c 0,92,93
 587 1051 587 1051 606 1051 c 0,94,95
 860 1050 860 1050 951 914 c 0,96,97
 996 840 996 840 996 767 c 0,98,99
 996 715 996 715 972 663 c 0,100,101
 932 577 932 577 859 544 c 1,102,103
 861 543 861 543 877 536 c 0,104,105
 896 528 896 528 909 523 c 0,106,107
 985 486 985 486 1014 410 c 0,108,109
 1029 372 1029 372 1029 332 c 0,110,111
 1029 284 1029 284 1007 236 c 0,112,113
 962 140 962 140 859 94 c 1,114,115
 818 69 818 69 754 48 c 0,116,117
 694 27 694 27 618 13 c 0,118,119
 541 -1 541 -1 458 -1 c 0,17,18
423 144 m 2,120,-1
 454 145 l 1,121,122
 462 160 462 160 462 174 c 0,123,124
 462 186 462 186 456 199 c 0,125,126
 441 227 441 227 402 227 c 0,127,128
 388 227 388 227 364 222 c 0,129,130
 330 214 330 214 322 191 c 0,131,132
 319 183 319 183 319 178 c 0,133,134
 320 170 320 170 325 165 c 0,135,136
 360 144 360 144 423 144 c 2,120,-1
EndSplineSet
Validated: 513
EndChar

StartChar: oo-mlym
Encoding: 3347 3347 116
Width: 1733
GlyphClass: 2
Flags: W
LayerCount: 2
Fore
SplineSet
229 0 m 1,0,-1
 225 3 l 1,1,2
 199 17 199 17 162 43 c 0,3,4
 150 52 150 52 132 64 c 0,5,6
 118 73 118 73 116 75 c 0,7,8
 113 77 113 77 106 82 c 1,9,-1
 114 89 l 2,10,11
 518 439 518 439 519 694 c 0,12,13
 518 785 518 785 468 864 c 1,14,-1
 450 883 l 1,15,-1
 437 890 l 1,16,17
 445 859 445 859 445 823 c 2,18,-1
 444 796 l 2,19,20
 442 741 442 741 403 700 c 0,21,22
 355 650 355 650 271 648 c 1,23,-1
 243 651 l 2,24,25
 176 661 176 661 137 724 c 0,26,27
 105 780 105 780 105 852 c 0,28,29
 105 882 105 882 113 906 c 0,30,31
 141 991 141 991 226 1032 c 0,32,33
 274 1051 274 1051 350 1051 c 2,34,-1
 389 1050 l 1,35,36
 491 1042 491 1042 557 976 c 0,37,38
 622 908 622 908 651 805 c 0,39,40
 666 749 666 749 666 699 c 0,41,42
 666 685 666 685 664 662 c 0,43,44
 649 535 649 535 581 405 c 0,45,46
 510 268 510 268 375 130 c 0,47,48
 286 41 286 41 233 4 c 1,49,-1
 229 0 l 1,0,-1
277 791 m 0,50,51
 296 792 296 792 307 804 c 0,52,53
 319 818 319 818 319 842 c 0,54,55
 316 865 316 865 311 875 c 0,56,57
 299 894 299 894 272 895 c 0,58,59
 232 892 232 892 231 843 c 0,60,61
 233 792 233 792 277 791 c 0,50,51
888 716 m 0,62,63
 917 717 917 717 947 736 c 0,64,65
 970 751 970 751 975 767 c 0,66,67
 979 777 979 777 979 788 c 0,68,69
 979 802 979 802 973 815 c 0,70,71
 965 834 965 834 953 844 c 2,72,-1
 950 847 l 1,73,74
 848 797 848 797 847 754 c 0,75,76
 848 739 848 739 857 727 c 0,77,78
 869 716 869 716 888 716 c 0,62,63
1080 -1 m 0,79,80
 911 0 911 0 845 69 c 1,81,82
 800 110 800 110 800 191 c 0,83,84
 803 279 803 279 882 329 c 0,85,86
 945 367 945 367 1018 367 c 0,87,88
 1031 367 1031 367 1056 365 c 0,89,90
 1172 347 1172 347 1211 260 c 0,91,92
 1225 227 1225 227 1225 192 c 0,93,94
 1225 169 1225 169 1221 155 c 1,95,96
 1345 157 1345 157 1429 220 c 0,97,98
 1498 273 1498 273 1499 327 c 0,99,100
 1497 400 1497 400 1394 424 c 0,101,102
 1359 433 1359 433 1302 433 c 0,103,104
 1259 433 1259 433 1221 429 c 0,105,106
 1158 425 1158 425 1083 412 c 1,107,-1
 1073 411 l 1,108,109
 1061 523 1061 523 1057 553 c 2,110,-1
 1056 563 l 1,111,-1
 1066 564 l 2,112,113
 1098 566 1098 566 1205 589 c 0,114,115
 1308 614 1308 614 1337 628 c 1,116,-1
 1337 629 l 1,117,118
 1376 643 1376 643 1400 660 c 0,119,120
 1469 710 1469 710 1469 774 c 0,121,122
 1469 806 1469 806 1448 834 c 0,123,124
 1412 878 1412 878 1351 894 c 0,125,126
 1300 907 1300 907 1234 907 c 0,127,128
 1163 907 1163 907 1092 893 c 1,129,130
 1096 889 1096 889 1096 885 c 0,131,132
 1104 874 1104 874 1109 861 c 0,133,134
 1125 821 1125 821 1125 783 c 0,135,136
 1124 706 1124 706 1063 646 c 0,137,138
 1020 605 1020 605 957 586 c 0,139,140
 907 572 907 572 869 572 c 0,141,142
 799 573 799 573 749 616 c 1,143,144
 706 660 706 660 706 726 c 0,145,146
 706 764 706 764 723 805 c 0,147,148
 756 881 756 881 822 930 c 1,149,150
 941 1032 941 1032 1171 1049 c 0,151,152
 1209 1051 1209 1051 1228 1051 c 0,153,154
 1482 1050 1482 1050 1573 914 c 0,155,156
 1618 840 1618 840 1618 768 c 0,157,158
 1618 716 1618 716 1594 663 c 0,159,160
 1554 577 1554 577 1481 544 c 1,161,162
 1489 541 1489 541 1531 523 c 0,163,164
 1607 486 1607 486 1637 410 c 0,165,166
 1652 372 1652 372 1652 332 c 0,167,168
 1652 284 1652 284 1630 236 c 0,169,170
 1585 140 1585 140 1482 94 c 1,171,172
 1443 71 1443 71 1377 48 c 0,173,174
 1319 28 1319 28 1240 13 c 0,175,176
 1163 -1 1163 -1 1080 -1 c 0,79,80
1045 144 m 2,177,-1
 1075 145 l 1,178,179
 1084 160 1084 160 1084 175 c 0,180,181
 1084 186 1084 186 1079 199 c 0,182,183
 1064 227 1064 227 1025 227 c 0,184,185
 1011 227 1011 227 987 222 c 0,186,187
 954 214 954 214 944 191 c 0,188,189
 942 181 942 181 942 179 c 0,190,191
 943 170 943 170 947 165 c 0,192,193
 982 144 982 144 1045 144 c 2,177,-1
EndSplineSet
Validated: 513
EndChar

StartChar: au-mlym
Encoding: 3348 3348 117
Width: 1799
GlyphClass: 2
Flags: W
LayerCount: 2
Fore
SplineSet
241 716 m 0,0,1
 275 717 275 717 307 736 c 0,2,3
 330 751 330 751 335 767 c 0,4,5
 338 777 338 777 338 787 c 0,6,7
 337 815 337 815 315 850 c 1,8,9
 203 797 203 797 202 751 c 0,10,11
 204 717 204 717 241 716 c 0,0,1
438 -1 m 0,12,13
 269 0 269 0 203 69 c 1,14,15
 158 110 158 110 158 191 c 0,16,17
 161 279 161 279 240 329 c 0,18,19
 302 368 302 368 375 368 c 0,20,21
 395 368 395 368 415 365 c 0,22,23
 531 347 531 347 569 260 c 0,24,25
 583 224 583 224 583 191 c 0,26,27
 583 169 583 169 579 156 c 1,28,29
 706 161 706 161 790 224 c 0,30,31
 862 278 862 278 862 332 c 0,32,33
 860 400 860 400 754 420 c 1,34,-1
 752 421 l 1,35,36
 709 435 709 435 646 435 c 0,37,38
 566 435 566 435 451 414 c 1,39,-1
 442 413 l 1,40,41
 435 440 435 440 426 515 c 0,42,43
 423 531 423 531 417 556 c 1,44,-1
 428 557 l 2,45,46
 517 568 517 568 591 591 c 0,47,48
 649 607 649 607 695 628 c 1,49,-1
 695 629 l 1,50,51
 730 645 730 645 753 662 c 0,52,53
 797 696 797 696 810 723 c 0,54,55
 821 750 821 750 821 777 c 0,56,57
 820 814 820 814 796 842 c 0,58,59
 763 880 763 880 709 893 c 0,60,61
 656 906 656 906 584 906 c 0,62,63
 524 906 524 906 457 894 c 1,64,65
 481 842 481 842 481 786 c 0,66,67
 480 704 480 704 422 645 c 0,68,69
 377 604 377 604 314 586 c 0,70,71
 264 572 264 572 226 572 c 0,72,73
 155 573 155 573 107 616 c 1,74,75
 64 660 64 660 64 726 c 0,76,77
 64 764 64 764 81 805 c 0,78,79
 114 881 114 881 180 930 c 1,80,81
 299 1032 299 1032 529 1049 c 0,82,83
 567 1051 567 1051 586 1051 c 0,84,85
 840 1050 840 1050 931 914 c 1,86,-1
 931 913 l 1,87,88
 977 834 977 834 977 762 c 0,89,90
 976 707 976 707 948 657 c 0,91,92
 909 590 909 590 829 547 c 1,93,-1
 842 544 l 1,94,-1
 889 525 l 1,95,96
 1008 455 1008 455 1009 335 c 0,97,98
 1008 275 1008 275 975 218 c 0,99,100
 928 140 928 140 840 94 c 0,101,102
 801 70 801 70 736 48 c 0,103,104
 676 27 676 27 599 13 c 256,105,106
 522 -1 522 -1 438 -1 c 0,12,13
404 144 m 2,107,-1
 434 145 l 1,108,109
 442 161 442 161 442 174 c 256,110,111
 442 187 442 187 436 199 c 0,112,113
 422 225 422 225 382 225 c 0,114,115
 363 225 363 225 344 221 c 0,116,117
 301 209 301 209 300 177 c 0,118,119
 301 170 301 170 305 165 c 0,120,121
 340 144 340 144 404 144 c 2,107,-1
1482 347 m 1,122,-1
 1310 347 l 1,123,124
 1384 450 1384 450 1416 507 c 0,125,126
 1507 668 1507 668 1509 800 c 2,127,-1
 1509 813 l 2,128,129
 1508 860 1508 860 1490 888 c 0,130,131
 1470 915 1470 915 1445 915 c 2,132,-1
 1438 915 l 2,133,134
 1433 915 1433 915 1426 913 c 0,135,136
 1398 905 1398 905 1381 876 c 0,137,138
 1362 842 1362 842 1362 801 c 1,139,140
 1351 800 1351 800 1301 800 c 0,141,142
 1249 800 1249 800 1240 799 c 1,143,-1
 1235 854 l 2,144,145
 1228 917 1228 917 1178 920 c 1,146,147
 1136 915 1136 915 1131 878 c 1,148,149
 1134 807 1134 807 1197 772 c 2,150,-1
 1214 762 l 1,151,-1
 1200 748 l 2,152,153
 1138 686 1138 686 1125 671 c 1,154,-1
 1116 674 l 2,155,156
 1075 689 1075 689 1038 744 c 0,157,158
 997 808 997 808 997 873 c 2,159,-1
 997 880 l 1,160,161
 1005 953 1005 953 1048 1002 c 0,162,163
 1092 1050 1092 1050 1162 1050 c 2,164,-1
 1175 1050 l 2,165,166
 1235 1049 1235 1049 1276 1016 c 0,167,168
 1293 1001 1293 1001 1307 979 c 1,169,170
 1357 1051 1357 1051 1452 1051 c 0,171,172
 1504 1050 1504 1050 1551 1022 c 0,173,174
 1618 978 1618 978 1632 899 c 0,175,176
 1640 865 1640 865 1640 817 c 0,177,178
 1640 701 1640 701 1603 590 c 0,179,180
 1569 484 1569 484 1482 347 c 1,122,-1
EndSplineSet
Validated: 513
EndChar

StartChar: ka-mlym
Encoding: 3349 3349 118
Width: 1662
GlyphClass: 2
Flags: W
AnchorPoint: "Anchor-0" 133 67 basechar 0
LayerCount: 2
Fore
SplineSet
1069 139 m 0,0,1
 1266 141 1266 141 1267 405 c 1,2,3
 1262 541 1262 541 1179 657 c 0,4,5
 1094 772 1094 772 963 804 c 0,6,7
 914 818 914 818 852 818 c 2,8,-1
 820 817 l 1,9,-1
 788 818 l 2,10,11
 725 818 725 818 677 804 c 0,12,13
 546 774 546 774 461 657 c 0,14,15
 376 539 376 539 373 405 c 0,16,17
 374 141 374 141 571 139 c 0,18,19
 598 142 598 142 617 149 c 0,20,21
 640 158 640 158 652 169 c 0,22,23
 657 174 657 174 666 182 c 0,24,25
 674 190 674 190 677 193 c 0,26,27
 688 204 688 204 695 223 c 0,28,29
 698 231 698 231 702 243 c 0,30,31
 705 251 705 251 706 254 c 0,32,33
 710 265 710 265 713 289 c 0,34,35
 714 311 714 311 716 320 c 0,36,37
 716 337 716 337 717 351 c 2,38,-1
 717 376 l 1,39,40
 741 375 741 375 821 375 c 256,41,42
 901 375 901 375 923 376 c 1,43,44
 923 365 923 365 924 351 c 0,45,46
 924 325 924 325 925 320 c 0,47,48
 925 317 925 317 927 289 c 0,49,50
 929 269 929 269 934 254 c 0,51,52
 935 251 935 251 938 243 c 0,53,54
 942 230 942 230 945 223 c 0,55,56
 952 204 952 204 963 193 c 0,57,58
 970 186 970 186 989 169 c 0,59,60
 1002 157 1002 157 1024 149 c 0,61,62
 1042 142 1042 142 1069 139 c 0,0,1
1068 -3 m 2,63,-1
 1065 -3 l 1,64,65
 970 1 970 1 902 50 c 0,66,67
 834 101 834 101 820 162 c 1,68,69
 806 99 806 99 739 50 c 0,70,71
 670 0 670 0 576 -3 c 0,72,73
 423 -2 423 -2 326 91 c 0,74,75
 269 146 269 146 242 253 c 0,76,77
 223 327 223 327 223 410 c 0,78,79
 223 444 223 444 226 478 c 0,80,81
 237 597 237 597 320 713 c 0,82,83
 404 829 404 829 546 890 c 1,84,85
 514 893 514 893 486 893 c 0,86,87
 315 892 315 892 193 799 c 0,88,89
 170 781 170 781 147 769 c 1,90,-1
 57 877 l 1,91,92
 242 1031 242 1031 480 1031 c 0,93,94
 657 1031 657 1031 820 973 c 1,95,96
 983 1031 983 1031 1157 1031 c 0,97,98
 1398 1030 1398 1030 1583 877 c 1,99,-1
 1494 769 l 1,100,101
 1470 781 1470 781 1447 799 c 0,102,103
 1325 893 1325 893 1157 893 c 0,104,105
 1126 893 1126 893 1094 890 c 1,106,107
 1238 828 1238 828 1321 713 c 0,108,109
 1403 598 1403 598 1415 478 c 0,110,111
 1418 443 1418 443 1418 410 c 0,112,113
 1418 326 1418 326 1399 253 c 0,114,115
 1370 146 1370 146 1314 91 c 0,116,117
 1218 -3 1218 -3 1068 -3 c 2,63,-1
EndSplineSet
Validated: 513
EndChar

StartChar: kha-mlym
Encoding: 3350 3350 119
Width: 1562
GlyphClass: 2
Flags: W
LayerCount: 2
Fore
SplineSet
145 731 m 0,0,1
 163 732 163 732 182 751 c 0,2,3
 197 770 197 770 197 791 c 0,4,5
 197 820 197 820 170 857 c 1,6,7
 128 853 128 853 106 815 c 0,8,9
 96 799 96 799 96 782 c 0,10,11
 97 763 97 763 112 747 c 0,12,13
 129 731 129 731 145 731 c 0,0,1
1267 0 m 2,14,-1
 166 2 l 2,15,16
 83 6 83 6 48 59 c 0,17,18
 25 95 25 95 25 125 c 0,19,20
 25 144 25 144 32 159 c 0,21,22
 52 220 52 220 134 300 c 0,23,24
 149 317 149 317 221 389 c 0,25,26
 285 452 285 452 330 503 c 0,27,28
 373 551 373 551 410 625 c 0,29,30
 445 697 445 697 445 760 c 2,31,-1
 445 767 l 1,32,33
 434 838 434 838 385 866 c 0,34,35
 343 890 343 890 310 890 c 2,36,-1
 298 889 l 1,37,38
 345 856 345 856 345 774 c 0,39,40
 344 704 344 704 299 655 c 0,41,42
 237 589 237 589 150 589 c 0,43,44
 70 590 70 590 11 645 c 0,45,46
 -48 702 -48 702 -48 787 c 0,47,48
 -47 882 -47 882 23 947 c 0,49,50
 91 1008 91 1008 186 1022 c 0,51,52
 230 1027 230 1027 265 1027 c 0,53,54
 322 1027 322 1027 374 1017 c 0,55,56
 468 998 468 998 531 928 c 0,57,58
 593 856 593 856 593 757 c 2,59,-1
 593 736 l 2,60,61
 593 596 593 596 458 430 c 0,62,63
 382 337 382 337 323 283 c 0,64,65
 245 211 245 211 238 196 c 0,66,67
 234 189 234 189 234 181 c 0,68,69
 234 174 234 174 237 168 c 0,70,71
 244 154 244 154 258 151 c 0,72,73
 299 143 299 143 389 143 c 2,74,-1
 630 144 l 1,75,-1
 1211 143 l 1,76,77
 1266 151 1266 151 1293 173 c 0,78,79
 1321 195 1321 195 1331 239 c 0,80,81
 1347 307 1347 307 1347 536 c 0,82,83
 1347 638 1347 638 1341 770 c 0,84,85
 1336 856 1336 856 1335 903 c 0,86,87
 1332 951 1332 951 1332 992 c 2,88,-1
 1331 1007 l 1,89,90
 1409 1013 1409 1013 1474 1015 c 1,91,92
 1474 1012 1474 1012 1479 956 c 0,93,94
 1496 814 1496 814 1497 350 c 2,95,-1
 1497 346 l 2,96,97
 1496 159 1496 159 1405 61 c 0,98,99
 1346 2 1346 2 1267 0 c 2,14,-1
EndSplineSet
Validated: 513
EndChar

StartChar: ga-mlym
Encoding: 3351 3351 120
Width: 1440
GlyphClass: 2
Flags: W
LayerCount: 2
Fore
SplineSet
971 1 m 1,0,1
 1017 45 1017 45 1060 104 c 0,2,3
 1118 186 1118 186 1155 276 c 0,4,5
 1199 391 1199 391 1217 477 c 0,6,7
 1228 536 1228 536 1228 585 c 0,8,9
 1228 620 1228 620 1224 648 c 0,10,11
 1212 722 1212 722 1185 776 c 0,12,13
 1161 824 1161 824 1133 844 c 0,14,15
 1072 885 1072 885 1005 885 c 0,16,17
 942 884 942 884 890 843 c 1,18,-1
 889 843 l 1,19,20
 850 797 850 797 831 751 c 0,21,22
 828 742 828 742 814 708 c 0,23,24
 809 694 809 694 801 657 c 0,25,26
 793 617 793 617 792 611 c 0,27,28
 788 586 788 586 784 556 c 2,29,-1
 758 371 l 1,30,31
 735 243 735 243 710 189 c 0,32,33
 663 89 663 89 609 54 c 0,34,35
 526 3 526 3 415 3 c 0,36,37
 314 3 314 3 238 60 c 128,-1,38
 162 117 162 117 130 213 c 1,39,40
 77 345 77 345 77 513 c 0,41,42
 77 595 77 595 92 676 c 0,43,44
 129 877 129 877 225 1025 c 1,45,46
 351 1025 351 1025 387 1024 c 1,47,48
 335 914 335 914 305 842 c 0,49,50
 251 705 251 705 239 597 c 0,51,52
 234 545 234 545 234 505 c 0,53,54
 234 398 234 398 263 305 c 0,55,56
 307 170 307 170 392 144 c 0,57,58
 410 139 410 139 425 139 c 0,59,60
 443 139 443 139 461 145 c 0,61,62
 583 181 583 181 624 433 c 0,63,64
 634 492 634 492 644 580 c 0,65,66
 654 655 654 655 663 695 c 0,67,68
 680 822 680 822 766 924 c 0,69,70
 855 1027 855 1027 987 1027 c 0,71,72
 1364 1025 1364 1025 1369 547 c 1,73,74
 1362 290 1362 290 1163 2 c 1,75,76
 1000 2 1000 2 971 1 c 1,0,1
EndSplineSet
Validated: 513
EndChar

StartChar: gha-mlym
Encoding: 3352 3352 121
Width: 1736
GlyphClass: 2
Flags: W
LayerCount: 2
Fore
SplineSet
1028 315 m 1,0,1
 1113 400 1113 400 1122 593 c 0,2,3
 1124 639 1124 639 1124 657 c 0,4,5
 1124 805 1124 805 1083 855 c 0,6,7
 1072 866 1072 866 1063 867 c 0,8,9
 1047 865 1047 865 1031 837 c 0,10,11
 989 761 989 761 981 597 c 2,12,-1
 980 558 l 2,13,14
 980 477 980 477 993 411 c 0,15,16
 1008 326 1008 326 1028 315 c 1,0,1
722 3 m 0,17,18
 690 3 690 3 660 9 c 0,19,20
 577 26 577 26 524 73 c 0,21,22
 444 148 444 148 444 283 c 0,23,24
 444 348 444 348 462 427 c 0,25,26
 511 619 511 619 511 721 c 0,27,28
 510 834 510 834 427 869 c 0,29,30
 400 878 400 878 376 878 c 0,31,32
 340 877 340 877 311 859 c 0,33,34
 281 840 281 840 261 811 c 0,35,36
 242 782 242 782 234 737 c 0,37,38
 225 683 225 683 224 666 c 0,39,40
 223 654 223 654 223 615 c 2,41,-1
 224 500 l 1,42,-1
 63 474 l 1,43,44
 57 534 57 534 57 588 c 0,45,46
 58 801 58 801 157 920 c 1,47,48
 259 1023 259 1023 363 1024 c 0,49,50
 397 1024 397 1024 433 1013 c 0,51,52
 657 953 657 953 658 693 c 0,53,54
 658 587 658 587 622 451 c 1,55,56
 595 366 595 366 595 304 c 0,57,58
 595 252 595 252 614 220 c 0,59,60
 661 148 661 148 746 147 c 2,61,-1
 759 147 l 1,62,63
 853 154 853 154 902 217 c 1,64,65
 868 258 868 258 842 367 c 0,66,67
 824 446 824 446 824 546 c 0,68,69
 824 588 824 588 827 631 c 0,70,71
 838 789 838 789 898 909 c 0,72,73
 956 1021 956 1021 1069 1022 c 0,74,75
 1174 1021 1174 1021 1217 919 c 0,76,77
 1272 783 1272 783 1272 654 c 0,78,79
 1272 617 1272 617 1268 588 c 0,80,81
 1248 428 1248 428 1208 328 c 0,82,83
 1166 228 1166 228 1131 202 c 1,84,-1
 1110 183 l 1,85,86
 1137 161 1137 161 1194 155 c 0,87,88
 1202 154 1202 154 1217 154 c 0,89,90
 1266 154 1266 154 1319 173 c 0,91,92
 1386 196 1386 196 1427 251 c 1,93,94
 1503 392 1503 392 1503 585 c 0,95,96
 1503 606 1503 606 1501 651 c 0,97,98
 1484 887 1484 887 1404 1005 c 1,99,100
 1447 1009 1447 1009 1492 1015 c 0,101,102
 1538 1021 1538 1021 1580 1025 c 1,103,104
 1611 924 1611 924 1635 782 c 0,105,106
 1654 676 1654 676 1654 591 c 0,107,108
 1654 560 1654 560 1651 532 c 0,109,110
 1644 424 1644 424 1625 357 c 0,111,112
 1607 292 1607 292 1562 213 c 1,113,114
 1465 68 1465 68 1320 18 c 0,115,116
 1279 4 1279 4 1238 4 c 0,117,118
 1108 5 1108 5 990 113 c 1,119,120
 921 45 921 45 832 20 c 0,121,122
 773 3 773 3 722 3 c 0,17,18
EndSplineSet
Validated: 513
EndChar

StartChar: nga-mlym
Encoding: 3353 3353 122
Width: 1564
GlyphClass: 2
Flags: W
LayerCount: 2
Fore
SplineSet
1156 524 m 0,0,1
 1172 524 1172 524 1195 529 c 0,2,3
 1273 546 1273 546 1278 588 c 1,4,5
 1252 635 1252 635 1174 635 c 0,6,7
 1105 634 1105 634 1079 588 c 1,8,9
 1081 567 1081 567 1086 557 c 0,10,11
 1109 524 1109 524 1156 524 c 0,0,1
1461 -3 m 1,12,-1
 1311 -3 l 1,13,14
 1326 142 1326 142 1326 246 c 0,15,16
 1326 364 1326 364 1307 424 c 1,17,18
 1253 378 1253 378 1163 378 c 0,19,20
 1105 378 1105 378 1052 398 c 0,21,22
 988 423 988 423 952 483 c 0,23,24
 928 520 928 520 928 567 c 0,25,26
 928 591 928 591 936 621 c 0,27,28
 969 707 969 707 1039 747 c 0,29,30
 1104 783 1104 783 1168 783 c 2,31,-1
 1181 783 l 1,32,33
 1250 778 1250 778 1297 745 c 1,34,-1
 1297 755 l 1,35,36
 1277 810 1277 810 1255 831 c 0,37,38
 1206 888 1206 888 1114 888 c 0,39,40
 1009 887 1009 887 893 802 c 0,41,42
 868 780 868 780 856 752 c 0,43,44
 842 719 842 719 839 698 c 0,45,46
 835 675 835 675 833 642 c 0,47,48
 833 637 833 637 832.5 633 c 128,-1,49
 832 629 832 629 831.5 625 c 128,-1,50
 831 621 831 621 831 618.5 c 128,-1,51
 831 616 831 616 830.5 613.5 c 128,-1,52
 830 611 830 611 830 609.5 c 128,-1,53
 830 608 830 608 830 606 c 2,54,-1
 830 605 l 1,55,-1
 639 604 l 1,56,57
 641 626 641 626 641 637 c 0,58,59
 641 782 641 782 536 844 c 1,60,61
 476 887 476 887 389 887 c 0,62,63
 290 886 290 886 225 817 c 0,64,65
 189 773 189 773 189 707 c 0,66,67
 190 645 190 645 220 608 c 0,68,69
 255 565 255 565 314 565 c 0,70,71
 380 567 380 567 388 625 c 2,72,-1
 389 635 l 2,73,74
 389 666 389 666 362 689 c 0,75,76
 330 714 330 714 297 725 c 1,77,78
 302 734 302 734 359 846 c 1,79,80
 441 823 441 823 489 765 c 0,81,82
 533 708 533 708 533 634 c 0,83,84
 532 533 532 533 468 473 c 0,85,86
 408 418 408 418 302 418 c 2,87,-1
 295 418 l 1,88,89
 176 428 176 428 114 513 c 0,90,91
 51 599 51 599 51 697 c 2,92,-1
 51 703 l 1,93,94
 56 882 56 882 173 965 c 0,95,96
 268 1032 268 1032 395 1032 c 0,97,98
 519 1031 519 1031 619 972 c 0,99,100
 708 919 708 919 736 839 c 1,101,102
 790 943 790 943 930 993 c 0,103,104
 1019 1029 1019 1029 1106 1029 c 0,105,106
 1120 1029 1120 1029 1149 1027 c 0,107,108
 1258 1016 1258 1016 1332 959 c 0,109,110
 1404 900 1404 900 1438 811 c 0,111,112
 1452 768 1452 768 1452 728 c 0,113,114
 1452 670 1452 670 1428 606 c 1,115,116
 1438 585 1438 585 1452 488 c 0,117,118
 1465 394 1465 394 1465 355 c 2,119,-1
 1465 236 l 1,120,-1
 1467 134 l 1,121,-1
 1467 96 l 2,122,123
 1467 24 1467 24 1461 -3 c 1,12,-1
EndSplineSet
Validated: 513
EndChar

StartChar: ca-mlym
Encoding: 3354 3354 123
Width: 1456
GlyphClass: 2
Flags: W
LayerCount: 2
Fore
SplineSet
1158 4 m 1,0,-1
 182 10 l 1,1,2
 133 16 133 16 132 56 c 0,3,4
 133 74 133 74 145 89 c 0,5,6
 175 128 175 128 247 202 c 0,7,8
 332 289 332 289 379 347 c 2,9,-1
 447 424 l 2,10,11
 473 454 473 454 496 484 c 0,12,13
 531 533 531 533 560 593 c 0,14,15
 592 659 592 659 592 715 c 0,16,17
 591 805 591 805 522 854 c 0,18,19
 474 888 474 888 415 888 c 0,20,21
 343 887 343 887 290 845 c 0,22,23
 248 811 248 811 240 755 c 1,24,-1
 239 727 l 2,25,26
 239 676 239 676 251 640 c 2,27,-1
 253 633 l 1,28,-1
 179 621 l 2,29,30
 113 609 113 609 104 606 c 1,31,32
 86 659 86 659 86 718 c 0,33,34
 86 768 86 768 107 830 c 0,35,36
 127 885 127 885 167 925 c 0,37,38
 263 1022 263 1022 419 1022 c 0,39,40
 521 1022 521 1022 602 971 c 0,41,42
 737 886 737 886 738 711 c 2,43,-1
 738 696 l 2,44,45
 737 612 737 612 673 496 c 0,46,47
 638 438 638 438 550 316 c 1,48,-1
 515 277 l 2,49,50
 425 180 425 180 391 150 c 2,51,-1
 384 143 l 1,52,-1
 394 142 l 1,53,-1
 1074 136 l 2,54,55
 1148 136 1148 136 1174 160 c 0,56,57
 1213 196 1213 196 1219 402 c 0,58,59
 1221 488 1221 488 1221 528 c 0,60,61
 1221 657 1221 657 1213 789 c 0,62,63
 1201 966 1201 966 1192 1022 c 1,64,-1
 1329 1024 l 2,65,66
 1330 1022 1330 1022 1331 1018 c 0,67,68
 1333 1012 1333 1012 1334 1005 c 2,69,-1
 1336 993 l 2,70,71
 1339 978 1339 978 1342 949 c 0,72,73
 1346 907 1346 907 1353 788 c 0,74,75
 1361 647 1361 647 1361 530 c 0,76,77
 1361 338 1361 338 1347 184 c 0,78,79
 1342 138 1342 138 1317 94 c 0,80,81
 1291 50 1291 50 1252 27 c 0,82,83
 1225 13 1225 13 1158 4 c 1,0,-1
EndSplineSet
Validated: 513
EndChar

StartChar: cha-mlym
Encoding: 3355 3355 124
Width: 2272
GlyphClass: 2
Flags: W
LayerCount: 2
Fore
SplineSet
1874 153 m 0,0,1
 1906 154 1906 154 1935 185 c 0,2,3
 2001 244 2001 244 2023 364 c 0,4,5
 2034 432 2034 432 2034 483 c 0,6,7
 2034 527 2034 527 2026 568 c 1,8,9
 2009 590 2009 590 1971 601 c 0,10,11
 1956 605 1956 605 1936 605 c 0,12,13
 1855 604 1855 604 1808 544 c 0,14,15
 1778 504 1778 504 1763 423 c 0,16,17
 1756 389 1756 389 1756 351 c 0,18,19
 1756 308 1756 308 1767 265 c 0,20,21
 1805 154 1805 154 1874 153 c 0,0,1
1875 1 m 0,22,23
 1821 1 1821 1 1764 31 c 0,24,25
 1706 60 1706 60 1668 132 c 0,26,27
 1612 237 1612 237 1612 363 c 0,28,29
 1612 417 1612 417 1622 467 c 0,30,31
 1639 555 1639 555 1681 626 c 0,32,33
 1724 695 1724 695 1803 730 c 0,34,35
 1853 751 1853 751 1909 751 c 0,36,37
 1948 751 1948 751 1988 742 c 1,38,39
 1978 804 1978 804 1913 853 c 0,40,41
 1877 879 1877 879 1834 879 c 0,42,43
 1796 879 1796 879 1752 859 c 1,44,45
 1683 817 1683 817 1645 740 c 0,46,47
 1604 660 1604 660 1588 568 c 0,48,49
 1566 453 1566 453 1553 380 c 0,50,51
 1534 281 1534 281 1492 192 c 0,52,53
 1448 98 1448 98 1377 42 c 1,54,55
 1339 5 1339 5 1276 5 c 0,56,57
 1254 5 1254 5 1235 9 c 0,58,59
 1145 25 1145 25 1098 95 c 0,60,61
 1094 100 1094 100 1094 100 c 1,62,63
 1072 74 1072 74 1046 57 c 0,64,65
 961 6 961 6 820 4 c 2,66,-1
 353 7 l 1,67,-1
 170 5 l 2,68,69
 133 6 133 6 122 33 c 0,70,71
 119 42 119 42 119 50 c 0,72,73
 120 68 120 68 133 82 c 0,74,75
 167 126 167 126 244 209 c 0,76,77
 324 297 324 297 401 387 c 0,78,79
 467 462 467 462 475 475 c 0,80,81
 503 512 503 512 513 529 c 2,82,-1
 530 560 l 2,83,84
 583 651 583 651 583 718 c 0,85,86
 583 737 583 737 578 758 c 0,87,88
 558 824 558 824 512 860 c 0,89,90
 465 895 465 895 401 895 c 0,91,92
 333 894 333 894 277 851 c 0,93,94
 234 814 234 814 226 759 c 1,95,-1
 225 732 l 2,96,97
 225 678 225 678 239 638 c 1,98,99
 216 634 216 634 167 626 c 0,100,101
 123 619 123 619 92 612 c 1,102,103
 74 664 74 664 74 723 c 0,104,105
 74 773 74 773 95 835 c 0,106,107
 124 916 124 916 200 967 c 0,108,109
 285 1025 285 1025 393 1025 c 0,110,111
 466 1025 466 1025 538 1002 c 0,112,113
 621 974 621 974 675 895 c 0,114,115
 726 818 726 818 726 712 c 0,116,117
 725 536 725 536 538 319 c 1,118,-1
 501 279 l 2,119,120
 402 176 402 176 369 147 c 1,121,-1
 795 149 l 1,122,123
 881 154 881 154 910 160 c 0,124,125
 976 174 976 174 993 231 c 0,126,127
 1002 265 1002 265 1003 280 c 0,128,129
 1004 288 1004 288 1004 312 c 0,130,131
 1005 332 1005 332 1005 343 c 0,132,133
 1005 554 1005 554 995 772 c 0,134,135
 994 788 994 788 989 886 c 0,136,137
 985 974 985 974 976 1026 c 1,138,-1
 1125 1026 l 1,139,140
 1139 932 1139 932 1148 720 c 0,141,142
 1152 643 1152 643 1152 542 c 0,143,144
 1152 396 1152 396 1143 233 c 1,145,146
 1149 228 1149 228 1158 218 c 0,147,148
 1210 157 1210 157 1258 157 c 0,149,150
 1334 157 1334 157 1375 307 c 0,151,152
 1384 342 1384 342 1406 437 c 0,153,154
 1444 612 1444 612 1465 685 c 0,155,156
 1484 753 1484 753 1512 816 c 0,157,158
 1543 888 1543 888 1579 926 c 0,159,160
 1616 966 1616 966 1674 994 c 256,161,162
 1732 1022 1732 1022 1809 1027 c 1,163,164
 2060 1024 2060 1024 2148 757 c 0,165,166
 2185 645 2185 645 2185 527 c 0,167,168
 2185 398 2185 398 2142 268 c 0,169,170
 2066 38 2066 38 1916 5 c 0,171,172
 1899 1 1899 1 1875 1 c 0,22,23
EndSplineSet
Validated: 513
EndChar

StartChar: ja-mlym
Encoding: 3356 3356 125
Width: 2612
GlyphClass: 2
Flags: W
LayerCount: 2
Fore
SplineSet
300 139 m 2,0,1
 326 140 326 140 352 160 c 0,2,3
 398 203 398 203 400 284 c 2,4,-1
 401 309 l 2,5,6
 401 376 401 376 378 420 c 0,7,8
 339 483 339 483 287 494 c 0,9,10
 263 496 263 496 254 496 c 0,11,12
 225 496 225 496 207 489 c 1,13,14
 199 456 199 456 194 378 c 2,15,-1
 193 356 l 2,16,17
 193 289 193 289 214 222 c 0,18,19
 237 143 237 143 281 139 c 1,20,-1
 300 139 l 2,0,1
2261 149 m 0,21,22
 2314 149 2314 149 2342 209 c 1,23,24
 2364 246 2364 246 2374 308 c 0,25,26
 2383 358 2383 358 2383 401 c 0,27,28
 2383 486 2383 486 2369 531 c 1,29,30
 2329 553 2329 553 2295 553 c 0,31,32
 2236 552 2236 552 2194 488 c 0,33,34
 2154 428 2154 428 2154 347 c 0,35,36
 2154 288 2154 288 2173 226 c 0,37,38
 2200 150 2200 150 2261 149 c 0,21,22
1606 -3 m 0,39,40
 1521 -2 1521 -2 1455 56 c 0,41,42
 1347 153 1347 153 1324 349 c 2,43,-1
 1318 405 l 2,44,45
 1315 469 1315 469 1313 663 c 0,46,47
 1313 704 1313 704 1310 728 c 256,48,49
 1307 752 1307 752 1295 792 c 256,50,51
 1283 832 1283 832 1250 855 c 0,52,53
 1216 877 1216 877 1165 879 c 1,54,-1
 1143 878 l 2,55,56
 997 871 997 871 953 732 c 0,57,58
 927 659 927 659 915 503 c 0,59,60
 907 383 907 383 907 314 c 0,61,62
 907 275 907 275 908 258 c 1,63,64
 839 258 839 258 750 256 c 1,65,66
 750 259 750 259 748 326 c 0,67,68
 746 400 746 400 746 400 c 1,69,70
 735 590 735 590 714 660 c 0,71,72
 688 733 688 733 671 760 c 0,73,74
 608 878 608 878 466 879 c 0,75,76
 296 877 296 877 227 630 c 1,77,-1
 264 632 l 2,78,79
 327 632 327 632 376 612 c 0,80,81
 515 543 515 543 541 370 c 0,82,83
 547 332 547 332 547 295 c 0,84,85
 547 244 547 244 537 199 c 0,86,87
 520 115 520 115 455 56 c 0,88,89
 388 -3 388 -3 285 -3 c 0,90,91
 188 -2 188 -2 132 71 c 0,92,93
 76 145 76 145 59 255 c 0,94,95
 52 305 52 305 52 379 c 0,96,97
 52 428 52 428 55 486 c 0,98,99
 63 625 63 625 112 752 c 1,100,101
 156 846 156 846 206 905 c 0,102,103
 258 966 258 966 285 982 c 0,104,105
 317 1000 317 1000 351 1014 c 0,106,107
 410 1032 410 1032 481 1032 c 0,108,109
 598 1031 598 1031 681 973 c 0,110,111
 783 900 783 900 822 773 c 1,112,113
 840 874 840 874 927 949 c 0,114,115
 1020 1028 1020 1028 1151 1028 c 0,116,117
 1281 1027 1281 1027 1356 968 c 0,118,119
 1436 905 1436 905 1449 797 c 0,120,121
 1456 766 1456 766 1458 635 c 0,122,123
 1458 499 1458 499 1474 376 c 0,124,125
 1503 148 1503 148 1622 147 c 0,126,127
 1696 148 1696 148 1722 203 c 0,128,129
 1729 220 1729 220 1748 296 c 1,130,131
 1753 346 1753 346 1755 384 c 2,132,-1
 1759 511 l 1,133,-1
 1773 676 l 1,134,135
 1793 825 1793 825 1849 896 c 0,136,137
 1906 968 1906 968 1998 1006 c 0,138,139
 2059 1031 2059 1031 2141 1031 c 0,140,141
 2243 1031 2243 1031 2315 991 c 0,142,143
 2388 950 2388 950 2427 895 c 0,144,145
 2466 834 2466 834 2488 753 c 0,146,147
 2510 670 2510 670 2516 604 c 0,148,149
 2523 525 2523 525 2523 437 c 0,150,151
 2523 408 2523 408 2518 337 c 0,152,153
 2512 217 2512 217 2462 125 c 0,154,155
 2410 33 2410 33 2318 6 c 0,156,157
 2281 -1 2281 -1 2245 -1 c 0,158,159
 2142 0 2142 0 2084 66 c 1,160,161
 2041 126 2041 126 2025 183 c 0,162,163
 2010 235 2010 235 2010 319 c 2,164,-1
 2010 349 l 1,165,166
 2021 472 2021 472 2046 513 c 1,167,168
 2070 578 2070 578 2127 630 c 0,169,170
 2183 681 2183 681 2248 686 c 2,171,-1
 2275 687 l 2,172,173
 2320 687 2320 687 2357 673 c 1,174,-1
 2345 735 l 1,175,176
 2300 877 2300 877 2147 878 c 0,177,178
 2020 877 2020 877 1958 789 c 1,179,180
 1940 756 1940 756 1923 702 c 0,181,182
 1911 658 1911 658 1904 557 c 2,183,-1
 1901 510 l 1,184,-1
 1901 451 l 2,185,186
 1901 386 1901 386 1900 364 c 0,187,188
 1893 241 1893 241 1881 204 c 0,189,190
 1867 150 1867 150 1822 96 c 0,191,192
 1775 43 1775 43 1717 20 c 0,193,194
 1657 -3 1657 -3 1606 -3 c 0,39,40
EndSplineSet
Validated: 513
EndChar

StartChar: jha-mlym
Encoding: 3357 3357 126
Width: 2153
GlyphClass: 2
Flags: W
LayerCount: 2
Fore
SplineSet
726 150 m 2,0,-1
 741 151 l 2,1,2
 792 157 792 157 822 232 c 0,3,4
 842 283 842 283 842 337 c 0,5,6
 842 362 842 362 837 395 c 1,7,8
 808 400 808 400 789 400 c 0,9,10
 685 399 685 399 642 297 c 0,11,12
 635 273 635 273 635 249 c 0,13,14
 636 212 636 212 654 187 c 0,15,16
 682 150 682 150 726 150 c 2,0,-1
1813 652 m 0,17,18
 1859 653 1859 653 1924 687 c 2,19,-1
 1931 691 l 1,20,-1
 1929 696 l 1,21,22
 1897 809 1897 809 1840 850 c 0,23,24
 1810 870 1810 870 1786 870 c 0,25,26
 1758 869 1758 869 1730 846 c 0,27,28
 1702 820 1702 820 1702 767 c 0,29,30
 1703 726 1703 726 1724 695 c 0,31,32
 1756 652 1756 652 1813 652 c 0,17,18
1733 3 m 2,33,-1
 1711 3 l 2,34,35
 1565 5 1565 5 1494 95 c 1,36,37
 1462 59 1462 59 1454 52 c 0,38,39
 1435 37 1435 37 1384 20 c 0,40,41
 1340 4 1340 4 1281 4 c 2,42,-1
 1256 5 l 1,43,44
 1149 18 1149 18 1101 76 c 1,45,46
 1062 130 1062 130 1048 159 c 0,47,48
 1027 200 1027 200 1013 236 c 0,49,50
 999 274 999 274 978 315 c 1,51,-1
 979 292 l 1,52,53
 978 191 978 191 923 105 c 0,54,55
 857 5 857 5 726 4 c 0,56,57
 669 4 669 4 627 26 c 0,58,59
 578 52 578 52 556 76 c 0,60,61
 513 114 513 114 496 192 c 0,62,63
 490 220 490 220 490 248 c 0,64,65
 490 302 490 302 509 356 c 0,66,67
 538 442 538 442 615 492 c 0,68,69
 683 539 683 539 793 539 c 0,70,71
 814 539 814 539 829 536 c 1,72,-1
 829 545 l 2,73,74
 829 639 829 639 790 717 c 0,75,76
 712 869 712 869 540 888 c 1,77,-1
 520 889 l 1,78,79
 449 888 449 888 386 846 c 0,80,81
 300 791 300 791 253 654 c 0,82,83
 223 565 223 565 223 442 c 0,84,85
 223 373 223 373 232 296 c 1,86,87
 258 177 258 177 307 58 c 1,88,-1
 173 3 l 1,89,90
 128 64 128 64 105 214 c 0,91,92
 88 329 88 329 88 445 c 0,93,94
 88 472 88 472 90 529 c 0,95,96
 103 766 103 766 232 908 c 0,97,98
 339 1026 339 1026 527 1026 c 0,99,100
 568 1026 568 1026 612 1020 c 0,101,102
 736 1000 736 1000 823 912 c 0,103,104
 909 822 909 822 942 720 c 0,105,106
 970 630 970 630 970 536 c 2,107,-1
 970 513 l 1,108,109
 1044 472 1044 472 1087 405 c 0,110,111
 1129 340 1129 340 1143 285 c 0,112,113
 1155 231 1155 231 1187 190 c 0,114,115
 1222 145 1222 145 1280 145 c 0,116,117
 1333 146 1333 146 1364 173 c 0,118,119
 1418 221 1418 221 1418 359 c 0,120,121
 1418 401 1418 401 1412 446 c 1,122,-1
 1520 450 l 1,123,-1
 1565 450 l 1,124,-1
 1564 397 l 2,125,126
 1564 283 1564 283 1589 223 c 0,127,128
 1613 174 1613 174 1663 156 c 0,129,130
 1696 145 1696 145 1725 145 c 0,131,132
 1745 145 1745 145 1766 150 c 0,133,134
 1815 161 1815 161 1844 191 c 0,135,136
 1892 241 1892 241 1908 286 c 0,137,138
 1944 378 1944 378 1947 539 c 1,139,-1
 1934 536 l 1,140,141
 1862 513 1862 513 1804 513 c 0,142,143
 1733 513 1733 513 1677 545 c 0,144,145
 1604 588 1604 588 1574 701 c 0,146,147
 1563 744 1563 744 1563 780 c 0,148,149
 1564 853 1564 853 1600 919 c 0,150,151
 1612 937 1612 937 1623 950 c 0,152,153
 1634 964 1634 964 1644 974 c 0,154,155
 1656 986 1656 986 1667 992 c 0,156,157
 1688 1005 1688 1005 1688 1005 c 2,158,159
 1695 1009 1695 1009 1710 1014 c 0,160,161
 1724 1018 1724 1018 1731 1020 c 0,162,163
 1733 1020 1733 1020 1752 1022 c 0,164,165
 1756 1022 1756 1022 1762 1023 c 0,166,167
 1769 1024 1769 1024 1771 1024 c 2,168,-1
 1790 1024 l 1,169,-1
 1808 1023 l 2,170,171
 1897 1020 1897 1020 1972 933 c 0,172,173
 2046 842 2046 842 2071 689 c 1,174,175
 2089 624 2089 624 2089 540 c 0,176,177
 2089 500 2089 500 2084 446 c 0,178,179
 2069 297 2069 297 2014 188 c 0,180,181
 1922 5 1922 5 1733 3 c 2,33,-1
EndSplineSet
Validated: 513
EndChar

StartChar: nya-mlym
Encoding: 3358 3358 127
Width: 2036
GlyphClass: 2
Flags: W
LayerCount: 2
Fore
SplineSet
946 -20 m 0,0,1
 819 -20 819 -20 782 -19 c 0,2,3
 616 -19 616 -19 574 -16 c 0,4,5
 541 -13 541 -13 525 -11 c 1,6,7
 527 19 527 19 527 35 c 0,8,9
 527 47 527 47 522 137 c 1,10,-1
 541 136 l 1,11,12
 744 130 744 130 893 130 c 0,13,14
 961 130 961 130 1054 132 c 0,15,16
 1367 143 1367 143 1508 181 c 0,17,18
 1571 198 1571 198 1602 216 c 0,19,20
 1684 263 1684 263 1719 314 c 0,21,22
 1753 365 1753 365 1792 471 c 1,23,24
 1812 550 1812 550 1812 666 c 0,25,26
 1812 717 1812 717 1805 760 c 0,27,28
 1782 900 1782 900 1711 901 c 0,29,30
 1684 899 1684 899 1663 881 c 0,31,32
 1654 872 1654 872 1646 859 c 0,33,34
 1620 814 1620 814 1615 729 c 0,35,36
 1614 711 1614 711 1614 662 c 2,37,-1
 1613 619 l 1,38,-1
 1537 615 l 2,39,40
 1503 615 1503 615 1462 613 c 1,41,-1
 1462 630 l 1,42,43
 1457 792 1457 792 1432 839 c 0,44,45
 1392 903 1392 903 1338 904 c 0,46,47
 1320 904 1320 904 1301 898 c 0,48,49
 1279 889 1279 889 1270 879 c 1,50,51
 1295 843 1295 843 1308 812 c 0,52,53
 1326 777 1326 777 1340 694 c 0,54,55
 1350 631 1350 631 1350 561 c 0,56,57
 1349 210 1349 210 1165 209 c 0,58,59
 1079 210 1079 210 1037 280 c 1,60,61
 979 354 979 354 979 559 c 0,62,63
 979 638 979 638 991 706 c 0,64,65
 1010 805 1010 805 1057 874 c 1,66,-1
 1049 879 l 2,67,68
 1012 904 1012 904 970 904 c 0,69,70
 955 904 955 904 940 901 c 0,71,72
 870 886 870 886 833 817 c 1,73,74
 807 758 807 758 798 722 c 0,75,76
 789 682 789 682 789 621 c 1,77,78
 746 619 746 619 707 619 c 0,79,80
 678 619 678 619 637 621 c 1,81,82
 638 631 638 631 638 650 c 0,83,84
 638 689 638 689 627 736 c 0,85,86
 605 819 605 819 553 867 c 0,87,88
 511 904 511 904 454 904 c 0,89,90
 436 904 436 904 419 901 c 0,91,92
 382 895 382 895 349 861 c 0,93,94
 313 824 313 824 292 774 c 0,95,96
 278 742 278 742 274 708 c 1,97,-1
 310 709 l 2,98,99
 349 707 349 707 386 696 c 0,100,101
 450 676 450 676 494 623 c 0,102,103
 530 580 530 580 540 536 c 0,104,105
 549 498 549 498 549 460 c 0,106,107
 549 423 549 423 542 393 c 0,108,109
 529 334 529 334 501 296 c 0,110,111
 469 253 469 253 430 230 c 0,112,113
 396 212 396 212 334 210 c 0,114,115
 254 212 254 212 222 243 c 0,116,117
 210 252 210 252 193 267 c 0,118,119
 112 354 112 354 112 544 c 2,120,-1
 112 579 l 2,121,122
 113 585 113 585 113 601 c 0,123,124
 118 732 118 732 182 869 c 1,125,-1
 182 870 l 1,126,127
 223 941 223 941 273 985 c 1,128,-1
 274 985 l 1,129,130
 346 1046 346 1046 465 1046 c 0,131,132
 559 1045 559 1045 627 993 c 1,133,134
 661 973 661 973 688 938 c 0,135,136
 704 919 704 919 713 900 c 1,137,138
 752 963 752 963 802 997 c 0,139,140
 871 1047 871 1047 973 1047 c 0,141,142
 1002 1047 1002 1047 1033 1042 c 0,143,144
 1092 1032 1092 1032 1163 984 c 1,145,146
 1185 1000 1185 1000 1211 1013 c 0,147,148
 1272 1043 1272 1043 1332 1043 c 0,149,150
 1370 1043 1370 1043 1402 1033 c 0,151,152
 1487 1008 1487 1008 1531 941 c 1,153,154
 1586 1042 1586 1042 1719 1043 c 0,155,156
 1804 1042 1804 1042 1860 988 c 0,157,158
 1953 907 1953 907 1962 704 c 1,159,160
 1959 496 1959 496 1923 388 c 0,161,162
 1900 322 1900 322 1862 255 c 0,163,164
 1717 22 1717 22 1350 -1 c 1,165,-1
 1215 -11 l 2,166,167
 1105 -19 1105 -19 1050 -19 c 2,168,-1
 1027 -19 l 2,169,170
 964 -19 964 -19 946 -20 c 0,0,1
1159 359 m 1,171,172
 1165 364 1165 364 1172 383 c 0,173,174
 1178 402 1178 402 1185 439 c 0,175,176
 1190 481 1190 481 1193 527 c 0,177,178
 1194 537 1194 537 1194 563 c 0,179,180
 1194 691 1194 691 1164 754 c 1,181,182
 1140 717 1140 717 1133 658 c 0,183,184
 1133 650 1133 650 1132 642 c 0,185,186
 1130 628 1130 628 1129 603 c 0,187,188
 1127 569 1127 569 1127 552 c 0,189,190
 1127 451 1127 451 1140 400 c 0,191,192
 1148 363 1148 363 1159 359 c 1,171,172
349 359 m 1,193,194
 402 368 402 368 404 435 c 2,195,-1
 404 445 l 2,196,197
 403 490 403 490 379 522 c 0,198,199
 346 560 346 560 294 560 c 0,200,201
 285 560 285 560 266 558 c 1,202,-1
 263 529 l 1,203,-1
 263 511 l 2,204,205
 263 491 263 491 265 466 c 0,206,207
 275 360 275 360 349 359 c 1,193,194
EndSplineSet
Validated: 513
EndChar

StartChar: tta-mlym
Encoding: 3359 3359 128
Width: 888
GlyphClass: 2
Flags: W
LayerCount: 2
Fore
SplineSet
253 -3 m 1,0,-1
 217 136 l 1,1,2
 242 137 242 137 278 143 c 0,3,4
 332 151 332 151 354 159 c 2,5,-1
 367 162 l 1,6,7
 520 206 520 206 644 337 c 0,8,9
 690 389 690 389 690 435 c 0,10,11
 690 471 690 471 675 492 c 0,12,13
 657 512 657 512 635 512 c 0,14,15
 570 511 570 511 425 454 c 0,16,17
 275 395 275 395 217 395 c 0,18,19
 121 397 121 397 82 498 c 1,20,21
 76 530 76 530 76 559 c 0,22,23
 76 590 76 590 82 609 c 0,24,25
 119 711 119 711 221 798 c 0,26,27
 324 887 324 887 429 939 c 0,28,29
 557 1001 557 1001 661 1031 c 1,30,-1
 666 1021 l 1,31,32
 699 943 699 943 720 902 c 1,33,-1
 682 892 l 2,34,35
 560 856 560 856 436 781 c 0,36,37
 391 754 391 754 348 722 c 0,38,39
 262 660 262 660 225 598 c 0,40,41
 212 576 212 576 212 561 c 0,42,43
 214 537 214 537 238 536 c 0,44,45
 259 537 259 537 292 552 c 0,46,47
 406 603 406 603 490 627 c 0,48,49
 572 651 572 651 634 651 c 0,50,51
 693 651 693 651 728 629 c 0,52,53
 778 603 778 603 806 547 c 0,54,55
 827 506 827 506 827 462 c 2,56,-1
 826 444 l 2,57,58
 825 383 825 383 788 308 c 1,59,-1
 788 306 l 1,60,61
 767 274 767 274 754 256 c 0,62,63
 677 154 677 154 526 77 c 0,64,65
 454 42 454 42 339 12 c 0,66,67
 290 0 290 0 253 -3 c 1,0,-1
EndSplineSet
Validated: 513
EndChar

StartChar: ttha-mlym
Encoding: 3360 3360 129
Width: 1132
GlyphClass: 2
Flags: W
LayerCount: 2
Fore
SplineSet
548 -7 m 0,0,1
 378 -6 378 -6 244 103 c 0,2,3
 68 250 68 250 68 508 c 0,4,5
 68 641 68 641 125 773 c 0,6,7
 201 947 201 947 358 1001 c 0,8,9
 427 1024 427 1024 453 1026 c 0,10,11
 504 1036 504 1036 559 1036 c 0,12,13
 745 1035 745 1035 870 935 c 0,14,15
 1033 801 1033 801 1051 514 c 1,16,-1
 1051 502 l 2,17,18
 1050 204 1050 204 861 83 c 0,19,20
 782 33 782 33 663 3 c 0,21,22
 647 0 647 0 636 -1 c 0,23,24
 598 -7 598 -7 548 -7 c 0,0,1
565 138 m 0,25,26
 687 139 687 139 777 199 c 1,27,28
 821 236 821 236 852 290 c 0,29,30
 906 383 906 383 906 503 c 0,31,32
 905 657 905 657 821 772 c 0,33,34
 734 888 734 888 590 894 c 0,35,36
 562 896 562 896 549 896 c 0,37,38
 399 895 399 895 307 790 c 0,39,40
 259 736 259 736 233 658 c 0,41,42
 212 594 212 594 212 527 c 0,43,44
 212 370 212 370 296 263 c 0,45,46
 351 194 351 194 430 162 c 0,47,48
 492 138 492 138 565 138 c 0,25,26
563 430 m 1,49,-1
 558 430 l 2,50,51
 498 431 498 431 477 480 c 0,52,53
 470 501 470 501 470 522 c 0,54,55
 470 548 470 548 481 571 c 0,56,57
 500 612 500 612 535 622 c 0,58,59
 549 625 549 625 561 625 c 0,60,61
 609 624 609 624 633 585 c 0,62,63
 651 555 651 555 651 522 c 0,64,65
 649 434 649 434 563 430 c 1,49,-1
EndSplineSet
Validated: 513
EndChar

